<svg width="1430" height="898" viewBox="0 0 1430 898" fill="none" xmlns="http://www.w3.org/2000/svg">
<g clip-path="url(#clip0)">
<rect width="1430" height="898" fill="white"/>
<path d="M854.642 523.87L849.143 733.685L754.698 694.916L762.763 486.155L854.642 523.87Z" fill="#F1B042"/>
<path d="M302.42 349.8L497.679 285.018L493.486 388.987L298.34 450.944L302.42 349.8Z" fill="#F1B042"/>
<path d="M934.739 339.86L1130 275.078L1125.8 379.046L930.659 441.003L934.739 339.86Z" fill="#6DC142"/>
<path d="M972.791 647.269L1168.05 582.487L1163.86 686.455L968.712 748.412L972.791 647.269Z" fill="#6DC142"/>
<path d="M466.141 712.87L661.4 648.088L657.207 752.057L462.061 814.013L466.141 712.87Z" fill="#6DC142"/>
<path d="M652.527 446.822L847.786 382.04L843.593 486.009L648.447 547.965L652.527 446.822Z" fill="#F1B042"/>
<path d="M696.142 427.84L703.772 218.095L797.819 257.865L787.633 466.529L696.142 427.84Z" fill="#429ADD"/>
<path d="M930.777 341.642L925.559 551.464L831.062 512.828L838.848 304.055L930.777 341.642Z" fill="#4A27B7"/>
<path d="M312.376 468.562L507.635 403.78L503.442 507.748L308.296 569.705L312.376 468.562Z" fill="#4A27B7"/>
<path d="M484.648 628.791L679.907 564.009L675.714 667.977L480.568 729.934L484.648 628.791Z" fill="#4A27B7"/>
<path d="M528.55 208.418L723.809 143.636L719.616 247.605L524.47 309.562L528.55 208.418Z" fill="#0E1732"/>
<path d="M1034.74 421.057L1230 356.275L1225.81 460.244L1030.66 522.201L1034.74 421.057Z" fill="#0E1732"/>
<path d="M571.232 666.497L766.491 601.715L762.298 705.683L567.152 767.64L571.232 666.497Z" fill="#0E1732"/>
<path d="M571.647 530.577L766.906 465.795L762.713 569.764L567.567 631.721L571.647 530.577Z" fill="#EE6E79"/>
<path d="M306.026 585.941L499.41 515.525L498.102 619.574L304.753 687.163L306.026 585.941Z" fill="#F1B042"/>
<path d="M418.183 602.216L581.122 556.447L577.498 646.29L414.104 703.359L418.183 602.216Z" fill="#684759"/>
<path d="M504.858 389.387L700.118 324.605L695.924 428.574L500.779 490.531L504.858 389.387Z" fill="#EE6E79"/>
<path d="M794.689 200.324L957.627 154.555L954.004 244.398L790.61 301.467L794.689 200.324Z" fill="#684759"/>
<path d="M237.99 465.75L221.58 414.898L247.528 415.862L263.232 466.687L237.99 465.75Z" fill="#EE6E79"/>
<path d="M662.779 341.334L646.37 290.482L672.318 291.446L688.022 342.271L662.779 341.334Z" fill="#6DC142"/>
<path d="M984.691 279.126L968.281 228.274L994.229 229.237L1009.93 280.063L984.691 279.126Z" fill="#EE6E79"/>
<path d="M586.45 547.186L570.041 496.335L595.988 497.298L611.692 548.123L586.45 547.186Z" fill="#684759"/>
<path d="M1145.08 662.851L1129.58 611.702L1155.5 613.149L1170.3 664.259L1145.08 662.851Z" fill="#0E1732"/>
<path d="M1284.43 433.247L1269.3 382.098L1294.6 383.545L1309.04 434.654L1284.43 433.247Z" fill="#0E1732"/>
<path d="M756.793 769.17L741.294 718.021L767.22 719.468L782.015 770.578L756.793 769.17Z" fill="#0E1732"/>
<path d="M167.176 593.857L151.677 542.708L177.603 544.155L192.398 595.264L167.176 593.857Z" fill="#429ADD"/>
<path d="M1221.41 466.047L1205.91 414.898L1231.83 416.345L1246.63 467.455L1221.41 466.047Z" fill="#429ADD"/>
<path d="M408.92 135.778L393.795 84.6293L419.095 86.0764L433.533 137.186L408.92 135.778Z" fill="#429ADD"/>
<path d="M558.779 234.181L543.28 183.032L569.206 184.479L584.001 235.588L558.779 234.181Z" fill="#429ADD"/>
<path d="M966.976 504.503L951.476 453.354L977.402 454.801L992.197 505.911L966.976 504.503Z" fill="#429ADD"/>
<path d="M293.286 244.165L277.786 193.016L303.712 194.463L318.507 245.573L293.286 244.165Z" fill="#F1B042"/>
<path d="M986.888 740.894L971.388 689.745L997.314 691.192L1012.11 742.302L986.888 740.894Z" fill="#F1B042"/>
<path d="M329.791 824.592L314.292 773.443L340.217 774.89L355.012 826L329.791 824.592Z" fill="#F1B042"/>
<path d="M955.091 496.838L1150.35 432.056L1146.16 536.025L951.012 597.982L955.091 496.838Z" fill="#EE6E79"/>
<path d="M873.231 635.958L1068.49 571.176L1064.3 675.145L869.151 737.102L873.231 635.958Z" fill="#0E1732"/>
<path opacity="0.59" d="M323.521 353.194L575.686 288.412L570.27 392.381L318.252 454.337L323.521 353.194Z" fill="#0E1732"/>
<path opacity="0.59" d="M924.927 458.269L917.826 668.084L795.856 629.315L806.272 420.554L924.927 458.269Z" fill="#0E1732"/>
<path opacity="0.59" d="M220.642 269.495L514.367 206.07L508.951 310.039L215.373 370.639L220.642 269.495Z" fill="#4A27B7"/>
<path opacity="0.59" d="M1020.44 527.376L1272.61 462.594L1267.19 566.563L1015.17 628.52L1020.44 527.376Z" fill="#4A27B7"/>
<path opacity="0.59" d="M748.311 275.151L1000.48 210.369L995.06 314.338L743.042 376.294L748.311 275.151Z" fill="#407227"/>
<path opacity="0.59" d="M565.783 285.33L817.949 220.548L812.533 324.517L560.515 386.474L565.783 285.33Z" fill="#F1B042"/>
<path opacity="0.59" d="M971.768 283.068L1223.93 218.286L1218.52 322.255L966.499 384.212L971.768 283.068Z" fill="#CF8657"/>
<path opacity="0.59" d="M980.617 365.635L1232.78 300.853L1227.37 404.822L975.349 466.779L980.617 365.635Z" fill="#8E6827"/>
<path opacity="0.59" d="M292.546 604.288L544.712 539.506L539.296 643.475L287.278 705.432L292.546 604.288Z" fill="#6DC142"/>
<path opacity="0.59" d="M617.776 591.847L869.941 527.065L864.526 631.034L612.508 692.99L617.776 591.847Z" fill="#6DC142"/>
<path opacity="0.59" d="M651.051 376.696L903.216 311.914L897.801 415.883L645.783 477.84L651.051 376.696Z" fill="#0E1732"/>
<path opacity="0.59" d="M378.832 452.727L630.997 387.945L625.581 491.914L373.563 553.87L378.832 452.727Z" fill="#0E1732"/>
<path opacity="0.59" d="M805.834 500.231L1058 435.449L1052.58 539.418L800.566 601.375L805.834 500.231Z" fill="#F1B042"/>
<path opacity="0.59" d="M677.649 583.297L699.769 278.041L867.056 332.818L840.39 636.586L677.649 583.297Z" fill="#429ADD"/>
<path opacity="0.59" d="M316.063 573.118L338.183 267.861L505.47 322.639L478.804 626.406L316.063 573.118Z" fill="#429ADD"/>
<path opacity="0.59" d="M926.226 670.078L930.7 460.141L1053.13 496.642L1045.33 705.588L926.226 670.078Z" fill="#0E1732"/>
<path opacity="0.59" d="M1004.52 300.437L979.774 632.062L804.232 576.486L833.753 246.371L1004.52 300.437Z" fill="#EE6E79"/>
<path opacity="0.59" d="M497.795 242.117L467.913 573.3L293.254 514.89L327.882 185.294L497.795 242.117Z" fill="#EE6E79"/>
<path opacity="0.59" d="M710.628 322.13L684.412 639.979L519.229 587.683L549.934 271.255L710.628 322.13Z" fill="#4A27B7"/>
<path opacity="0.59" d="M558.981 286.715L536.178 619.62L357.447 563.034L385.106 231.667L558.981 286.715Z" fill="#F1B042"/>
<path opacity="0.59" d="M219.536 426.712L471.701 361.93L466.285 465.899L214.267 527.856L219.536 426.712Z" fill="#EE6E79"/>
<path opacity="0.59" d="M235.023 570.357L487.188 505.575L481.772 609.544L229.754 671.5L235.023 570.357Z" fill="#EE6E79"/>
<path opacity="0.59" d="M545.871 483.265L798.037 418.483L792.621 522.452L540.603 584.409L545.871 483.265Z" fill="#0E1732"/>
<path opacity="0.59" d="M930.837 209.549L1183 144.767L1177.59 248.736L925.569 310.693L930.837 209.549Z" fill="#4A27B7"/>
<path opacity="0.59" d="M763.798 167.7L1015.96 102.918L1010.55 206.887L758.529 268.844L763.798 167.7Z" fill="#6DC142"/>
<path opacity="0.59" d="M541.447 530.77L793.612 465.988L788.196 569.957L536.178 631.913L541.447 530.77Z" fill="#8E6827"/>
<path opacity="0.59" d="M556.934 617.861L809.099 553.079L803.683 657.048L551.665 719.005L556.934 617.861Z" fill="#0E1732"/>
<path opacity="0.59" d="M541.447 565.832L793.612 501.05L788.196 605.019L536.178 666.976L541.447 565.832Z" fill="#EE6E79"/>
<path opacity="0.59" d="M654.281 225.384L906.447 160.602L901.031 264.571L649.013 326.528L654.281 225.384Z" fill="#EE6E79"/>
<path opacity="0.59" d="M339.008 513.804L591.173 449.022L585.757 552.991L333.739 614.947L339.008 513.804Z" fill="#0E1732"/>
<path opacity="0.59" d="M203.567 515.816L453.311 445.399L451.621 549.448L201.923 617.037L203.567 515.816Z" fill="#429ADD"/>
<path opacity="0.59" d="M818.003 590.716L1070.17 525.934L1064.75 629.903L812.734 691.859L818.003 590.716Z" fill="#EE6E79"/>
<path opacity="0.59" d="M217.848 512.123L196.657 461.272L230.166 462.235L250.447 513.061L217.848 512.123Z" fill="#C88244"/>
<path opacity="0.59" d="M768.747 177.33L747.556 126.479L781.065 127.442L801.346 178.268L768.747 177.33Z" fill="#EE6E79"/>
<path opacity="0.59" d="M1132.7 812.985L1111.5 762.133L1145.01 763.096L1165.29 813.922L1132.7 812.985Z" fill="#A9DA8F"/>
<path opacity="0.59" d="M1231.15 313.057L1209.96 262.205L1243.47 263.169L1263.75 313.994L1231.15 313.057Z" fill="#EE6E79"/>
<path opacity="0.59" d="M914.769 327.761L893.578 276.909L927.087 277.873L947.368 328.698L914.769 327.761Z" fill="#6DC142"/>
<path opacity="0.59" d="M879.37 686.306L858.178 635.455L891.688 636.418L911.969 687.243L879.37 686.306Z" fill="#6DC142"/>
<path opacity="0.59" d="M851.944 209L835.535 158.148L861.482 159.112L877.186 209.937L851.944 209Z" fill="white"/>
<path opacity="0.59" d="M759.021 659.161L742.612 608.309L768.559 609.273L784.263 660.098L759.021 659.161Z" fill="#EE6E79"/>
<path opacity="0.59" d="M582.025 346.989L565.616 296.137L591.563 297.101L607.267 347.926L582.025 346.989Z" fill="#EE6E79"/>
<path opacity="0.59" d="M766.535 265.553L745.344 214.701L778.853 215.665L799.134 266.49L766.535 265.553Z" fill="#684759"/>
<path opacity="0.59" d="M366.082 754.17L344.891 703.318L378.4 704.281L398.681 755.107L366.082 754.17Z" fill="#684759"/>
<path opacity="0.59" d="M178.024 486.109L156.833 435.257L190.342 436.221L210.623 487.046L178.024 486.109Z" fill="#684759"/>
<path opacity="0.59" d="M1234.05 593.857L1214.03 542.708L1247.52 544.155L1266.62 595.264L1234.05 593.857Z" fill="#0E1732"/>
<path opacity="0.59" d="M300.796 385.742L280.779 334.593L314.261 336.04L333.367 387.15L300.796 385.742Z" fill="#0E1732"/>
<path opacity="0.59" d="M231.103 433.26L211.049 382.097L244.53 383.561L263.674 434.683L231.103 433.26Z" fill="#429ADD"/>
<path opacity="0.59" d="M468.941 779.363L448.887 728.201L482.368 729.664L501.512 780.787L468.941 779.363Z" fill="#429ADD"/>
<path d="M903.921 757.86L888.422 706.711L914.348 708.158L929.143 759.268L903.921 757.86Z" fill="#429ADD"/>
<path d="M459.219 696.783L443.72 645.634L469.646 647.081L484.441 698.191L459.219 696.783Z" fill="#429ADD"/>
<path d="M932.683 165.186L917.183 114.037L943.109 115.484L957.904 166.594L932.683 165.186Z" fill="#429ADD"/>
<path opacity="0.59" d="M1212.56 195.724L1197.06 144.575L1222.98 146.022L1237.78 197.132L1212.56 195.724Z" fill="#E19868"/>
<path opacity="0.59" d="M647.277 805.364L631.778 754.215L657.704 755.662L672.499 806.772L647.277 805.364Z" fill="#9480D5"/>
<path opacity="0.59" d="M1068.51 363.121L1048.5 311.972L1081.98 313.419L1101.09 364.529L1068.51 363.121Z" fill="#429ADD"/>
<path opacity="0.59" d="M392.846 221.739L377.346 170.59L403.272 172.037L418.067 223.147L392.846 221.739Z" fill="white"/>
<path opacity="0.59" d="M1166.1 592.725L1150.6 541.576L1176.52 543.024L1191.32 594.133L1166.1 592.725Z" fill="white"/>
<path opacity="0.59" d="M1096.4 277.161L1080.9 226.011L1106.83 227.459L1121.63 278.568L1096.4 277.161Z" fill="white"/>
<path opacity="0.59" d="M616.303 347.286L600.804 296.137L626.729 297.584L641.524 348.694L616.303 347.286Z" fill="#F1B042"/>
<path opacity="0.59" d="M1082.86 670.768L1062.84 619.619L1096.32 621.066L1115.43 672.176L1082.86 670.768Z" fill="#F1B042"/>
<path opacity="0.59" d="M257.653 685.472L237.636 634.323L271.118 635.77L290.225 686.88L257.653 685.472Z" fill="#F1B042"/>
<path opacity="0.59" d="M910.493 464.921L1231.7 377.715L1224.45 516.824L903.444 600.249L910.493 464.921Z" fill="#6DC142"/>
<path opacity="0.59" d="M259.36 626.91L511.525 562.128L506.109 666.096L254.091 728.053L259.36 626.91Z" fill="#0E1732"/>
<path opacity="0.59" d="M299.938 641.064L283.529 590.212L309.476 591.176L325.181 642.001L299.938 641.064Z" fill="white"/>
<g opacity="0.78" filter="url(#filter0_b)">
<rect width="1430" height="898" fill="#F7F5EE" fill-opacity="0.77"/>
</g>
</g>
<defs>
<filter id="filter0_b" x="-18" y="-18" width="1466" height="934" filterUnits="userSpaceOnUse" color-interpolation-filters="sRGB">
<feFlood flood-opacity="0" result="BackgroundImageFix"/>
<feGaussianBlur in="BackgroundImage" stdDeviation="9"/>
<feComposite in2="SourceAlpha" operator="in" result="effect1_backgroundBlur"/>
<feBlend mode="normal" in="SourceGraphic" in2="effect1_backgroundBlur" result="shape"/>
</filter>
<clipPath id="clip0">
<rect width="1430" height="898" fill="white"/>
</clipPath>
</defs>
</svg>
