<svg width="71" height="71" viewBox="0 0 71 71" fill="none" xmlns="http://www.w3.org/2000/svg">
<path d="M56.1727 5.95221L65.0477 14.8272L58.282 21.5959L49.407 12.7209L56.1727 5.95221Z" fill="#F7F5EE"/>
<path d="M23.6667 47.3334H32.5417L54.0991 25.776L45.2241 16.901L23.6667 38.4584V47.3334Z" fill="#F7F5EE"/>
<path d="M56.2083 56.2083H24.1341C24.0572 56.2083 23.9773 56.2379 23.9004 56.2379C23.8028 56.2379 23.7051 56.2113 23.6045 56.2083H14.7917V14.7917H35.0474L40.964 8.875H14.7917C11.5286 8.875 8.875 11.5257 8.875 14.7917V56.2083C8.875 59.4743 11.5286 62.125 14.7917 62.125H56.2083C57.7775 62.125 59.2825 61.5016 60.392 60.392C61.5016 59.2825 62.125 57.7775 62.125 56.2083V30.5655L56.2083 36.4822V56.2083Z" fill="#F7F5EE"/>
</svg>
