<svg width="25" height="25" viewBox="0 0 25 25" fill="none" xmlns="http://www.w3.org/2000/svg">
<path d="M18.2696 0C16.1456 0 14.4235 1.72404 14.4235 3.84615C14.4235 6.40865 17.7888 9.90961 17.7888 13.4317H18.7504C18.7513 9.90961 22.1158 6.50962 22.1158 3.84615C22.1158 1.72404 20.3936 0 18.2696 0ZM18.2696 1.86346C18.5301 1.86359 18.788 1.91502 19.0286 2.01483C19.2693 2.11463 19.4879 2.26085 19.672 2.44514C19.8561 2.62943 20.0021 2.84818 20.1017 3.08889C20.2012 3.32961 20.2524 3.58758 20.2523 3.84808C20.2522 4.10857 20.2007 4.3665 20.1009 4.60712C20.0011 4.84773 19.8549 5.06634 19.6706 5.25045C19.4863 5.43456 19.2676 5.58057 19.0269 5.68014C18.7862 5.77971 18.5282 5.8309 18.2677 5.83077C17.7415 5.83051 17.2369 5.62123 16.865 5.24895C16.4931 4.87667 16.2843 4.3719 16.2845 3.84567C16.2848 3.31945 16.4941 2.81488 16.8663 2.44296C17.2386 2.07104 17.7434 1.86224 18.2696 1.8625V1.86346ZM12.5004 1.92308C6.13788 1.92308 0.961914 7.09904 0.961914 13.4615C0.961914 19.824 6.13788 25 12.5004 25C18.8629 25 24.0388 19.824 24.0388 13.4615C24.0388 11.5288 23.56 9.71538 22.7167 8.1125C22.5888 8.36635 22.46 8.60769 22.3263 8.86442C22.0735 9.35288 21.8071 9.84615 21.5744 10.3365C21.8148 11.024 21.9802 11.751 22.0552 12.5H20.7936C20.7244 12.8221 20.6735 13.125 20.6735 13.4317V14.4231H22.0561C21.9257 15.7787 21.5053 17.0904 20.8235 18.2692H18.0004C18.2119 17.3673 18.334 16.3702 18.4206 15.3548H16.5263C16.4367 16.3386 16.2663 17.3134 16.0167 18.2692H8.98403C8.65907 17.0108 8.46763 15.7216 8.41288 14.4231H15.8648V13.4317C15.8574 13.1178 15.8171 12.8055 15.7446 12.5H8.41384C8.46859 11.2014 8.66003 9.91227 8.98499 8.65385H14.1235C13.7899 8.02404 13.4788 7.38261 13.1908 6.73077H9.64557C10.4408 4.91635 11.4917 3.84615 12.5004 3.84615C12.5004 3.17788 12.6206 2.55 12.8311 1.95288C12.7206 1.94904 12.6119 1.92308 12.5004 1.92308ZM8.53403 4.71731C8.1511 5.35683 7.82917 6.03096 7.57249 6.73077H5.64941C6.47883 5.88779 7.45676 5.20519 8.53403 4.71731ZM4.1773 8.65385H7.00038C6.70955 9.91698 6.5386 11.2047 6.4898 12.5H2.94461C3.07463 11.1443 3.49506 9.83254 4.1773 8.65385V8.65385ZM2.94461 14.4231H6.49076C6.54749 15.7933 6.72441 17.0865 7.00134 18.2692H4.1773C3.49589 17.0902 3.07552 15.7786 2.94461 14.4231ZM5.64941 20.1923H7.57249C7.84941 20.9385 8.17345 21.6087 8.53403 22.2058C7.45676 21.7179 6.47883 21.0353 5.64941 20.1923V20.1923ZM9.64557 20.1923H15.3552C14.56 22.0067 13.509 23.0769 12.5004 23.0769C11.4917 23.0769 10.4398 22.0067 9.64557 20.1923ZM17.4283 20.1923H19.3513C18.5219 21.0353 17.544 21.7179 16.4667 22.2058C16.8273 21.6096 17.1513 20.9394 17.4283 20.1923Z" fill="black"/>
</svg>
