<svg width="45" height="45" viewBox="0 0 45 45" fill="none" xmlns="http://www.w3.org/2000/svg">
<g clip-path="url(#clip0)">
<g filter="url(#filter0_d)">
<path d="M30.0717 25.1634C29.9605 25.1634 29.8463 25.1694 29.7321 25.1814C29.1101 27.1466 27.0909 28.006 24.9574 27.7415C21.6071 27.3299 18.5331 24.7818 17.5025 21.5817C17.2921 20.9416 17.22 20.3046 17.196 19.6255C17.1359 17.8767 17.4724 16.0047 19.2242 15.2805L19.2453 15.2715C19.3024 15.2475 19.3594 15.2325 19.4165 15.2144C19.2903 15.0251 19.1611 14.8268 19.0379 14.6075C18.8637 14.298 18.7585 13.9704 18.6954 13.6519C16.8174 14.307 15.6725 15.9656 14.8702 17.7926C14.104 19.5414 9.12501 32.988 9.12501 32.988L8.45794 34.7909C8.22957 35.4159 7.875 36.0439 7.875 36.726C7.875 37.5223 8.58414 38.0661 9.38342 37.8438C9.91828 37.6935 10.5072 37.4171 11.0511 37.2007C12.202 36.732 14.3354 35.8095 14.3354 35.8095L23.2537 32.1376C23.2537 32.1376 27.5536 30.5811 29.3625 28.8774C30.2399 28.051 30.9431 26.8611 31.2526 25.4399C31.1895 25.4068 31.1233 25.3707 31.0572 25.3437C30.7568 25.2205 30.4352 25.1634 30.0717 25.1634V25.1634Z" fill="#FCC21B"/>
</g>
<g filter="url(#filter1_d)">
<path d="M36.3641 18.2038C36.4782 18.4652 36.7577 18.3991 37.0311 18.4592C37.6381 18.5975 38.2541 18.5824 38.8761 18.5824C39.1075 18.5824 39.6934 18.6696 39.8587 18.4622C39.9909 18.294 39.8767 17.9604 39.8587 17.7651L39.7866 17.0019C39.7745 16.8817 39.7956 16.0944 39.6934 16.0283C39.5191 15.9111 39.1886 15.9682 38.9903 15.9712C38.6267 15.9833 38.2691 16.0283 37.8995 16.0283C37.4218 16.0283 36.9049 16.0343 36.4422 16.1485C36.2799 16.5782 36.325 17.0259 36.325 17.4977C36.325 17.717 36.2769 17.9995 36.3641 18.2038Z" fill="#40C0E7"/>
</g>
<g filter="url(#filter2_d)">
<path d="M27.2773 5.44533C27.668 5.61961 28.0466 5.71876 28.4462 5.83295C28.5874 5.87502 28.6776 5.94413 28.8248 5.866C29.0141 5.76985 29.2245 5.43631 29.3296 5.25302C29.579 4.79929 29.7623 4.35157 29.9336 3.8738C30.0267 3.61839 30.3032 3.20372 30.2341 2.93329C30.174 2.70492 29.8435 2.5637 29.6572 2.46454C29.4078 2.33533 29.1704 2.16105 28.918 2.04987C28.5934 1.90864 28.1487 1.7554 27.8002 1.70432C27.6079 1.67427 27.4726 1.75239 27.3675 1.87559C27.2713 1.98677 27.1992 2.13401 27.1271 2.26922C26.7635 2.96634 26.3158 4.01503 26.3308 4.82032C26.3368 5.20193 26.9889 5.31612 27.2773 5.44533V5.44533Z" fill="#40C0E7"/>
</g>
<path d="M11.6581 9.57968C11.8774 9.91622 12.0727 10.2227 12.3311 10.5412C12.5835 10.8477 12.7638 10.9078 13.0733 10.6524C13.2686 10.4962 13.491 10.373 13.6773 10.2047C13.8546 10.0484 14.0018 9.85011 14.1791 9.68785C14.3053 9.57066 14.5547 9.45348 14.6268 9.29122C14.726 9.06285 14.5186 8.86453 14.3924 8.69626C14.2362 8.48592 14.116 8.25755 13.9447 8.04722C13.7254 7.78279 13.488 7.53339 13.2416 7.287C13.0403 7.08567 12.7969 6.77617 12.5685 6.61992C12.5084 6.58086 12.4393 6.55382 12.3672 6.5448C12.0938 6.50574 11.7692 6.66199 11.5559 6.78819C11.2644 6.95947 10.982 7.21488 10.7266 7.44024C10.3269 7.79481 10.7145 8.26056 10.9489 8.5971C11.1833 8.92162 11.4357 9.23713 11.6581 9.57968Z" fill="#D7598B"/>
<g filter="url(#filter3_d)">
<path d="M20.4354 8.34477C20.8501 9.78107 19.7443 10.8899 19.6241 12.251C19.5881 12.6447 19.5881 13.0383 19.6542 13.4169C19.6962 13.6633 19.7654 13.9037 19.8886 14.123C20.0508 14.4115 20.2371 14.6729 20.4084 14.9434C20.5767 15.2048 20.7269 15.4692 20.8291 15.7727C21.0544 16.4458 20.8982 17.0528 20.802 17.7198C20.7239 18.2517 20.4535 18.7535 20.1289 19.1742C20.0298 19.3034 19.7563 19.4686 19.8224 19.6579C19.8315 19.691 19.8916 19.703 19.9787 19.703C20.3393 19.703 21.1896 19.4837 21.3128 19.4266C21.8537 19.1651 22.1692 18.6363 22.4487 18.1255C22.8633 17.3683 23.1308 16.4848 23.0136 15.6164C22.9895 15.4181 22.9354 15.2318 22.8693 15.0515C22.668 14.5137 22.3345 14.0329 22.1452 13.483C22.1211 13.4169 22.0971 13.3508 22.0791 13.2817C21.8026 12.206 22.4667 11.1513 23.0256 10.2949C23.5755 9.45655 23.7828 8.22457 23.3922 7.26303C23.1939 6.77625 22.8754 6.28947 22.4877 5.93189C22.028 5.50521 21.3279 5.11758 21.406 4.3814C21.4721 3.74137 21.9048 3.06829 22.2323 2.53944C22.3946 2.27201 22.9054 1.72513 22.8874 1.41864C22.8723 1.10614 22.4366 0.949888 22.2293 0.766594C21.7606 0.351928 21.388 0.0334159 20.787 -0.155888C20.6963 -0.188252 20.6009 -0.205509 20.5045 -0.20697C20.1169 -0.20697 19.9817 0.144595 19.7654 0.523203C19.3687 1.22333 18.9781 1.96251 18.7137 2.71973C18.2149 4.12599 18.1397 5.57732 19.2185 6.89344C19.5911 7.35317 20.2792 7.8039 20.4354 8.34477V8.34477Z" fill="#ED6C30"/>
</g>
<g filter="url(#filter4_d)">
<path d="M25.3092 20.4691C25.3843 20.5472 25.4534 20.5803 25.5165 20.5803C25.6337 20.5803 25.7268 20.4601 25.8019 20.3188C25.859 20.2107 25.9041 20.0995 25.9402 19.9823C26.1415 19.3062 26.5411 18.6361 26.8717 18.0111C26.9318 17.9 26.9919 17.7918 27.0489 17.6836C27.2773 17.2539 27.5117 16.8242 27.7551 16.3975C27.9444 16.061 28.1337 15.7215 28.338 15.3969C28.8729 14.5406 29.594 13.6271 30.5015 13.1493C31.0724 12.8428 31.7154 12.7016 32.2894 12.3981C32.9414 12.0586 33.323 11.5447 33.7467 10.9588C34.1674 10.3789 34.3867 9.66373 34.7714 9.05375C34.9336 8.79533 34.9096 8.56697 35.195 8.38668C35.8291 7.99004 36.5893 8.12526 37.2924 7.99004C38.9541 7.67153 39.1013 5.48101 40.4595 4.69074C40.745 4.52547 41.0364 4.37223 41.3249 4.21898C41.4932 4.12884 41.8177 4.01766 41.9349 3.85239C42.1362 3.56994 41.7546 3.20035 41.6404 2.94193C41.4421 2.49722 41.1446 2.0495 40.8892 1.63483C40.6728 1.28627 40.4805 0.970764 40.0959 0.970764L40.0208 0.976774C39.1524 1.06091 38.3771 1.44252 37.8213 2.10659C37.1452 2.91789 37.055 4.17091 35.9913 4.61562C35.3002 4.90408 34.4859 4.7899 33.8308 5.18954C33.0556 5.6643 32.8062 6.60181 32.5898 7.42513C32.4276 8.0261 32.4186 8.75026 31.9618 9.22202C31.3428 9.85604 30.4023 9.93416 29.6091 10.2737C29.3957 10.3669 29.1914 10.478 29.0081 10.6223C28.0015 11.4155 27.4306 12.7166 26.9798 13.8825C26.7965 14.3603 26.6313 14.8471 26.469 15.3338C26.3188 15.7876 26.1715 16.2413 26.0303 16.698C25.9582 16.9324 25.8801 17.1668 25.808 17.4042C25.6247 17.9991 25.4564 18.6091 25.24 19.195C25.0898 19.5706 24.9967 20.1446 25.3092 20.4691V20.4691Z" fill="#ED6C30"/>
</g>
<g filter="url(#filter5_d)">
<path d="M44.9489 25.6562C44.8918 25.5961 44.8106 25.5901 44.7295 25.5901L44.6364 25.5931L44.5853 25.5901C44.405 25.5781 44.2547 25.5 44.0805 25.4399C43.2782 25.1604 42.7583 24.929 42.0492 24.4513C41.2499 23.9134 40.3334 23.4116 39.3479 23.3665L39.2337 23.3635C38.2601 23.3635 37.3617 23.8774 36.3851 23.8774H36.3791C35.2974 23.8713 34.3629 23.1021 33.5095 22.5342C33.4374 22.4861 33.3653 22.4411 33.2871 22.399C32.6171 22.0204 31.8959 21.8551 31.1687 21.8461C31.1507 21.8461 31.1297 21.8401 31.1116 21.8401C30.6098 21.8401 30.105 21.9182 29.6122 22.0564C29.1315 22.1886 28.6657 22.381 28.221 22.6183C27.5842 22.9574 26.9815 23.3569 26.4211 23.8113C26.1116 24.0607 25.7721 24.3461 25.5617 24.6917C25.4475 24.875 25.2913 25.5721 25.5828 25.6863L25.6218 25.6953C25.736 25.6953 25.9223 25.5751 26.0034 25.524C26.6525 25.1244 27.3376 24.7758 28.0677 24.5474C28.6657 24.3581 29.2937 24.2199 29.9157 24.1959C29.9668 24.1929 30.0209 24.1899 30.072 24.1899C30.5197 24.1899 30.9644 24.259 31.3971 24.4272L31.4151 24.4363C32.0191 24.6766 32.5239 25.0913 33.0227 25.497C33.7559 26.0919 34.5702 26.2241 35.3995 26.2241C36.0456 26.2241 36.7006 26.146 37.3406 26.146C38.0107 26.146 38.6598 26.2331 39.2577 26.5847C39.7445 26.8762 40.1832 27.2578 40.5588 27.6634C40.9735 28.1052 41.5023 28.4747 42.1243 28.5709C42.3887 28.613 42.6291 28.634 42.8966 28.637H42.9026C43.3533 28.637 43.5246 28.1172 43.7529 27.8197C44.0654 27.417 44.2818 26.9543 44.5672 26.5306C44.6874 26.3443 45.1532 25.8605 44.9489 25.6562V25.6562Z" fill="#ED6C30"/>
</g>
</g>
<defs>
<filter id="filter0_d" x="6.875" y="13.6519" width="31.3776" height="32.242" filterUnits="userSpaceOnUse" color-interpolation-filters="sRGB">
<feFlood flood-opacity="0" result="BackgroundImageFix"/>
<feColorMatrix in="SourceAlpha" type="matrix" values="0 0 0 0 0 0 0 0 0 0 0 0 0 0 0 0 0 0 127 0"/>
<feOffset dx="3" dy="4"/>
<feGaussianBlur stdDeviation="2"/>
<feColorMatrix type="matrix" values="0 0 0 0 0.566667 0 0 0 0 0.543056 0 0 0 0 0.543056 0 0 0 0.25 0"/>
<feBlend mode="normal" in2="BackgroundImageFix" result="effect1_dropShadow"/>
<feBlend mode="normal" in="SourceGraphic" in2="effect1_dropShadow" result="shape"/>
</filter>
<filter id="filter1_d" x="35.3118" y="15.9547" width="11.6099" height="10.6459" filterUnits="userSpaceOnUse" color-interpolation-filters="sRGB">
<feFlood flood-opacity="0" result="BackgroundImageFix"/>
<feColorMatrix in="SourceAlpha" type="matrix" values="0 0 0 0 0 0 0 0 0 0 0 0 0 0 0 0 0 0 127 0"/>
<feOffset dx="3" dy="4"/>
<feGaussianBlur stdDeviation="2"/>
<feColorMatrix type="matrix" values="0 0 0 0 0.566667 0 0 0 0 0.543056 0 0 0 0 0.543056 0 0 0 0.25 0"/>
<feBlend mode="normal" in2="BackgroundImageFix" result="effect1_dropShadow"/>
<feBlend mode="normal" in="SourceGraphic" in2="effect1_dropShadow" result="shape"/>
</filter>
<filter id="filter2_d" x="25.3304" y="1.69788" width="11.9146" height="12.2036" filterUnits="userSpaceOnUse" color-interpolation-filters="sRGB">
<feFlood flood-opacity="0" result="BackgroundImageFix"/>
<feColorMatrix in="SourceAlpha" type="matrix" values="0 0 0 0 0 0 0 0 0 0 0 0 0 0 0 0 0 0 127 0"/>
<feOffset dx="3" dy="4"/>
<feGaussianBlur stdDeviation="2"/>
<feColorMatrix type="matrix" values="0 0 0 0 0.566667 0 0 0 0 0.543056 0 0 0 0 0.543056 0 0 0 0.25 0"/>
<feBlend mode="normal" in2="BackgroundImageFix" result="effect1_dropShadow"/>
<feBlend mode="normal" in="SourceGraphic" in2="effect1_dropShadow" result="shape"/>
</filter>
<filter id="filter3_d" x="17.3633" y="-0.20697" width="13.2303" height="27.91" filterUnits="userSpaceOnUse" color-interpolation-filters="sRGB">
<feFlood flood-opacity="0" result="BackgroundImageFix"/>
<feColorMatrix in="SourceAlpha" type="matrix" values="0 0 0 0 0 0 0 0 0 0 0 0 0 0 0 0 0 0 127 0"/>
<feOffset dx="3" dy="4"/>
<feGaussianBlur stdDeviation="2"/>
<feColorMatrix type="matrix" values="0 0 0 0 0.566667 0 0 0 0 0.543056 0 0 0 0 0.543056 0 0 0 0.25 0"/>
<feBlend mode="normal" in2="BackgroundImageFix" result="effect1_dropShadow"/>
<feBlend mode="normal" in="SourceGraphic" in2="effect1_dropShadow" result="shape"/>
</filter>
<filter id="filter4_d" x="24.101" y="0.970764" width="24.8916" height="27.6095" filterUnits="userSpaceOnUse" color-interpolation-filters="sRGB">
<feFlood flood-opacity="0" result="BackgroundImageFix"/>
<feColorMatrix in="SourceAlpha" type="matrix" values="0 0 0 0 0 0 0 0 0 0 0 0 0 0 0 0 0 0 127 0"/>
<feOffset dx="3" dy="4"/>
<feGaussianBlur stdDeviation="2"/>
<feColorMatrix type="matrix" values="0 0 0 0 0.566667 0 0 0 0 0.543056 0 0 0 0 0.543056 0 0 0 0.25 0"/>
<feBlend mode="normal" in2="BackgroundImageFix" result="effect1_dropShadow"/>
<feBlend mode="normal" in="SourceGraphic" in2="effect1_dropShadow" result="shape"/>
</filter>
<filter id="filter5_d" x="24.4161" y="21.8401" width="27.5839" height="14.7969" filterUnits="userSpaceOnUse" color-interpolation-filters="sRGB">
<feFlood flood-opacity="0" result="BackgroundImageFix"/>
<feColorMatrix in="SourceAlpha" type="matrix" values="0 0 0 0 0 0 0 0 0 0 0 0 0 0 0 0 0 0 127 0"/>
<feOffset dx="3" dy="4"/>
<feGaussianBlur stdDeviation="2"/>
<feColorMatrix type="matrix" values="0 0 0 0 0.566667 0 0 0 0 0.543056 0 0 0 0 0.543056 0 0 0 0.25 0"/>
<feBlend mode="normal" in2="BackgroundImageFix" result="effect1_dropShadow"/>
<feBlend mode="normal" in="SourceGraphic" in2="effect1_dropShadow" result="shape"/>
</filter>
<clipPath id="clip0">
<rect width="45" height="45" fill="white"/>
</clipPath>
</defs>
</svg>
