<svg width="30" height="30" viewBox="0 0 30 30" fill="none" xmlns="http://www.w3.org/2000/svg">
<path d="M22.707 11.7133C23.0874 11.7117 23.4519 11.5613 23.722 11.2944L24.7515 10.2689C24.9033 10.1394 25.0266 9.98005 25.1136 9.80085C25.2006 9.62164 25.2495 9.42645 25.2573 9.22752C25.265 9.02859 25.2313 8.83023 25.1584 8.64487C25.0855 8.45951 24.975 8.29116 24.8336 8.15039C24.6923 8.00963 24.5233 7.89948 24.3373 7.82686C24.1512 7.75424 23.9521 7.72072 23.7524 7.7284C23.5527 7.73609 23.3567 7.78481 23.1768 7.87151C22.997 7.95821 22.837 8.08102 22.707 8.23222L21.75 9.25778C21.4799 9.52841 21.3284 9.89451 21.3284 10.2761C21.3284 10.6577 21.4799 11.0238 21.75 11.2944C22.0056 11.5477 22.3468 11.6971 22.707 11.7133ZM14.5 8.33333C14.8846 8.33333 15.2534 8.18115 15.5253 7.91027C15.7972 7.63938 15.95 7.27198 15.95 6.88889V5.44444C15.95 5.06135 15.7972 4.69395 15.5253 4.42307C15.2534 4.15218 14.8846 4 14.5 4C14.1154 4 13.7466 4.15218 13.4747 4.42307C13.2028 4.69395 13.05 5.06135 13.05 5.44444V6.88889C13.05 7.27198 13.2028 7.63938 13.4747 7.91027C13.7466 8.18115 14.1154 8.33333 14.5 8.33333ZM2.9 17H1.45C1.06544 17 0.696623 17.1522 0.424695 17.4231C0.152767 17.694 0 18.0614 0 18.4444C0 18.8275 0.152767 19.1949 0.424695 19.4658C0.696623 19.7367 1.06544 19.8889 1.45 19.8889H2.9C3.28456 19.8889 3.65338 19.7367 3.9253 19.4658C4.19723 19.1949 4.35 18.8275 4.35 18.4444C4.35 18.0614 4.19723 17.694 3.9253 17.4231C3.65338 17.1522 3.28456 17 2.9 17ZM5.278 11.2944C5.54808 11.5613 5.91261 11.7117 6.293 11.7133C6.48383 11.7144 6.673 11.678 6.84966 11.6061C7.02633 11.5342 7.18701 11.4283 7.3225 11.2944C7.59256 11.0238 7.74415 10.6577 7.74415 10.2761C7.74415 9.89451 7.59256 9.52841 7.3225 9.25778L6.293 8.23222C6.01561 7.99558 5.6588 7.87193 5.29387 7.88597C4.92894 7.90001 4.58277 8.05072 4.32453 8.30796C4.0663 8.56521 3.91501 8.91006 3.90092 9.27359C3.88682 9.63712 4.01095 9.99256 4.2485 10.2689L5.278 11.2944ZM27.55 17H26.1C25.7154 17 25.3466 17.1522 25.0747 17.4231C24.8028 17.694 24.65 18.0614 24.65 18.4444C24.65 18.8275 24.8028 19.1949 25.0747 19.4658C25.3466 19.7367 25.7154 19.8889 26.1 19.8889H27.55C27.9346 19.8889 28.3034 19.7367 28.5753 19.4658C28.8472 19.1949 29 18.8275 29 18.4444C29 18.0614 28.8472 17.694 28.5753 17.4231C28.3034 17.1522 27.9346 17 27.55 17ZM13.05 27.1111H8.7C8.31544 27.1111 7.94662 27.2633 7.6747 27.5342C7.40277 27.8051 7.25 28.1725 7.25 28.5556C7.25 28.9386 7.40277 29.306 7.6747 29.5769C7.94662 29.8478 8.31544 30 8.7 30H13.05C13.4346 30 13.8034 29.8478 14.0753 29.5769C14.3472 29.306 14.5 28.9386 14.5 28.5556C14.5 28.1725 14.3472 27.8051 14.0753 27.5342C13.8034 27.2633 13.4346 27.1111 13.05 27.1111ZM23.2 21.3333H21.924C22.2902 20.414 22.4772 19.4335 22.475 18.4444C22.475 16.3374 21.6348 14.3167 20.1392 12.8269C18.6436 11.337 16.6151 10.5 14.5 10.5C12.3849 10.5 10.3564 11.337 8.86082 12.8269C7.36522 14.3167 6.525 16.3374 6.525 18.4444C6.52279 19.4335 6.70979 20.414 7.076 21.3333H5.8C5.41544 21.3333 5.04662 21.4855 4.7747 21.7564C4.50277 22.0273 4.35 22.3947 4.35 22.7778C4.35 23.1609 4.50277 23.5283 4.7747 23.7992C5.04662 24.07 5.41544 24.2222 5.8 24.2222H23.2C23.5846 24.2222 23.9534 24.07 24.2253 23.7992C24.4972 23.5283 24.65 23.1609 24.65 22.7778C24.65 22.3947 24.4972 22.0273 24.2253 21.7564C23.9534 21.4855 23.5846 21.3333 23.2 21.3333ZM18.6325 21.3333H10.3675C9.75832 20.492 9.42874 19.4818 9.425 18.4444C9.425 17.1036 9.95969 15.8177 10.9114 14.8696C11.8632 13.9215 13.154 13.3889 14.5 13.3889C15.846 13.3889 17.1368 13.9215 18.0886 14.8696C19.0403 15.8177 19.575 17.1036 19.575 18.4444C19.5713 19.4818 19.2417 20.492 18.6325 21.3333ZM20.3 27.1111H18.85C18.4654 27.1111 18.0966 27.2633 17.8247 27.5342C17.5528 27.8051 17.4 28.1725 17.4 28.5556C17.4 28.9386 17.5528 29.306 17.8247 29.5769C18.0966 29.8478 18.4654 30 18.85 30H20.3C20.6846 30 21.0534 29.8478 21.3253 29.5769C21.5972 29.306 21.75 28.9386 21.75 28.5556C21.75 28.1725 21.5972 27.8051 21.3253 27.5342C21.0534 27.2633 20.6846 27.1111 20.3 27.1111Z" fill="#F1B042"/>
</svg>
