<svg width="26" height="26" viewBox="0 0 26 26" fill="none" xmlns="http://www.w3.org/2000/svg">
<path d="M23.5084 9.82577C23.3779 9.69758 23.217 9.60452 23.0409 9.55527C22.8647 9.50602 22.6789 9.50218 22.5009 9.54411C22.2663 9.5983 22.0266 9.62735 21.7859 9.63077C20.9239 9.63077 20.0972 9.28836 19.4878 8.67887C18.8783 8.06938 18.5359 7.24273 18.5359 6.38077C18.5393 6.14004 18.5683 5.90035 18.6225 5.66577C18.6644 5.48772 18.6606 5.30194 18.6114 5.12577C18.5621 4.9496 18.469 4.78877 18.3409 4.65827C18.2147 4.52244 18.0559 4.42123 17.8795 4.36433C17.7031 4.30743 17.5151 4.29673 17.3333 4.33327C16.2551 4.57132 15.2772 5.13771 14.5342 5.95448C13.7911 6.77124 13.3195 7.79824 13.1842 8.89411C12.5942 8.73691 11.9856 8.66038 11.375 8.66661C9.81378 8.66572 8.30438 9.2268 7.12279 10.2473C5.94121 11.2677 5.1664 12.6794 4.94002 14.2241C4.05839 14.4713 3.29601 15.0292 2.79368 15.7948C2.29135 16.5603 2.083 17.4818 2.20713 18.389C2.33126 19.2961 2.77947 20.1278 3.46898 20.7302C4.15849 21.3327 5.04272 21.6653 5.95835 21.6666H15.8925C17.1366 21.6666 18.3297 21.1724 19.2094 20.2927C20.0891 19.413 20.5834 18.2199 20.5834 16.9758C20.5876 16.2209 20.4052 15.4766 20.0525 14.8091C20.9829 14.5493 21.8255 14.0425 22.4912 13.3426C23.1568 12.6426 23.6206 11.7755 23.8334 10.8333C23.8699 10.6516 23.8592 10.4635 23.8023 10.2871C23.7454 10.1107 23.6442 9.95188 23.5084 9.82577V9.82577ZM15.925 19.4999H5.95835C5.52737 19.4999 5.11405 19.3287 4.8093 19.024C4.50455 18.7192 4.33335 18.3059 4.33335 17.8749C4.33335 17.444 4.50455 17.0306 4.8093 16.7259C5.11405 16.4211 5.52737 16.2499 5.95835 16.2499C6.24567 16.2499 6.52122 16.1358 6.72438 15.9326C6.92755 15.7295 7.04168 15.4539 7.04168 15.1666C7.04436 14.3878 7.25686 13.6241 7.65686 12.9559C8.05685 12.2877 8.62953 11.7396 9.31467 11.3693C9.99982 10.999 10.7721 10.8202 11.5503 10.8517C12.3284 10.8832 13.0837 11.1238 13.7367 11.5483C14.5275 12.0627 15.1256 12.8246 15.4375 13.7149C15.4994 13.9011 15.6108 14.0669 15.7596 14.1948C15.9084 14.3226 16.0891 14.4076 16.2825 14.4408C16.6147 14.4664 16.9386 14.5572 17.2357 14.7079C17.5328 14.8587 17.7973 15.0666 18.0141 15.3196C18.2309 15.5726 18.3957 15.8658 18.4992 16.1825C18.6026 16.4992 18.6427 16.8332 18.6171 17.1654C18.5915 17.4975 18.5007 17.8214 18.3499 18.1185C18.1991 18.4156 17.9913 18.6801 17.7383 18.8969C17.4853 19.1137 17.1921 19.2785 16.8754 19.382C16.5587 19.4855 16.2247 19.5255 15.8925 19.4999H15.925ZM18.5683 12.8808C18.4169 12.893 18.2648 12.893 18.1133 12.8808C17.8634 12.7468 17.6024 12.6345 17.3333 12.5449C16.8871 11.5733 16.2102 10.7254 15.3617 10.0749V9.67411C15.3617 9.20467 15.4633 8.74081 15.6597 8.31442C15.856 7.88803 16.1424 7.50924 16.4992 7.2041C16.6669 8.35986 17.2037 9.43046 18.0295 10.2563C18.8553 11.0821 19.9259 11.6189 21.0817 11.7866C20.7642 12.1453 20.3713 12.4295 19.9312 12.6186C19.4911 12.8078 19.0146 12.8973 18.5359 12.8808H18.5683Z" fill="#623BA6"/>
</svg>
