<svg width="49" height="49" viewBox="0 0 49 49" fill="none" xmlns="http://www.w3.org/2000/svg">
<path d="M25 3C20.6488 3 16.3953 4.26095 12.7775 6.6234C9.15958 8.98585 6.33979 12.3437 4.67466 16.2723C3.00953 20.2009 2.57386 24.5238 3.42273 28.6944C4.27161 32.865 6.3669 36.696 9.44366 39.7028C12.5204 42.7096 16.4404 44.7573 20.708 45.5869C24.9756 46.4165 29.3991 45.9907 33.419 44.3634C37.439 42.7361 40.8749 39.9804 43.2923 36.4448C45.7097 32.9091 47 28.7523 47 24.5C47 21.6766 46.431 18.8808 45.3254 16.2723C44.2197 13.6638 42.5992 11.2937 40.5564 9.2972C38.5135 7.30074 36.0882 5.71707 33.419 4.63659C30.7499 3.55611 27.8891 3 25 3V3ZM20.6 34.175V14.825L33.8 24.5L20.6 34.175Z" fill="#F1B042"/>
</svg>
