<svg width="25" height="25" viewBox="0 0 25 25" fill="none" xmlns="http://www.w3.org/2000/svg">
<g clip-path="url(#clip0)">
<path d="M9.59668 12.5369C9.96422 13.0246 10.4331 13.4281 10.9716 13.72C11.5101 14.012 12.1056 14.1857 12.7176 14.2292C13.3296 14.2727 13.9439 14.185 14.5189 13.9722C15.0938 13.7593 15.6158 13.4263 16.0496 12.9956L18.6171 10.4474C19.3966 9.6464 19.8279 8.57361 19.8182 7.46006C19.8084 6.34652 19.3584 5.28133 18.565 4.49391C17.7716 3.70649 16.6983 3.25984 15.5764 3.25016C14.4544 3.24048 13.3735 3.66855 12.5664 4.44217L11.0944 5.89464" stroke="#F7F5EE" stroke-width="2" stroke-linecap="round" stroke-linejoin="round"/>
<path d="M14.0967 10.8381C13.7291 10.3505 13.2602 9.94697 12.7217 9.65498C12.1832 9.363 11.5878 9.18936 10.9757 9.14586C10.3637 9.10236 9.74939 9.19 9.17448 9.40285C8.59957 9.61569 8.0775 9.94876 7.6437 10.3795L5.07621 12.9276C4.29673 13.7286 3.86541 14.8014 3.87516 15.915C3.88491 17.0285 4.33494 18.0937 5.12833 18.8811C5.92172 19.6685 6.99499 20.1152 8.11696 20.1249C9.23894 20.1345 10.3199 19.7065 11.1269 18.9329L12.5904 17.4804" stroke="#F7F5EE" stroke-width="2" stroke-linecap="round" stroke-linejoin="round"/>
</g>
<defs>
<clipPath id="clip0">
<rect width="25" height="25" fill="white"/>
</clipPath>
</defs>
</svg>
