<svg width="25" height="25" viewBox="0 0 25 25" fill="none" xmlns="http://www.w3.org/2000/svg">
<path d="M12.5 0C5.59644 0 0 5.59644 0 12.5C0 19.4036 5.59644 25 12.5 25C19.4036 25 25 19.4036 25 12.5C25 5.59644 19.4036 0 12.5 0ZM13.3575 5.41688C16.702 5.41688 19.4122 8.12867 19.4122 11.4731C19.4122 14.8175 16.702 17.5278 13.3575 17.5278C12.3454 17.5278 11.3915 17.2802 10.553 16.8411C10.5538 16.845 10.5552 16.8495 10.556 16.8533L7.82471 19.5831L5.58777 17.3447L8.22144 14.7095C8.22579 14.7075 8.23081 14.7068 8.23517 14.7049C7.64377 13.7696 7.30133 12.6614 7.30133 11.4731C7.30133 8.12865 10.0131 5.41688 13.3575 5.41688V5.41688ZM13.3575 8.107C11.4989 8.107 9.99146 9.61448 9.99146 11.4731C9.99146 13.3317 11.4989 14.8376 13.3575 14.8376C15.2162 14.8376 16.7221 13.3317 16.7221 11.4731C16.7221 9.61448 15.2162 8.107 13.3575 8.107Z" fill="white"/>
</svg>
