<svg width="45" height="45" viewBox="0 0 45 45" fill="none" xmlns="http://www.w3.org/2000/svg">
<path d="M16.1719 22.5C17.3369 22.5 18.2812 21.5556 18.2812 20.3906C18.2812 19.2256 17.3369 18.2812 16.1719 18.2812C15.0069 18.2812 14.0625 19.2256 14.0625 20.3906C14.0625 21.5556 15.0069 22.5 16.1719 22.5Z" fill="#F1B042"/>
<path d="M22.5043 33.7501C18.5123 33.7501 15.1549 31.1547 14.0923 27.6127C14.0626 27.5073 14.0579 27.3964 14.0786 27.2888C14.0993 27.1813 14.1449 27.0801 14.2116 26.9933C14.2784 26.9065 14.3645 26.8364 14.4631 26.7888C14.5617 26.7411 14.6701 26.7172 14.7796 26.7188H30.2211C30.3306 26.7172 30.439 26.7411 30.5376 26.7888C30.6362 26.8364 30.7223 26.9065 30.7891 26.9933C30.8558 27.0801 30.9014 27.1813 30.9221 27.2888C30.9428 27.3964 30.9381 27.5073 30.9084 27.6127C29.8546 31.1547 26.4963 33.7501 22.5043 33.7501Z" fill="#F1B042"/>
<path d="M28.8281 22.5C29.9931 22.5 30.9375 21.5556 30.9375 20.3906C30.9375 19.2256 29.9931 18.2812 28.8281 18.2812C27.6631 18.2812 26.7188 19.2256 26.7188 20.3906C26.7188 21.5556 27.6631 22.5 28.8281 22.5Z" fill="#F1B042"/>
<path d="M22.5 40.7812C32.5965 40.7812 40.7812 32.5965 40.7812 22.5C40.7812 12.4035 32.5965 4.21875 22.5 4.21875C12.4035 4.21875 4.21875 12.4035 4.21875 22.5C4.21875 32.5965 12.4035 40.7812 22.5 40.7812Z" stroke="#F1B042" stroke-miterlimit="10"/>
</svg>
