<svg width="25" height="25" viewBox="0 0 25 25" fill="none" xmlns="http://www.w3.org/2000/svg">
<path d="M5.65625 20H9C9.4375 20 9.65625 19.7812 9.65625 19.3438C9.65625 18.8854 9.4375 18.6562 9 18.6562H7.28125L11.4688 14.4688C11.7396 14.1562 11.7396 13.8438 11.4688 13.5312C11.1562 13.2604 10.8438 13.2604 10.5312 13.5312L6.34375 17.7188V16C6.34375 15.5625 6.11458 15.3438 5.65625 15.3438C5.21875 15.3438 5 15.5625 5 16V19.3438C5 19.5312 5.0625 19.6875 5.1875 19.8125C5.3125 19.9375 5.46875 20 5.65625 20ZM20.3438 15.3438C19.8854 15.3438 19.6562 15.5625 19.6562 16V17.7188L15.4688 13.5312C15.1562 13.2604 14.8438 13.2604 14.5312 13.5312C14.2604 13.8438 14.2604 14.1562 14.5312 14.4688L18.7188 18.6562H17C16.5625 18.6562 16.3438 18.8854 16.3438 19.3438C16.3438 19.7812 16.5625 20 17 20H20.3438C20.5312 20 20.6875 19.9375 20.8125 19.8125C20.9375 19.6875 21 19.5312 21 19.3438V16C21 15.5625 20.7812 15.3438 20.3438 15.3438ZM20.3438 4H17C16.5625 4 16.3438 4.21875 16.3438 4.65625C16.3438 5.11458 16.5625 5.34375 17 5.34375H18.7188L14.5312 9.53125C14.2604 9.84375 14.2604 10.1562 14.5312 10.4688C14.6562 10.5938 14.8125 10.6562 15 10.6562C15.1875 10.6562 15.3438 10.5938 15.4688 10.4688L19.6562 6.28125V8C19.6562 8.4375 19.8854 8.65625 20.3438 8.65625C20.7812 8.65625 21 8.4375 21 8V4.65625C21 4.46875 20.9375 4.3125 20.8125 4.1875C20.6875 4.0625 20.5312 4 20.3438 4ZM5.65625 8.65625C6.11458 8.65625 6.34375 8.4375 6.34375 8V6.28125L10.5312 10.4688C10.6562 10.5938 10.8125 10.6562 11 10.6562C11.1875 10.6562 11.3438 10.5938 11.4688 10.4688C11.7396 10.1562 11.7396 9.84375 11.4688 9.53125L7.28125 5.34375H9C9.4375 5.34375 9.65625 5.11458 9.65625 4.65625C9.65625 4.21875 9.4375 4 9 4H5.65625C5.46875 4 5.3125 4.0625 5.1875 4.1875C5.0625 4.3125 5 4.46875 5 4.65625V8C5 8.4375 5.21875 8.65625 5.65625 8.65625Z" fill="#F7F5EE"/>
</svg>
