<svg width="45" height="45" viewBox="0 0 45 45" fill="none" xmlns="http://www.w3.org/2000/svg">
<path d="M12.6669 18.3331H16.0002V21.6665H12.6669V18.3331ZM12.6669 24.9998H16.0002V28.3331H12.6669V24.9998ZM19.3335 18.3331H22.6669V21.6665H19.3335V18.3331ZM19.3335 24.9998H22.6669V28.3331H19.3335V24.9998ZM26.0002 18.3331H29.3335V21.6665H26.0002V18.3331ZM26.0002 24.9998H29.3335V28.3331H26.0002V24.9998Z" fill="white"/>
<path d="M9.33333 36.6665H32.6667C34.505 36.6665 36 35.1715 36 33.3331V9.9998C36 8.16146 34.505 6.66646 32.6667 6.66646H29.3333V3.33313H26V6.66646H16V3.33313H12.6667V6.66646H9.33333C7.495 6.66646 6 8.16146 6 9.9998V33.3331C6 35.1715 7.495 36.6665 9.33333 36.6665ZM32.6667 13.3331L32.6683 33.3331H9.33333V13.3331H32.6667Z" fill="white"/>
</svg>
