<svg width="25" height="24" viewBox="0 0 25 24" fill="none" xmlns="http://www.w3.org/2000/svg">
<path fill-rule="evenodd" clip-rule="evenodd" d="M13.2352 6C6.7617 6 1.51611 9.99 1.51611 11.9535C1.51611 13.917 6.76023 17.907 13.2352 17.907C19.7058 17.907 24.9543 13.98 24.9543 11.9535C24.9543 9.927 19.7058 6 13.2352 6ZM13.2205 16.593C7.85582 16.593 5.68964 13.5165 5.68964 12C5.68964 10.4835 7.85582 7.407 13.2205 7.407C18.5823 7.407 20.7485 10.437 20.7485 12C20.7485 13.563 18.5838 16.593 13.2205 16.593V16.593Z" fill="#429ADD"/>
<path d="M13.1351 14.889C14.7043 14.889 15.9763 13.5707 15.9763 11.9445C15.9763 10.3183 14.7043 9 13.1351 9C11.566 9 10.2939 10.3183 10.2939 11.9445C10.2939 13.5707 11.566 14.889 13.1351 14.889Z" fill="#429ADD"/>
</svg>
