<svg width="25" height="25" viewBox="0 0 25 25" fill="none" xmlns="http://www.w3.org/2000/svg">
<path fill-rule="evenodd" clip-rule="evenodd" d="M16.936 17.0615C17.7133 16.2542 18.7542 15.7521 19.87 15.6463C20.9857 15.5405 22.1025 15.838 23.0178 16.4847C23.933 17.1315 24.5863 18.0849 24.859 19.1719C25.1318 20.2589 25.0061 21.4077 24.5046 22.41C24.0031 23.4123 23.1591 24.2017 22.1256 24.6352C21.0921 25.0687 19.9374 25.1175 18.871 24.7728C17.8046 24.4282 16.8969 23.7128 16.3126 22.7565C15.7283 21.8001 15.506 20.666 15.686 19.5599L8.07203 15.7428C7.42473 16.4184 6.59008 16.8848 5.67548 17.082C4.76088 17.2792 3.80819 17.1982 2.94001 16.8494C2.07183 16.5006 1.3279 15.9 0.803946 15.1249C0.279993 14.3498 0 13.4356 0 12.5C0 11.5644 0.279993 10.6502 0.803946 9.87509C1.3279 9.09995 2.07183 8.49935 2.94001 8.15057C3.80819 7.80179 4.76088 7.7208 5.67548 7.91801C6.59008 8.11522 7.42473 8.58161 8.07203 9.25717L15.686 5.44013C15.506 4.33396 15.7283 3.1999 16.3126 2.24354C16.8969 1.28718 17.8046 0.571829 18.871 0.227165C19.9374 -0.117499 21.0921 -0.0686616 22.1256 0.364824C23.1591 0.79831 24.0031 1.58775 24.5046 2.59003C25.0061 3.59232 25.1318 4.7411 24.859 5.82812C24.5863 6.91515 23.933 7.86847 23.0178 8.51526C22.1025 9.16205 20.9857 9.45949 19.87 9.35368C18.7542 9.24786 17.7133 8.74579 16.936 7.93847L9.31576 11.7477C9.39602 12.2455 9.39602 12.7529 9.31576 13.2508L16.936 17.06V17.0615ZM20.3125 6.24948C20.7269 6.24948 21.1243 6.08486 21.4173 5.79185C21.7103 5.49884 21.875 5.10142 21.875 4.68704C21.875 4.27266 21.7103 3.87524 21.4173 3.58223C21.1243 3.28922 20.7269 3.1246 20.3125 3.1246C19.8981 3.1246 19.5007 3.28922 19.2076 3.58223C18.9146 3.87524 18.75 4.27266 18.75 4.68704C18.75 5.10142 18.9146 5.49884 19.2076 5.79185C19.5007 6.08486 19.8981 6.24948 20.3125 6.24948ZM20.3125 21.8738C20.7269 21.8738 21.1243 21.7092 21.4173 21.4162C21.7103 21.1232 21.875 20.7258 21.875 20.3114C21.875 19.897 21.7103 19.4996 21.4173 19.2066C21.1243 18.9136 20.7269 18.749 20.3125 18.749C19.8981 18.749 19.5007 18.9136 19.2076 19.2066C18.9146 19.4996 18.75 19.897 18.75 20.3114C18.75 20.7258 18.9146 21.1232 19.2076 21.4162C19.5007 21.7092 19.8981 21.8738 20.3125 21.8738ZM4.6877 14.0617C5.1021 14.0617 5.49952 13.897 5.79254 13.604C6.08556 13.311 6.25018 12.9136 6.25018 12.4992C6.25018 12.0848 6.08556 11.6874 5.79254 11.3944C5.49952 11.1014 5.1021 10.9368 4.6877 10.9368C4.27331 10.9368 3.87588 11.1014 3.58286 11.3944C3.28984 11.6874 3.12522 12.0848 3.12522 12.4992C3.12522 12.9136 3.28984 13.311 3.58286 13.604C3.87588 13.897 4.27331 14.0617 4.6877 14.0617Z" fill="black"/>
</svg>
