<svg width="1355" height="898" viewBox="0 0 1355 898" fill="none" xmlns="http://www.w3.org/2000/svg">
<rect width="1355" height="898" fill="white"/>
<path d="M777.883 509.345L772.913 694.848L687.536 660.572L694.827 476L777.883 509.345Z" fill="#F1B042"/>
<path d="M278.688 355.445L455.198 298.17L451.407 390.092L275 444.869L278.688 355.445Z" fill="#F1B042"/>
<path d="M850.29 346.656L1026.8 289.381L1023.01 381.303L846.602 436.08L850.29 346.656Z" fill="#6DC142"/>
<path d="M884.688 618.445L1061.2 561.17L1057.41 653.092L881 707.869L884.688 618.445Z" fill="#6DC142"/>
<path d="M426.688 676.445L603.198 619.17L599.407 711.092L423 765.869L426.688 676.445Z" fill="#6DC142"/>
<path d="M595.176 441.225L771.686 383.949L767.895 475.871L591.488 530.649L595.176 441.225Z" fill="#F1B042"/>
<path d="M634.603 424.443L641.501 239.001L726.517 274.162L717.309 458.649L634.603 424.443Z" fill="#429ADD"/>
<path d="M846.708 348.232L841.991 533.742L756.568 499.583L763.606 315.001L846.708 348.232Z" fill="#4A27B7"/>
<path d="M287.688 460.445L464.198 403.17L460.407 495.092L284 549.869L287.688 460.445Z" fill="#4A27B7"/>
<path d="M443.418 602.109L619.928 544.833L616.137 636.755L439.73 691.533L443.418 602.109Z" fill="#4A27B7"/>
<path d="M483.104 230.445L659.614 173.17L655.823 265.092L479.416 319.869L483.104 230.445Z" fill="#0E1732"/>
<path d="M940.688 418.445L1117.2 361.17L1113.41 453.092L937 507.869L940.688 418.445Z" fill="#0E1732"/>
<path d="M521.688 635.445L698.198 578.17L694.407 670.092L518 724.869L521.688 635.445Z" fill="#0E1732"/>
<path d="M522.063 515.276L698.573 458L694.782 549.922L518.375 604.7L522.063 515.276Z" fill="#EE6E79"/>
<path d="M281.948 564.224L456.763 501.967L455.58 593.96L280.797 653.717L281.948 564.224Z" fill="#F1B042"/>
<path d="M383.335 578.613L530.628 538.148L527.352 617.58L379.648 668.037L383.335 578.613Z" fill="#684759"/>
<path d="M461.688 390.445L638.198 333.17L634.407 425.092L458 479.869L461.688 390.445Z" fill="#EE6E79"/>
<path d="M723.688 223.289L870.98 182.824L867.704 262.256L720 312.713L723.688 223.289Z" fill="#684759"/>
<path d="M220.445 457.96L205.611 413L229.067 413.852L243.263 458.788L220.445 457.96Z" fill="#EE6E79"/>
<path d="M604.445 347.96L589.611 303L613.067 303.852L627.263 348.788L604.445 347.96Z" fill="#6DC142"/>
<path d="M895.445 292.96L880.611 248L904.067 248.852L918.263 293.788L895.445 292.96Z" fill="#EE6E79"/>
<path d="M535.445 529.96L520.611 485L544.067 485.852L558.263 530.788L535.445 529.96Z" fill="#684759"/>
<path d="M1040.43 632.222L1026.42 587L1049.86 588.28L1063.23 633.467L1040.43 632.222Z" fill="#0E1732"/>
<path d="M1197.43 429.223L1183.42 384L1206.86 385.28L1220.23 430.467L1197.43 429.223Z" fill="#0E1732"/>
<path d="M689.431 726.222L675.42 681L698.856 682.28L712.23 727.467L689.431 726.222Z" fill="#0E1732"/>
<path d="M130.431 571.222L116.42 526L139.856 527.279L153.23 572.467L130.431 571.222Z" fill="#429ADD"/>
<path d="M1109.43 458.222L1095.42 413L1118.86 414.28L1132.23 459.467L1109.43 458.222Z" fill="#429ADD"/>
<path d="M386.431 166.222L372.42 121L395.856 122.28L409.23 167.467L386.431 166.222Z" fill="#429ADD"/>
<path d="M510.431 253.222L496.42 208L519.856 209.28L533.23 254.467L510.431 253.222Z" fill="#429ADD"/>
<path d="M879.431 492.222L865.42 447L888.856 448.28L902.23 493.467L879.431 492.222Z" fill="#429ADD"/>
<path d="M270.431 262.051L256.42 216.828L279.856 218.108L293.23 263.295L270.431 262.051Z" fill="#F1B042"/>
<path d="M897.431 701.222L883.42 656L906.856 657.28L920.23 702.467L897.431 701.222Z" fill="#F1B042"/>
<path d="M303.431 775.222L289.42 730L312.856 731.28L326.23 776.467L303.431 775.222Z" fill="#F1B042"/>
<path d="M868.688 485.445L1045.2 428.17L1041.41 520.092L865 574.869L868.688 485.445Z" fill="#EE6E79"/>
<path d="M794.688 608.445L971.198 551.17L967.407 643.092L791 697.869L794.688 608.445Z" fill="#0E1732"/>
<path opacity="0.59" d="M297.763 358.445L525.714 301.17L520.818 393.092L293 447.869L297.763 358.445Z" fill="#0E1732"/>
<path opacity="0.59" d="M841.42 451.346L835.001 636.849L724.742 602.573L734.158 418.001L841.42 451.346Z" fill="#0E1732"/>
<path opacity="0.59" d="M204.763 284.445L470.283 228.37L465.387 320.291L200 373.869L204.763 284.445Z" fill="#4A27B7"/>
<path opacity="0.59" d="M927.763 512.445L1155.71 455.17L1150.82 547.092L923 601.869L927.763 512.445Z" fill="#4A27B7"/>
<path opacity="0.59" d="M681.763 289.445L909.714 232.17L904.818 324.092L677 378.869L681.763 289.445Z" fill="#407227"/>
<path opacity="0.59" d="M516.763 298.445L744.714 241.17L739.818 333.092L512 387.869L516.763 298.445Z" fill="#F1B042"/>
<path opacity="0.59" d="M883.763 296.445L1111.71 239.17L1106.82 331.092L879 385.869L883.763 296.445Z" fill="#CF8657"/>
<path opacity="0.59" d="M891.763 369.445L1119.71 312.17L1114.82 404.092L887 458.869L891.763 369.445Z" fill="#8E6827"/>
<path opacity="0.59" d="M269.763 580.445L497.714 523.17L492.818 615.092L265 669.869L269.763 580.445Z" fill="#6DC142"/>
<path opacity="0.59" d="M563.763 569.445L791.714 512.17L786.818 604.092L559 658.869L563.763 569.445Z" fill="#6DC142"/>
<path opacity="0.59" d="M593.842 379.225L821.794 321.949L816.898 413.871L589.08 468.649L593.842 379.225Z" fill="#0E1732"/>
<path opacity="0.59" d="M347.763 446.445L575.714 389.17L570.818 481.092L343 535.869L347.763 446.445Z" fill="#0E1732"/>
<path opacity="0.59" d="M733.763 488.445L961.714 431.17L956.818 523.092L729 577.869L733.763 488.445Z" fill="#F1B042"/>
<path opacity="0.59" d="M617.886 561.887L637.882 292.001L789.106 340.431L765 609.001L617.886 561.887Z" fill="#429ADD"/>
<path opacity="0.59" d="M291.021 552.887L311.017 283.001L462.241 331.431L438.135 600.001L291.021 552.887Z" fill="#429ADD"/>
<path opacity="0.59" d="M842.594 638.612L846.639 453L957.315 485.272L950.262 670.007L842.594 638.612Z" fill="#0E1732"/>
<path opacity="0.59" d="M913.374 311.802L891 605.001L732.315 555.865L759 264.001L913.374 311.802Z" fill="#EE6E79"/>
<path opacity="0.59" d="M455.303 260.24L428.29 553.048L270.403 501.406L301.706 210.001L455.303 260.24Z" fill="#EE6E79"/>
<path opacity="0.59" d="M647.699 330.981L624 612.001L474.678 565.764L502.435 286.001L647.699 330.981Z" fill="#4A27B7"/>
<path opacity="0.59" d="M510.613 299.67L490 594L328.431 543.972L353.435 251L510.613 299.67Z" fill="#F1B042"/>
<path opacity="0.59" d="M203.763 423.445L431.714 366.17L426.818 458.092L199 512.869L203.763 423.445Z" fill="#EE6E79"/>
<path opacity="0.59" d="M217.763 550.445L445.714 493.17L440.818 585.092L213 639.869L217.763 550.445Z" fill="#EE6E79"/>
<path opacity="0.59" d="M498.763 473.445L726.714 416.17L721.818 508.092L494 562.869L498.763 473.445Z" fill="#0E1732"/>
<path opacity="0.59" d="M846.763 231.445L1074.71 174.17L1069.82 266.092L842 320.869L846.763 231.445Z" fill="#4A27B7"/>
<path opacity="0.59" d="M695.763 194.445L923.714 137.17L918.818 229.092L691 283.869L695.763 194.445Z" fill="#6DC142"/>
<path opacity="0.59" d="M494.763 515.445L722.714 458.17L717.818 550.092L490 604.869L494.763 515.445Z" fill="#8E6827"/>
<path opacity="0.59" d="M508.763 592.445L736.714 535.17L731.818 627.092L504 681.869L508.763 592.445Z" fill="#0E1732"/>
<path opacity="0.59" d="M494.763 546.445L722.714 489.17L717.818 581.092L490 635.869L494.763 546.445Z" fill="#EE6E79"/>
<path opacity="0.59" d="M596.763 245.445L824.714 188.17L819.818 280.092L592 334.869L596.763 245.445Z" fill="#EE6E79"/>
<path opacity="0.59" d="M311.763 500.445L539.714 443.17L534.818 535.092L307 589.869L311.763 500.445Z" fill="#0E1732"/>
<path opacity="0.59" d="M189.328 502.224L415.09 439.967L413.562 531.96L187.841 591.717L189.328 502.224Z" fill="#429ADD"/>
<path opacity="0.59" d="M744.763 568.445L972.714 511.17L967.818 603.092L740 657.869L744.763 568.445Z" fill="#EE6E79"/>
<path opacity="0.59" d="M202.237 498.96L183.081 454L213.372 454.852L231.706 499.788L202.237 498.96Z" fill="#C88244"/>
<path opacity="0.59" d="M700.237 202.96L681.081 158L711.372 158.852L729.706 203.788L700.237 202.96Z" fill="#EE6E79"/>
<path opacity="0.59" d="M1029.24 764.96L1010.08 720L1040.37 720.852L1058.71 765.788L1029.24 764.96Z" fill="#A9DA8F"/>
<path opacity="0.59" d="M1118.24 322.96L1099.08 278L1129.37 278.852L1147.71 323.788L1118.24 322.96Z" fill="#EE6E79"/>
<path opacity="0.59" d="M832.237 335.96L813.081 291L843.372 291.852L861.706 336.788L832.237 335.96Z" fill="#6DC142"/>
<path opacity="0.59" d="M800.237 652.96L781.081 608L811.372 608.852L829.706 653.788L800.237 652.96Z" fill="#6DC142"/>
<path opacity="0.59" d="M775.445 230.96L760.611 186L784.067 186.852L798.263 231.788L775.445 230.96Z" fill="white"/>
<path opacity="0.59" d="M691.445 628.96L676.611 584L700.067 584.852L714.263 629.788L691.445 628.96Z" fill="#EE6E79"/>
<path opacity="0.59" d="M531.445 352.96L516.611 308L540.067 308.852L554.263 353.788L531.445 352.96Z" fill="#EE6E79"/>
<path opacity="0.59" d="M698.237 280.96L679.081 236L709.372 236.852L727.706 281.788L698.237 280.96Z" fill="#684759"/>
<path opacity="0.59" d="M336.237 712.96L317.081 668L347.372 668.852L365.706 713.788L336.237 712.96Z" fill="#684759"/>
<path opacity="0.59" d="M140.237 475.96L121.081 431L151.372 431.852L169.706 476.788L140.237 475.96Z" fill="#684759"/>
<path opacity="0.59" d="M1120.86 571.222L1102.77 526L1133.03 527.28L1150.3 572.467L1120.86 571.222Z" fill="#0E1732"/>
<path opacity="0.59" d="M277.22 387.222L259.125 342L289.392 343.28L306.664 388.467L277.22 387.222Z" fill="#0E1732"/>
<path opacity="0.59" d="M214.219 429.234L196.091 384L226.356 385.294L243.662 430.493L214.219 429.234Z" fill="#429ADD"/>
<path opacity="0.59" d="M429.219 735.234L411.091 690L441.356 691.294L458.662 736.493L429.219 735.234Z" fill="#429ADD"/>
<path d="M822.431 716.222L808.42 671L831.856 672.28L845.23 717.467L822.431 716.222Z" fill="#429ADD"/>
<path d="M420.431 662.222L406.42 617L429.856 618.28L443.23 663.467L420.431 662.222Z" fill="#429ADD"/>
<path d="M848.431 192.222L834.42 147L857.856 148.28L871.23 193.467L848.431 192.222Z" fill="#429ADD"/>
<path opacity="0.59" d="M1101.43 219.222L1087.42 174L1110.86 175.28L1124.23 220.467L1101.43 219.222Z" fill="#E19868"/>
<path opacity="0.59" d="M590.431 758.222L576.42 713L599.856 714.28L613.23 759.467L590.431 758.222Z" fill="#9480D5"/>
<path opacity="0.59" d="M971.22 367.222L953.125 322L983.392 323.28L1000.66 368.467L971.22 367.222Z" fill="#429ADD"/>
<path opacity="0.59" d="M360.431 242.222L346.42 197L369.856 198.28L383.23 243.467L360.431 242.222Z" fill="white"/>
<path opacity="0.59" d="M1059.43 570.222L1045.42 525L1068.86 526.28L1082.23 571.467L1059.43 570.222Z" fill="white"/>
<path opacity="0.59" d="M996.431 291.222L982.42 246L1005.86 247.28L1019.23 292.467L996.431 291.222Z" fill="white"/>
<path opacity="0.59" d="M562.431 353.222L548.42 308L571.856 309.28L585.23 354.467L562.431 353.222Z" fill="#F1B042"/>
<path opacity="0.59" d="M984.185 639.222L966.091 594L996.357 595.28L1013.63 640.467L984.185 639.222Z" fill="#F1B042"/>
<path opacity="0.59" d="M238.22 652.222L220.125 607L250.392 608.28L267.664 653.467L238.22 652.222Z" fill="#F1B042"/>
<path opacity="0.59" d="M828.372 457.227L1118.73 380.126L1112.18 503.116L822 576.875L828.372 457.227Z" fill="#6DC142"/>
<path opacity="0.59" d="M239.763 600.445L467.714 543.17L462.818 635.092L235 689.869L239.763 600.445Z" fill="#0E1732"/>
<path opacity="0.59" d="M276.445 612.96L261.611 568L285.067 568.852L299.263 613.788L276.445 612.96Z" fill="white"/>
<path d="M550.711 448.67L550.704 503.87L588.903 503.593L588.902 509.793C588.902 511.926 588.502 513.396 587.702 514.202C587.035 514.873 585.635 515.217 583.502 515.232L534.703 515.586L534.721 380.986C534.721 378.852 535.055 377.45 535.721 376.779C536.521 375.973 537.988 375.562 540.121 375.547L588.92 375.193L588.919 381.393C588.919 383.526 588.585 384.995 587.919 385.8C587.385 386.471 586.052 386.814 583.919 386.829L550.719 387.07L550.713 437.07L582.912 436.836L582.911 443.036C582.911 445.17 582.577 446.639 581.911 447.444C581.377 448.114 580.044 448.457 577.911 448.473L550.711 448.67Z" fill="#FBFBF9"/>
<path d="M550.711 448.67L550.712 445.67L547.712 445.692L547.711 448.692L550.711 448.67ZM550.704 503.87L547.704 503.892L547.704 506.892L550.704 506.87L550.704 503.87ZM588.903 503.593L591.903 503.571L591.903 500.571L588.903 500.593L588.903 503.593ZM587.702 514.202L585.581 512.096L585.581 512.096L587.702 514.202ZM534.703 515.586L531.703 515.608L531.703 518.608L534.703 518.586L534.703 515.586ZM535.721 376.779L537.842 378.884L537.842 378.884L535.721 376.779ZM588.92 375.193L591.92 375.171L591.92 372.171L588.92 372.193L588.92 375.193ZM587.919 385.8L585.614 383.896L585.595 383.919L585.576 383.943L587.919 385.8ZM550.719 387.07L550.72 384.07L547.72 384.092L547.72 387.092L550.719 387.07ZM550.713 437.07L547.713 437.092L547.713 440.092L550.712 440.07L550.713 437.07ZM582.912 436.836L585.912 436.815L585.912 433.815L582.912 433.836L582.912 436.836ZM581.911 447.444L579.606 445.54L579.587 445.563L579.568 445.587L581.911 447.444ZM547.711 448.692L547.704 503.892L553.704 503.848L553.711 448.648L547.711 448.692ZM550.704 506.87L588.903 506.593L588.903 500.593L550.704 500.87L550.704 506.87ZM585.903 503.615L585.902 509.815L591.902 509.771L591.903 503.571L585.903 503.615ZM585.902 509.815C585.902 510.713 585.816 511.33 585.708 511.727C585.6 512.124 585.506 512.171 585.581 512.096L589.823 516.308C591.513 514.606 591.902 512.071 591.902 509.771L585.902 509.815ZM585.581 512.096C585.795 511.88 585.88 511.946 585.457 512.049C585.065 512.146 584.435 512.225 583.502 512.232L583.501 518.232C584.701 518.223 585.838 518.124 586.846 517.876C587.823 517.636 588.942 517.195 589.823 516.308L585.581 512.096ZM583.502 512.232L534.703 512.586L534.703 518.586L583.501 518.232L583.502 512.232ZM537.703 515.564L537.721 380.964L531.721 381.008L531.703 515.608L537.703 515.564ZM537.721 380.964C537.721 380.031 537.796 379.4 537.889 379.008C537.99 378.584 538.057 378.669 537.842 378.884L533.6 374.673C532.719 375.56 532.286 376.681 532.053 377.66C531.813 378.67 531.721 379.808 531.721 381.008L537.721 380.964ZM537.842 378.884C537.768 378.96 537.814 378.866 538.21 378.755C538.606 378.644 539.223 378.553 540.121 378.547L540.122 372.547C537.822 372.563 535.29 372.971 533.6 374.673L537.842 378.884ZM540.121 378.547L588.92 378.193L588.92 372.193L540.122 372.547L540.121 378.547ZM585.92 375.215L585.919 381.415L591.919 381.371L591.92 375.171L585.92 375.215ZM585.919 381.415C585.919 382.342 585.845 383.005 585.744 383.451C585.638 383.914 585.54 383.986 585.614 383.896L590.223 387.704C591.618 386.02 591.919 383.591 591.919 381.371L585.919 381.415ZM585.576 383.943C585.749 383.725 585.911 383.63 585.952 383.607C585.99 383.587 585.952 383.614 585.791 383.655C585.456 383.742 584.859 383.822 583.919 383.829L583.918 389.829C585.111 389.82 586.248 389.722 587.246 389.465C588.19 389.222 589.401 388.739 590.261 387.657L585.576 383.943ZM583.919 383.829L550.72 384.07L550.719 390.07L583.918 389.829L583.919 383.829ZM547.72 387.092L547.713 437.092L553.713 437.048L553.719 387.048L547.72 387.092ZM550.712 440.07L582.912 439.836L582.912 433.836L550.713 434.07L550.712 440.07ZM579.912 436.858L579.911 443.058L585.911 443.015L585.912 436.815L579.912 436.858ZM579.911 443.058C579.911 443.986 579.837 444.648 579.736 445.095C579.63 445.558 579.532 445.629 579.606 445.54L584.215 449.347C585.61 447.664 585.911 445.234 585.911 443.015L579.911 443.058ZM579.568 445.587C579.741 445.369 579.903 445.273 579.944 445.251C579.982 445.23 579.944 445.257 579.783 445.299C579.448 445.385 578.851 445.466 577.911 445.473L577.91 451.473C579.103 451.464 580.24 451.366 581.238 451.109C582.182 450.866 583.393 450.382 584.253 449.301L579.568 445.587ZM577.911 445.473L550.712 445.67L550.711 451.67L577.91 451.473L577.911 445.473Z" fill="white"/>
<path d="M673.568 374.579L690.962 419.053L698.559 442.598L699.759 442.589L707.162 418.936L721.966 379.628C722.633 377.623 723.433 376.218 724.367 375.411C725.3 374.604 726.9 374.193 729.167 374.176L738.167 374.111L706.157 455.543L706.15 508.743C706.149 511.01 705.749 512.546 704.949 513.352C704.149 514.024 702.682 514.368 700.549 514.383L690.149 514.459L690.157 455.659L659.968 380.078C659.168 377.95 659.235 376.55 660.169 375.876C661.235 375.069 662.835 374.657 664.969 374.642L673.568 374.579Z" fill="#FBFBF9"/>
<path d="M673.568 374.579L676.363 373.469L675.619 371.564L673.569 371.579L673.568 374.579ZM690.962 419.053L693.818 418.113L693.79 418.027L693.757 417.942L690.962 419.053ZM698.559 442.598L695.703 443.538L696.373 445.614L698.558 445.598L698.559 442.598ZM699.759 442.589L699.758 445.589L701.962 445.573L702.621 443.466L699.759 442.589ZM707.162 418.936L704.355 417.896L704.325 417.977L704.299 418.059L707.162 418.936ZM721.966 379.628L724.773 380.668L724.794 380.612L724.812 380.556L721.966 379.628ZM724.367 375.411L726.319 377.675L726.319 377.675L724.367 375.411ZM738.167 374.111L740.958 375.191L742.574 371.079L738.167 371.111L738.167 374.111ZM706.157 455.543L703.366 454.463L703.157 454.995L703.157 455.565L706.157 455.543ZM704.949 513.352L706.869 515.642L706.974 515.554L707.07 515.458L704.949 513.352ZM690.149 514.459L687.15 514.481L687.149 517.481L690.149 517.459L690.149 514.459ZM690.157 455.659L693.157 455.637L693.157 455.061L692.944 454.528L690.157 455.659ZM659.968 380.078L657.159 381.151L657.17 381.18L657.181 381.208L659.968 380.078ZM660.169 375.876L661.912 378.305L661.94 378.284L661.968 378.263L660.169 375.876ZM670.773 375.69L688.167 420.164L693.757 417.942L676.363 373.469L670.773 375.69ZM688.106 419.993L695.703 443.538L701.414 441.658L693.818 418.113L688.106 419.993ZM698.558 445.598L699.758 445.589L699.759 439.589L698.559 439.598L698.558 445.598ZM702.621 443.466L710.024 419.812L704.299 418.059L696.896 441.712L702.621 443.466ZM709.968 419.975L724.773 380.668L719.16 378.589L704.355 417.896L709.968 419.975ZM724.812 380.556C725.415 378.744 725.997 377.952 726.319 377.675L722.415 373.147C720.869 374.483 719.851 376.503 719.121 378.7L724.812 380.556ZM726.319 377.675C726.407 377.598 727.082 377.191 729.167 377.176L729.167 371.176C726.719 371.194 724.193 371.61 722.415 373.147L726.319 377.675ZM729.167 377.176L738.166 377.111L738.167 371.111L729.167 371.176L729.167 377.176ZM735.376 373.031L703.366 454.463L708.948 456.623L740.958 375.191L735.376 373.031ZM703.157 455.565L703.15 508.765L709.15 508.721L709.157 455.521L703.157 455.565ZM703.15 508.765C703.15 509.742 703.061 510.419 702.947 510.859C702.83 511.307 702.729 511.345 702.828 511.246L707.07 515.458C708.783 513.733 709.149 511.091 709.15 508.721L703.15 508.765ZM703.029 511.061C703.118 510.986 703.047 511.085 702.585 511.193C702.139 511.298 701.477 511.377 700.55 511.383L700.549 517.383C702.768 517.367 705.195 517.049 706.869 515.642L703.029 511.061ZM700.55 511.383L690.15 511.459L690.149 517.459L700.549 517.383L700.55 511.383ZM693.149 514.437L693.157 455.637L687.157 455.681L687.15 514.481L693.149 514.437ZM692.944 454.528L662.755 378.947L657.181 381.208L687.37 456.789L692.944 454.528ZM662.777 379.004C662.618 378.581 662.522 378.245 662.468 377.987C662.414 377.727 662.413 377.59 662.415 377.553C662.416 377.52 662.417 377.627 662.331 377.805C662.238 377.999 662.088 378.178 661.912 378.305L658.425 373.448C657.045 374.444 656.488 375.918 656.422 377.311C656.361 378.595 656.695 379.916 657.159 381.151L662.777 379.004ZM661.968 378.263C662.287 378.022 663.123 377.655 664.968 377.642L664.969 371.642C662.547 371.659 660.184 372.115 658.369 373.489L661.968 378.263ZM664.968 377.642L673.568 377.579L673.569 371.579L664.969 371.642L664.968 377.642Z" fill="white"/>
<path d="M800.693 514.558C798.56 514.574 797.158 514.25 796.489 513.589C795.953 512.792 795.68 511.328 795.672 509.194L795.647 502.994L844.784 385.836L797.985 386.175L797.961 379.975C797.953 377.842 798.214 376.44 798.744 375.769C799.408 374.965 800.806 374.554 802.94 374.539L855.738 374.156C857.871 374.141 859.206 374.531 859.743 375.327C860.412 375.989 860.751 377.387 860.759 379.52L860.784 385.72L811.447 502.88L860.645 502.523L860.67 508.723C860.678 510.857 860.351 512.326 859.687 513.13C859.157 513.801 857.825 514.144 855.691 514.159L800.693 514.558Z" fill="#FBFBF9"/>
<path d="M796.489 513.589L793.999 515.271L794.165 515.517L794.376 515.725L796.489 513.589ZM795.647 502.994L792.881 501.842L792.645 502.406L792.647 503.016L795.647 502.994ZM844.784 385.836L847.55 386.988L849.306 382.803L844.772 382.836L844.784 385.836ZM797.985 386.175L794.986 386.197L794.997 389.197L797.997 389.175L797.985 386.175ZM798.744 375.769L796.432 373.866L796.413 373.889L796.394 373.912L798.744 375.769ZM859.743 375.327L857.253 377.009L857.419 377.255L857.63 377.464L859.743 375.327ZM860.784 385.72L863.548 386.876L863.786 386.311L863.784 385.698L860.784 385.72ZM811.447 502.88L808.683 501.723L806.918 505.913L811.459 505.88L811.447 502.88ZM860.645 502.523L863.645 502.502L863.633 499.502L860.634 499.523L860.645 502.523ZM859.687 513.13L857.375 511.227L857.356 511.25L857.337 511.273L859.687 513.13ZM800.681 511.558C799.748 511.565 799.117 511.494 798.725 511.404C798.302 511.306 798.387 511.239 798.602 511.452L794.376 515.725C795.261 516.6 796.381 517.025 797.359 517.251C798.368 517.484 799.505 517.567 800.705 517.558L800.681 511.558ZM798.979 511.906C799.03 511.982 798.93 511.863 798.832 511.335C798.739 510.837 798.675 510.129 798.672 509.173L792.672 509.216C792.676 510.393 792.753 511.484 792.933 512.451C793.107 513.387 793.412 514.399 793.999 515.271L798.979 511.906ZM798.672 509.173L798.647 502.973L792.647 503.016L792.672 509.216L798.672 509.173ZM798.413 504.147L847.55 386.988L842.018 384.683L792.881 501.842L798.413 504.147ZM844.772 382.836L797.974 383.175L797.997 389.175L844.796 388.836L844.772 382.836ZM800.985 386.153L800.961 379.953L794.961 379.997L794.986 386.197L800.985 386.153ZM800.961 379.953C800.957 378.992 801.016 378.313 801.1 377.864C801.193 377.36 801.272 377.402 801.094 377.626L796.394 373.912C795.686 374.807 795.369 375.885 795.201 376.784C795.024 377.737 794.956 378.825 794.961 379.997L800.961 379.953ZM801.057 377.673C800.88 377.888 800.783 377.837 801.126 377.737C801.465 377.637 802.047 377.545 802.951 377.539L802.928 371.539C801.699 371.548 800.515 371.669 799.455 371.98C798.4 372.289 797.273 372.846 796.432 373.866L801.057 377.673ZM802.951 377.539L855.75 377.156L855.726 371.156L802.928 371.539L802.951 377.539ZM855.75 377.156C856.662 377.15 857.208 377.235 857.489 377.317C857.779 377.402 857.516 377.4 857.253 377.009L862.232 373.645C861.433 372.458 860.234 371.863 859.19 371.558C858.135 371.249 856.947 371.147 855.726 371.156L855.75 377.156ZM857.63 377.464C857.415 377.251 857.481 377.166 857.583 377.588C857.678 377.979 857.756 378.608 857.759 379.542L863.759 379.498C863.755 378.298 863.659 377.162 863.414 376.156C863.178 375.18 862.74 374.065 861.856 373.19L857.63 377.464ZM857.759 379.542L857.784 385.742L863.784 385.698L863.759 379.498L857.759 379.542ZM858.02 384.563L808.683 501.723L814.211 504.037L863.548 386.876L858.02 384.563ZM811.459 505.88L860.657 505.523L860.634 499.523L811.435 499.88L811.459 505.88ZM857.645 502.545L857.67 508.745L863.67 508.701L863.645 502.502L857.645 502.545ZM857.67 508.745C857.674 509.673 857.602 510.335 857.503 510.781C857.399 511.245 857.301 511.316 857.375 511.227L862 515.034C863.388 513.35 863.679 510.921 863.67 508.701L857.67 508.745ZM857.337 511.273C857.51 511.056 857.671 510.96 857.712 510.938C857.75 510.917 857.712 510.944 857.551 510.985C857.216 511.072 856.62 511.153 855.68 511.159L855.703 517.159C856.896 517.151 858.033 517.052 859.029 516.796C859.973 516.553 861.181 516.069 862.037 514.988L857.337 511.273ZM855.68 511.159L800.681 511.558L800.705 517.558L855.703 517.159L855.68 511.159Z" fill="white"/>
<path d="M415.542 548.004C412.342 548.027 410.237 547.543 409.227 546.55C408.415 545.356 407.993 543.159 407.962 539.959L407.869 530.659L433.969 530.47C440.168 530.425 444.055 529.097 445.63 526.486C447.204 523.874 447.96 519.468 447.898 513.269L446.497 372.276C446.436 366.076 445.592 361.682 443.966 359.094C442.341 356.505 438.428 355.234 432.228 355.279L394.129 355.555L396.042 548.145L372.043 548.319L370.037 346.429C370.005 343.23 370.484 341.126 371.475 340.119C372.663 338.91 374.857 338.294 378.056 338.271L441.655 337.81C452.055 337.735 459.376 339.882 463.62 344.251C468.061 348.419 470.334 355.703 470.437 366.102L471.957 519.095C472.061 529.494 469.934 536.91 465.578 541.341C461.42 545.572 454.141 547.724 443.741 547.8L415.542 548.004Z" fill="white"/>
<path d="M409.227 546.55L406.748 548.232L406.915 548.478L407.127 548.686L409.227 546.55ZM407.869 530.659L407.839 527.66L404.84 527.681L404.869 530.681L407.869 530.659ZM445.63 526.486L448.2 528.039L448.2 528.039L445.63 526.486ZM443.966 359.094L441.427 360.685L441.427 360.685L443.966 359.094ZM394.129 355.555L394.099 352.555L391.099 352.577L391.129 355.577L394.129 355.555ZM396.042 548.145L396.072 551.145L399.072 551.124L399.042 548.124L396.042 548.145ZM372.043 548.319L369.043 548.341L369.073 551.341L372.073 551.319L372.043 548.319ZM371.475 340.119L373.617 342.225L373.617 342.225L371.475 340.119ZM463.62 344.251L461.47 346.338L461.519 346.388L461.57 346.436L463.62 344.251ZM465.578 541.341L463.436 539.235L463.436 539.235L465.578 541.341ZM415.512 545.004C414.045 545.015 412.973 544.906 412.229 544.735C411.455 544.556 411.279 544.366 411.327 544.413L407.127 548.686C408.185 549.726 409.567 550.275 410.897 550.581C412.259 550.895 413.839 551.017 415.572 551.004L415.512 545.004ZM411.707 544.868C411.623 544.744 411.42 544.343 411.248 543.449C411.082 542.584 410.976 541.427 410.962 539.937L404.962 539.981C404.979 541.691 405.1 543.232 405.356 544.565C405.606 545.867 406.02 547.161 406.748 548.232L411.707 544.868ZM410.962 539.937L410.869 530.638L404.869 530.681L404.962 539.981L410.962 539.937ZM407.899 533.659L433.998 533.47L433.939 527.47L407.839 527.66L407.899 533.659ZM433.998 533.47C437.274 533.446 440.149 533.086 442.511 532.279C444.889 531.467 446.941 530.128 448.2 528.039L443.059 524.932C442.744 525.454 442.066 526.086 440.557 526.601C439.031 527.123 436.863 527.449 433.939 527.47L433.998 533.47ZM448.2 528.039C450.231 524.67 450.961 519.536 450.898 513.247L444.898 513.291C444.959 519.401 444.176 523.078 443.059 524.932L448.2 528.039ZM450.898 513.247L449.497 372.254L443.498 372.297L444.898 513.291L450.898 513.247ZM449.497 372.254C449.435 365.965 448.603 360.842 446.506 357.503L441.427 360.685C442.581 362.522 443.437 366.187 443.498 372.297L449.497 372.254ZM446.506 357.503C445.205 355.432 443.127 354.124 440.733 353.346C438.356 352.573 435.474 352.255 432.198 352.279L432.258 358.279C435.182 358.257 437.356 358.553 438.892 359.052C440.411 359.545 441.102 360.167 441.427 360.685L446.506 357.503ZM432.198 352.279L394.099 352.555L394.159 358.555L432.258 358.279L432.198 352.279ZM391.129 355.577L393.043 548.167L399.042 548.124L397.129 355.533L391.129 355.577ZM396.013 545.146L372.013 545.32L372.073 551.319L396.072 551.145L396.013 545.146ZM375.043 548.298L373.037 346.408L367.037 346.451L369.043 548.341L375.043 548.298ZM373.037 346.408C373.023 344.941 373.129 343.868 373.298 343.126C373.474 342.351 373.664 342.177 373.617 342.225L369.332 338.013C368.295 339.068 367.75 340.449 367.447 341.778C367.138 343.139 367.02 344.718 367.037 346.451L373.037 346.408ZM373.617 342.225C373.924 341.912 375.053 341.293 378.086 341.271L378.027 335.271C374.661 335.296 371.401 335.908 369.332 338.013L373.617 342.225ZM378.086 341.271L441.685 340.81L441.625 334.81L378.027 335.271L378.086 341.271ZM441.685 340.81C451.812 340.736 458.093 342.86 461.47 346.338L465.769 342.164C460.66 336.903 452.297 334.733 441.625 334.81L441.685 340.81ZM461.57 346.436C465.105 349.753 467.337 355.996 467.437 366.124L473.437 366.08C473.331 355.409 471.018 347.084 465.67 342.066L461.57 346.436ZM467.437 366.124L468.957 519.116L474.957 519.073L473.437 366.08L467.437 366.124ZM468.957 519.116C469.058 529.225 466.96 535.65 463.436 539.235L467.72 543.447C472.908 538.17 475.063 529.763 474.957 519.073L468.957 519.116ZM463.436 539.235C460.129 542.6 453.868 544.726 443.711 544.8L443.771 550.8C454.414 550.722 462.711 548.543 467.72 543.447L463.436 539.235ZM443.711 544.8L415.512 545.004L415.572 551.004L443.771 550.8L443.711 544.8Z" fill="white"/>
<path d="M916.64 520.766L910.54 520.81C909.474 520.818 908.739 520.657 908.337 520.326C908.001 519.929 907.829 519.197 907.821 518.13L907.783 512.83L913.882 512.786C914.949 512.778 915.65 512.973 915.987 513.371C916.389 513.701 916.594 514.4 916.602 515.466L916.64 520.766ZM951.256 469.714C952.322 469.706 952.99 469.901 953.26 470.299C953.596 470.63 953.767 471.329 953.775 472.396L953.797 475.496L941.498 475.585C939.431 475.6 938.134 476.043 937.607 476.913C937.08 477.784 936.824 479.252 936.839 481.319L937.041 509.118C937.056 511.185 937.333 512.649 937.873 513.512C938.412 514.375 939.715 514.799 941.782 514.784L954.082 514.695L954.104 517.795C954.112 518.861 953.951 519.596 953.62 519.998C953.356 520.333 952.69 520.505 951.624 520.513L938.624 520.607C935.158 520.632 932.686 519.95 931.209 518.561C929.798 517.104 929.081 514.643 929.055 511.176L928.825 479.377C928.8 475.91 929.482 473.472 930.872 472.062C932.328 470.585 934.789 469.833 938.256 469.808L951.256 469.714ZM972.963 450.356L973.45 517.654C973.458 518.721 973.264 519.456 972.866 519.859C972.536 520.194 971.837 520.366 970.77 520.374L965.47 520.412L964.982 453.114C964.975 452.047 965.136 451.346 965.467 451.01C965.864 450.608 966.596 450.402 967.663 450.395L972.963 450.356ZM1011.84 520.076L1011.49 471.977C1011.48 470.911 1011.64 470.21 1011.98 469.874C1012.37 469.471 1013.1 469.266 1014.17 469.258L1019.47 469.219L1019.82 517.318C1019.83 518.385 1019.63 519.12 1019.24 519.523C1018.9 519.858 1018.21 520.03 1017.14 520.038L1011.84 520.076ZM986.491 472.159C986.484 471.092 986.645 470.391 986.976 470.055C987.373 469.652 988.105 469.447 989.172 469.439L994.472 469.401L994.756 508.7C994.771 510.766 995.049 512.231 995.588 513.094C996.128 513.957 997.431 514.38 999.498 514.365L1007.8 514.305L1007.82 517.405C1007.83 518.472 1007.67 519.206 1007.34 519.609C1007.07 519.944 1006.41 520.116 1005.34 520.123L996.34 520.189C992.873 520.214 990.402 519.532 988.925 518.142C987.514 516.686 986.796 514.224 986.771 510.758L986.491 472.159ZM1056.07 468.954C1059.53 468.929 1061.97 469.645 1063.38 471.101C1064.86 472.491 1065.61 474.918 1065.64 478.385L1065.87 510.184C1065.89 513.651 1065.18 516.123 1063.72 517.6C1062.33 519.01 1059.9 519.728 1056.44 519.753L1046.94 519.822C1045 519.836 1043.6 519.379 1042.73 518.452C1041.92 517.458 1041.31 515.996 1040.89 514.065L1040.92 517.165C1040.93 518.232 1040.73 518.967 1040.33 519.37C1040 519.705 1039.3 519.877 1038.24 519.885L1032.94 519.923L1032.45 452.625C1032.44 451.558 1032.6 450.857 1032.93 450.521C1033.33 450.119 1034.06 449.913 1035.13 449.905L1040.43 449.867L1040.89 514.065L1053.19 513.976C1055.26 513.961 1056.56 513.518 1057.09 512.648C1057.61 511.777 1057.87 510.309 1057.85 508.242L1057.65 480.443C1057.64 478.376 1057.36 476.912 1056.82 476.049C1056.28 475.186 1054.98 474.762 1052.91 474.777L1044.61 474.837L1044.59 471.737C1044.58 470.671 1044.71 469.97 1044.97 469.635C1045.3 469.232 1046 469.027 1047.07 469.019L1056.07 468.954Z" fill="white"/>
</svg>
