<svg width="5661" height="2753" viewBox="0 0 5661 2753" fill="none" xmlns="http://www.w3.org/2000/svg">
<path opacity="0.59" d="M926.089 1082.09L2120.37 792.601L2094.72 1257.2L901.137 1534.06L926.089 1082.09Z" fill="#0E1732"/>
<path opacity="0.59" d="M3774.41 1551.63L3740.77 2489.21L3163.11 2315.97L3212.44 1383.1L3774.41 1551.63Z" fill="#0E1732"/>
<path opacity="0.59" d="M438.848 708.07L1829.96 424.647L1804.31 889.245L413.896 1160.04L438.848 708.07Z" fill="#4A27B7"/>
<path opacity="0.59" d="M4226.77 1860.45L5421.05 1570.96L5395.4 2035.56L4201.82 2312.42L4226.77 1860.45Z" fill="#4A27B7"/>
<path opacity="0.59" d="M2937.93 733.34L4132.21 443.854L4106.56 908.452L2912.98 1185.31L2937.93 733.34Z" fill="#407227"/>
<path opacity="0.59" d="M2073.47 778.83L3267.75 489.343L3242.1 953.941L2048.52 1230.8L2073.47 778.83Z" fill="#F1B042"/>
<path opacity="0.59" d="M3996.25 768.72L5190.52 479.234L5164.87 943.832L3971.29 1220.69L3996.25 768.72Z" fill="#CF8657"/>
<path opacity="0.59" d="M4038.16 1137.69L5232.44 848.199L5206.79 1312.8L4013.21 1589.66L4038.16 1137.69Z" fill="#8E6827"/>
<path opacity="0.59" d="M779.394 2204.14L1973.67 1914.65L1948.02 2379.25L754.442 2656.11L779.394 2204.14Z" fill="#6DC142"/>
<path opacity="0.59" d="M2319.71 2148.54L3513.99 1859.05L3488.34 2323.65L2294.76 2600.51L2319.71 2148.54Z" fill="#6DC142"/>
<path opacity="0.59" d="M2477.3 1187.11L3671.58 897.625L3645.93 1362.22L2452.35 1639.08L2477.3 1187.11Z" fill="#0E1732"/>
<path opacity="0.59" d="M1188.05 1526.86L2382.33 1237.38L2356.68 1701.97L1163.1 1978.84L1188.05 1526.86Z" fill="#0E1732"/>
<path opacity="0.59" d="M3210.37 1739.14L4404.65 1449.66L4379 1914.25L3185.42 2191.12L3210.37 1739.14Z" fill="#F1B042"/>
<path opacity="0.59" d="M2603.27 2110.33L2708.04 746.256L3500.32 991.035L3374.03 2348.46L2603.27 2110.33Z" fill="#429ADD"/>
<path opacity="0.59" d="M890.769 2064.84L995.533 700.766L1787.82 945.545L1661.53 2302.97L890.769 2064.84Z" fill="#429ADD"/>
<path opacity="0.59" d="M3780.56 2498.12L3801.75 1559.99L4381.6 1723.1L4344.65 2656.8L3780.56 2498.12Z" fill="#0E1732"/>
<path opacity="0.59" d="M4151.39 846.334L4034.17 2328.24L3202.79 2079.9L3342.6 604.735L4151.39 846.334Z" fill="#EE6E79"/>
<path opacity="0.59" d="M1751.47 585.725L1609.95 2065.66L782.748 1804.64L946.751 331.803L1751.47 585.725Z" fill="#EE6E79"/>
<path opacity="0.59" d="M2759.47 943.272L2635.31 2363.62L1852.98 2129.93L1998.4 715.93L2759.47 943.272Z" fill="#4A27B7"/>
<path opacity="0.59" d="M2041.25 785.017L1933.26 2272.64L1086.77 2019.78L1217.77 539.028L2041.25 785.017Z" fill="#F1B042"/>
<path opacity="0.59" d="M433.608 1410.61L1627.89 1121.13L1602.24 1585.72L408.656 1862.59L433.608 1410.61Z" fill="#EE6E79"/>
<path opacity="0.59" d="M506.956 2052.51L1701.23 1763.02L1675.58 2227.62L482.004 2504.48L506.956 2052.51Z" fill="#EE6E79"/>
<path opacity="0.59" d="M1979.16 1663.33L3173.44 1373.84L3147.79 1838.44L1954.21 2115.3L1979.16 1663.33Z" fill="#0E1732"/>
<path opacity="0.59" d="M3802.4 440.193L4996.67 150.707L4971.03 615.305L3777.44 892.167L3802.4 440.193Z" fill="#4A27B7"/>
<path opacity="0.59" d="M1706.73 455.356L2901.01 165.869L2875.36 630.468L1681.78 907.329L1706.73 455.356Z" fill="#6DC142"/>
<path opacity="0.59" d="M1958.21 1875.61L3152.49 1586.12L3126.84 2050.72L1933.26 2327.58L1958.21 1875.61Z" fill="#8E6827"/>
<path opacity="0.59" d="M2031.55 2264.79L3225.83 1975.3L3200.18 2439.9L2006.6 2716.76L2031.55 2264.79Z" fill="#0E1732"/>
<path opacity="0.59" d="M1958.21 2032.29L3152.49 1742.8L3126.84 2207.4L1933.26 2484.26L1958.21 2032.29Z" fill="#EE6E79"/>
<path opacity="0.59" d="M2492.6 510.954L3686.88 221.467L3661.23 686.065L2467.65 962.927L2492.6 510.954Z" fill="#EE6E79"/>
<path opacity="0.59" d="M999.438 1799.79L2193.72 1510.31L2168.07 1974.91L974.486 2251.77L999.438 1799.79Z" fill="#0E1732"/>
<path opacity="0.59" d="M357.98 1808.78L1540.79 1494.12L1532.79 1959.07L350.193 2261.1L357.98 1808.78Z" fill="#429ADD"/>
<path opacity="0.59" d="M3268 2143.48L4462.28 1854L4436.63 2318.6L3243.05 2595.46L3268 2143.48Z" fill="#EE6E79"/>
<path opacity="0.59" d="M677.096 1787.23L576.732 1559.99L735.435 1564.3L831.487 1791.42L677.096 1787.23Z" fill="#C88244"/>
<path opacity="0.59" d="M2353.93 390.283L2253.57 163.046L2412.27 167.352L2508.32 394.472L2353.93 390.283Z" fill="#EE6E79"/>
<path opacity="0.59" d="M3726.3 968.437L3625.93 741.201L3784.63 745.506L3880.69 972.626L3726.3 968.437Z" fill="#6DC142"/>
<path opacity="0.59" d="M3558.64 2570.64L3458.28 2343.4L3616.98 2347.71L3713.03 2574.83L3558.64 2570.64Z" fill="#6DC142"/>
<path opacity="0.59" d="M3428.75 437.739L3351.03 210.502L3473.92 214.807L3548.3 441.927L3428.75 437.739Z" fill="white"/>
<path opacity="0.59" d="M2988.66 2449.34L2910.94 2222.1L3033.83 2226.41L3108.21 2453.53L2988.66 2449.34Z" fill="#EE6E79"/>
<path opacity="0.59" d="M2150.39 1054.36L2072.67 827.123L2195.56 831.429L2269.94 1058.55L2150.39 1054.36Z" fill="#EE6E79"/>
<path opacity="0.59" d="M3024.25 690.45L2923.88 463.213L3082.59 467.519L3178.64 694.639L3024.25 690.45Z" fill="#684759"/>
<path opacity="0.59" d="M111.266 1827.62L11.055 1600.44L169.76 1604.68L265.659 1831.75L111.266 1827.62Z" fill="#684759"/>
<path opacity="0.59" d="M5489.93 2152.47L5395.12 1923.9L5553.7 1930.37L5644.19 2158.76L5489.93 2152.47Z" fill="#0E1732"/>
<path opacity="0.59" d="M1069.94 1222.48L975.143 993.915L1133.72 1000.38L1224.21 1228.77L1069.94 1222.48Z" fill="#0E1732"/>
<path opacity="0.59" d="M739.869 1434.82L644.891 1206.2L803.46 1212.73L894.129 1441.18L739.869 1434.82Z" fill="#429ADD"/>
<path d="M2136.99 228.566L2063.58 -0.000216112L2186.37 6.46633L2256.44 234.857L2136.99 228.566Z" fill="#2C176C"/>
<path d="M1568.77 2617.46L1495.37 2388.89L1618.15 2395.36L1688.22 2623.75L1568.77 2617.46Z" fill="#429ADD"/>
<path opacity="0.59" d="M5136.65 378.416L5063.24 149.85L5186.03 156.317L5256.1 384.707L5136.65 378.416Z" fill="#429ADD"/>
<path opacity="0.59" d="M4454.45 1126.45L4359.65 897.883L4518.22 904.35L4608.71 1132.74L4454.45 1126.45Z" fill="#429ADD"/>
<path opacity="0.59" d="M1254.42 494.665L1181.01 266.099L1303.8 272.565L1373.87 500.956L1254.42 494.665Z" fill="white"/>
<path opacity="0.59" d="M4916.6 2152.47L4843.2 1923.9L4965.98 1930.37L5036.05 2158.76L4916.6 2152.47Z" fill="white"/>
<path opacity="0.59" d="M4586.54 742.324L4513.13 513.758L4635.92 520.224L4705.99 748.614L4586.54 742.324Z" fill="white"/>
<path opacity="0.59" d="M2312.74 1055.69L2239.33 827.124L2362.12 833.59L2432.19 1061.98L2312.74 1055.69Z" fill="#F1B042"/>
<path opacity="0.59" d="M4522.38 2501.21L4427.58 2272.64L4586.15 2279.11L4676.64 2507.5L4522.38 2501.21Z" fill="#F1B042"/>
<path opacity="0.59" d="M865.613 2561.86L770.813 2333.3L929.385 2339.76L1019.88 2568.15L865.613 2561.86Z" fill="#F1B042"/>
<path opacity="0.59" d="M3706.05 1581.35L5227.3 1191.67L5192.99 1813.29L3672.66 2186.09L3706.05 1581.35Z" fill="#6DC142"/>
<path opacity="0.59" d="M35.43 2244.57L1229.71 1955.08L1204.06 2419.68L10.478 2696.54L35.43 2244.57Z" fill="#0E1732"/>
<path opacity="0.59" d="M1065.88 2363.41L988.166 2136.18L1111.06 2140.48L1185.43 2367.6L1065.88 2363.41Z" fill="white"/>
<path d="M2120.22 1363.93L2120.19 1557.13L2253.89 1556.16L2253.89 1577.86C2253.89 1585.33 2252.49 1590.47 2249.69 1593.29C2247.35 1595.64 2242.45 1596.85 2234.99 1596.9L2064.19 1598.14L2064.25 1127.04C2064.25 1119.57 2065.42 1114.66 2067.75 1112.31C2070.55 1109.49 2075.69 1108.05 2083.15 1108L2253.95 1106.76L2253.95 1128.46C2253.95 1135.93 2252.78 1141.07 2250.44 1143.89C2248.58 1146.23 2243.91 1147.44 2236.44 1147.49L2120.25 1148.33L2120.22 1323.33L2232.92 1322.51L2232.92 1344.21C2232.92 1351.68 2231.75 1356.82 2229.42 1359.64C2227.55 1361.99 2222.88 1363.19 2215.42 1363.24L2120.22 1363.93Z" fill="#FBFBF9"/>
<path d="M2120.22 1363.93L2120.22 1360.93L2117.22 1360.95L2117.22 1363.95L2120.22 1363.93ZM2120.19 1557.13L2117.19 1557.15L2117.19 1560.15L2120.19 1560.13L2120.19 1557.13ZM2253.89 1556.16L2256.89 1556.14L2256.89 1553.14L2253.89 1553.16L2253.89 1556.16ZM2249.69 1593.29L2247.56 1591.19L2247.56 1591.19L2249.69 1593.29ZM2064.19 1598.14L2061.19 1598.16L2061.19 1601.16L2064.19 1601.14L2064.19 1598.14ZM2067.75 1112.31L2069.88 1114.42L2069.88 1114.42L2067.75 1112.31ZM2253.95 1106.76L2256.95 1106.74L2256.95 1103.74L2253.95 1103.76L2253.95 1106.76ZM2250.44 1143.89L2248.14 1141.98L2248.12 1142.01L2248.1 1142.03L2250.44 1143.89ZM2120.25 1148.33L2120.25 1145.33L2117.25 1145.35L2117.25 1148.35L2120.25 1148.33ZM2120.22 1323.33L2117.22 1323.35L2117.22 1326.35L2120.22 1326.33L2120.22 1323.33ZM2232.92 1322.51L2235.92 1322.49L2235.92 1319.49L2232.92 1319.51L2232.92 1322.51ZM2229.42 1359.64L2227.11 1357.74L2227.09 1357.76L2227.07 1357.78L2229.42 1359.64ZM2117.22 1363.95L2117.19 1557.15L2123.19 1557.11L2123.22 1363.91L2117.22 1363.95ZM2120.19 1560.13L2253.89 1559.16L2253.89 1553.16L2120.19 1554.13L2120.19 1560.13ZM2250.89 1556.18L2250.89 1577.88L2256.89 1577.84L2256.89 1556.14L2250.89 1556.18ZM2250.89 1577.88C2250.89 1585.18 2249.48 1589.26 2247.56 1591.19L2251.81 1595.4C2255.5 1591.68 2256.89 1585.47 2256.89 1577.84L2250.89 1577.88ZM2247.56 1591.19C2246.95 1591.81 2245.74 1592.51 2243.57 1593.04C2241.42 1593.57 2238.59 1593.87 2234.99 1593.9L2234.99 1599.9C2238.85 1599.87 2242.2 1599.55 2244.95 1598.87C2247.68 1598.2 2250.09 1597.13 2251.81 1595.4L2247.56 1591.19ZM2234.99 1593.9L2064.19 1595.14L2064.19 1601.14L2234.99 1599.9L2234.99 1593.9ZM2067.19 1598.12L2067.25 1127.02L2061.25 1127.06L2061.19 1598.16L2067.19 1598.12ZM2067.25 1127.02C2067.25 1123.42 2067.54 1120.58 2068.05 1118.43C2068.56 1116.25 2069.26 1115.04 2069.88 1114.42L2065.63 1110.21C2063.92 1111.93 2062.86 1114.35 2062.21 1117.08C2061.55 1119.85 2061.25 1123.19 2061.25 1127.06L2067.25 1127.02ZM2069.88 1114.42C2071.79 1112.49 2075.85 1111.05 2083.15 1111L2083.15 1105C2075.52 1105.06 2069.32 1106.49 2065.63 1110.21L2069.88 1114.42ZM2083.15 1111L2253.95 1109.76L2253.95 1103.76L2083.15 1105L2083.15 1111ZM2250.95 1106.78L2250.95 1128.48L2256.95 1128.44L2256.95 1106.74L2250.95 1106.78ZM2250.95 1128.48C2250.95 1135.86 2249.75 1140.05 2248.14 1141.98L2252.75 1145.79C2255.81 1142.1 2256.95 1135.99 2256.95 1128.44L2250.95 1128.48ZM2248.1 1142.03C2247.76 1142.46 2246.87 1143.11 2244.82 1143.64C2242.82 1144.16 2240.05 1144.46 2236.45 1144.49L2236.44 1150.49C2240.3 1150.46 2243.61 1150.14 2246.27 1149.45C2248.88 1148.78 2251.26 1147.66 2252.79 1145.74L2248.1 1142.03ZM2236.45 1144.49L2120.25 1145.33L2120.25 1151.33L2236.44 1150.49L2236.45 1144.49ZM2117.25 1148.35L2117.22 1323.35L2123.22 1323.31L2123.25 1148.31L2117.25 1148.35ZM2120.22 1326.33L2232.92 1325.51L2232.92 1319.51L2120.23 1320.33L2120.22 1326.33ZM2229.92 1322.54L2229.92 1344.24L2235.92 1344.19L2235.92 1322.49L2229.92 1322.54ZM2229.92 1344.24C2229.92 1351.62 2228.72 1355.8 2227.11 1357.74L2231.72 1361.54C2234.78 1357.85 2235.92 1351.75 2235.92 1344.19L2229.92 1344.24ZM2227.07 1357.78C2226.73 1358.21 2225.85 1358.87 2223.79 1359.4C2221.79 1359.91 2219.02 1360.22 2215.42 1360.24L2215.42 1366.24C2219.28 1366.21 2222.58 1365.89 2225.24 1365.21C2227.86 1364.53 2230.23 1363.42 2231.76 1361.5L2227.07 1357.78ZM2215.42 1360.24L2120.22 1360.93L2120.22 1366.93L2215.42 1366.24L2215.42 1360.24Z" fill="white"/>
<path d="M2591.12 1104.32L2652 1259.98L2678.59 1342.38L2682.79 1342.35L2708.7 1259.57L2760.51 1121.99C2762.85 1114.97 2765.65 1110.05 2768.91 1107.23C2772.18 1104.41 2777.78 1102.96 2785.71 1102.91L2817.21 1102.68L2705.18 1387.69L2705.15 1573.89C2705.15 1581.82 2703.75 1587.2 2700.95 1590.02C2698.15 1592.37 2693.02 1593.58 2685.55 1593.63L2649.15 1593.9L2649.18 1388.1L2543.52 1123.56C2540.72 1116.12 2540.95 1111.21 2544.22 1108.86C2547.95 1106.03 2553.55 1104.59 2561.02 1104.54L2591.12 1104.32Z" fill="#FBFBF9"/>
<path d="M2591.12 1104.32L2593.91 1103.21L2593.17 1101.3L2591.12 1101.32L2591.12 1104.32ZM2652 1259.98L2654.85 1259.04L2654.82 1258.95L2654.79 1258.87L2652 1259.98ZM2678.59 1342.38L2675.73 1343.32L2676.4 1345.4L2678.58 1345.38L2678.59 1342.38ZM2682.79 1342.35L2682.78 1345.35L2684.99 1345.34L2685.65 1343.23L2682.79 1342.35ZM2708.7 1259.57L2705.89 1258.53L2705.86 1258.61L2705.83 1258.69L2708.7 1259.57ZM2760.51 1121.99L2763.32 1123.03L2763.34 1122.97L2763.36 1122.92L2760.51 1121.99ZM2768.91 1107.23L2770.87 1109.49L2770.87 1109.49L2768.91 1107.23ZM2817.21 1102.68L2820 1103.76L2821.62 1099.65L2817.21 1099.68L2817.21 1102.68ZM2705.18 1387.69L2702.39 1386.61L2702.18 1387.14L2702.18 1387.71L2705.18 1387.69ZM2700.95 1590.02L2702.87 1592.31L2702.98 1592.22L2703.07 1592.13L2700.95 1590.02ZM2649.15 1593.9L2646.15 1593.92L2646.15 1596.92L2649.15 1596.9L2649.15 1593.9ZM2649.18 1388.1L2652.18 1388.07L2652.18 1387.5L2651.97 1386.97L2649.18 1388.1ZM2543.52 1123.56L2540.71 1124.64L2540.72 1124.67L2540.73 1124.69L2543.52 1123.56ZM2544.22 1108.86L2545.96 1111.29L2545.99 1111.27L2546.02 1111.24L2544.22 1108.86ZM2588.32 1105.43L2649.2 1261.09L2654.79 1258.87L2593.91 1103.21L2588.32 1105.43ZM2649.14 1260.92L2675.73 1343.32L2681.44 1341.44L2654.85 1259.04L2649.14 1260.92ZM2678.58 1345.38L2682.78 1345.35L2682.79 1339.35L2678.59 1339.38L2678.58 1345.38ZM2685.65 1343.23L2711.56 1260.44L2705.83 1258.69L2679.92 1341.48L2685.65 1343.23ZM2711.5 1260.6L2763.32 1123.03L2757.71 1120.95L2705.89 1258.53L2711.5 1260.6ZM2763.36 1122.92C2765.63 1116.09 2768.21 1111.79 2770.87 1109.49L2766.96 1104.97C2763.08 1108.32 2760.06 1113.85 2757.67 1121.06L2763.36 1122.92ZM2770.87 1109.49C2773.29 1107.4 2777.96 1105.96 2785.71 1105.91L2785.71 1099.91C2777.6 1099.97 2771.07 1101.41 2766.96 1104.97L2770.87 1109.49ZM2785.71 1105.91L2817.21 1105.68L2817.21 1099.68L2785.71 1099.91L2785.71 1105.91ZM2814.42 1101.6L2702.39 1386.61L2707.97 1388.77L2820 1103.76L2814.42 1101.6ZM2702.18 1387.71L2702.15 1573.91L2708.15 1573.87L2708.18 1387.67L2702.18 1387.71ZM2702.15 1573.91C2702.15 1581.74 2700.72 1586.01 2698.83 1587.92L2703.07 1592.13C2706.79 1588.39 2708.15 1581.91 2708.15 1573.87L2702.15 1573.91ZM2699.03 1587.73C2697.11 1589.35 2692.93 1590.58 2685.55 1590.63L2685.55 1596.63C2693.1 1596.58 2699.2 1595.4 2702.87 1592.31L2699.03 1587.73ZM2685.55 1590.63L2649.15 1590.9L2649.15 1596.9L2685.55 1596.63L2685.55 1590.63ZM2652.15 1593.87L2652.18 1388.07L2646.18 1388.12L2646.15 1593.92L2652.15 1593.87ZM2651.97 1386.97L2546.3 1122.43L2540.73 1124.69L2646.39 1389.23L2651.97 1386.97ZM2546.33 1122.49C2544.99 1118.94 2544.5 1116.29 2544.59 1114.42C2544.67 1112.66 2545.24 1111.81 2545.96 1111.29L2542.48 1106.43C2539.93 1108.27 2538.75 1111.04 2538.6 1114.18C2538.45 1117.22 2539.24 1120.74 2540.71 1124.64L2546.33 1122.49ZM2546.02 1111.24C2549 1108.98 2553.84 1107.59 2561.02 1107.54L2561.02 1101.54C2553.27 1101.59 2546.9 1103.08 2542.42 1106.47L2546.02 1111.24ZM2561.02 1107.54L2591.12 1107.32L2591.12 1101.32L2561.02 1101.54L2561.02 1107.54Z" fill="white"/>
<path d="M3074.37 1592.42C3066.91 1592.47 3062 1591.34 3059.66 1589.03C3057.78 1586.24 3056.83 1581.11 3056.8 1573.65L3056.71 1551.95L3228.69 1141.89L3064.9 1143.08L3064.81 1121.38C3064.78 1113.91 3065.7 1109.01 3067.55 1106.66C3069.88 1103.84 3074.77 1102.41 3082.24 1102.35L3267.03 1101.01C3274.5 1100.96 3279.17 1102.32 3281.05 1105.11C3283.39 1107.43 3284.58 1112.32 3284.61 1119.79L3284.69 1141.49L3112.01 1551.55L3284.21 1550.3L3284.29 1572C3284.32 1579.46 3283.18 1584.61 3280.85 1587.42C3279 1589.77 3274.34 1590.97 3266.87 1591.02L3074.37 1592.42Z" fill="#FBFBF9"/>
<path d="M3059.66 1589.03L3057.17 1590.71L3057.34 1590.95L3057.55 1591.16L3059.66 1589.03ZM3056.71 1551.95L3053.95 1550.79L3053.71 1551.36L3053.71 1551.97L3056.71 1551.95ZM3228.69 1141.89L3231.46 1143.04L3233.22 1138.86L3228.68 1138.89L3228.69 1141.89ZM3064.9 1143.08L3061.9 1143.1L3061.91 1146.1L3064.91 1146.08L3064.9 1143.08ZM3067.55 1106.66L3065.24 1104.76L3065.22 1104.78L3065.2 1104.8L3067.55 1106.66ZM3281.05 1105.11L3278.56 1106.79L3278.72 1107.04L3278.94 1107.25L3281.05 1105.11ZM3284.69 1141.49L3287.46 1142.64L3287.69 1142.08L3287.69 1141.46L3284.69 1141.49ZM3112.01 1551.55L3109.25 1550.39L3107.48 1554.58L3112.02 1554.55L3112.01 1551.55ZM3284.21 1550.3L3287.21 1550.28L3287.2 1547.28L3284.2 1547.3L3284.21 1550.3ZM3280.85 1587.42L3278.54 1585.52L3278.52 1585.54L3278.5 1585.57L3280.85 1587.42ZM3074.36 1589.42C3070.76 1589.45 3067.92 1589.18 3065.78 1588.69C3063.6 1588.19 3062.39 1587.5 3061.77 1586.89L3057.55 1591.16C3059.27 1592.86 3061.68 1593.91 3064.41 1594.54C3067.17 1595.17 3070.52 1595.45 3074.39 1595.42L3074.36 1589.42ZM3062.15 1587.34C3061.53 1586.42 3060.93 1584.89 3060.49 1582.53C3060.05 1580.2 3059.81 1577.25 3059.8 1573.62L3053.8 1573.67C3053.81 1577.51 3054.07 1580.85 3054.59 1583.65C3055.1 1586.42 3055.91 1588.84 3057.17 1590.71L3062.15 1587.34ZM3059.8 1573.62L3059.71 1551.93L3053.71 1551.97L3053.8 1573.67L3059.8 1573.62ZM3059.48 1553.1L3231.46 1143.04L3225.93 1140.74L3053.95 1550.79L3059.48 1553.1ZM3228.68 1138.89L3064.89 1140.08L3064.91 1146.08L3228.71 1144.89L3228.68 1138.89ZM3067.9 1143.06L3067.81 1121.36L3061.81 1121.4L3061.9 1143.1L3067.9 1143.06ZM3067.81 1121.36C3067.8 1117.73 3068.01 1114.84 3068.42 1112.64C3068.84 1110.38 3069.42 1109.13 3069.9 1108.52L3065.2 1104.8C3063.83 1106.54 3063.02 1108.91 3062.53 1111.56C3062.02 1114.26 3061.8 1117.56 3061.81 1121.4L3067.81 1121.36ZM3069.87 1108.56C3070.52 1107.77 3071.71 1106.96 3073.8 1106.35C3075.89 1105.74 3078.68 1105.38 3082.25 1105.35L3082.23 1099.35C3078.33 1099.38 3074.94 1099.77 3072.13 1100.59C3069.33 1101.41 3066.91 1102.73 3065.24 1104.76L3069.87 1108.56ZM3082.25 1105.35L3267.04 1104.01L3267.02 1098.01L3082.23 1099.35L3082.25 1105.35ZM3267.04 1104.01C3270.62 1103.99 3273.34 1104.31 3275.29 1104.88C3277.24 1105.45 3278.15 1106.19 3278.56 1106.79L3283.54 1103.43C3282.07 1101.25 3279.7 1099.91 3276.99 1099.12C3274.26 1098.32 3270.91 1097.98 3267.02 1098.01L3267.04 1104.01ZM3278.94 1107.25C3279.56 1107.86 3280.25 1109.06 3280.78 1111.23C3281.3 1113.37 3281.59 1116.21 3281.61 1119.81L3287.61 1119.76C3287.59 1115.9 3287.28 1112.55 3286.61 1109.8C3285.95 1107.08 3284.88 1104.68 3283.16 1102.97L3278.94 1107.25ZM3281.61 1119.81L3281.69 1141.51L3287.69 1141.46L3287.61 1119.76L3281.61 1119.81ZM3281.93 1140.33L3109.25 1550.39L3114.78 1552.7L3287.46 1142.64L3281.93 1140.33ZM3112.02 1554.55L3284.22 1553.3L3284.2 1547.3L3112 1548.55L3112.02 1554.55ZM3281.21 1550.32L3281.29 1572.02L3287.29 1571.98L3287.21 1550.28L3281.21 1550.32ZM3281.29 1572.02C3281.32 1579.4 3280.14 1583.58 3278.54 1585.52L3283.17 1589.33C3286.21 1585.63 3287.32 1579.53 3287.29 1571.98L3281.29 1572.02ZM3278.5 1585.57C3278.17 1585.99 3277.28 1586.65 3275.23 1587.18C3273.23 1587.69 3270.46 1588 3266.86 1588.02L3266.88 1594.02C3270.74 1594 3274.04 1593.67 3276.7 1592.99C3279.31 1592.32 3281.69 1591.2 3283.2 1589.28L3278.5 1585.57ZM3266.86 1588.02L3074.36 1589.42L3074.39 1595.42L3266.88 1594.02L3266.86 1588.02Z" fill="white"/>
<path d="M1612.62 1596.99C1605.15 1597.04 1600.24 1595.91 1597.88 1593.6C1595.99 1590.81 1595 1585.68 1594.93 1578.22L1594.72 1556.52L1655.61 1556.08C1670.08 1555.97 1679.15 1552.87 1682.82 1546.78C1686.5 1540.69 1688.26 1530.41 1688.12 1515.94L1684.85 1186.96C1684.7 1172.49 1682.74 1162.24 1678.94 1156.2C1675.15 1150.16 1666.02 1147.19 1651.55 1147.3L1562.65 1147.94L1567.12 1597.32L1511.12 1597.73L1506.44 1126.65C1506.37 1119.18 1507.48 1114.27 1509.79 1111.92C1512.57 1109.1 1517.69 1107.67 1525.15 1107.61L1673.55 1106.54C1697.81 1106.36 1714.9 1111.37 1724.8 1121.57C1735.16 1131.29 1740.47 1148.29 1740.71 1172.55L1744.25 1529.53C1744.49 1553.8 1739.53 1571.1 1729.37 1581.44C1719.67 1591.31 1702.68 1596.34 1678.42 1596.51L1612.62 1596.99Z" fill="white"/>
<path d="M1597.88 1593.6L1595.4 1595.28L1595.57 1595.53L1595.78 1595.73L1597.88 1593.6ZM1594.72 1556.52L1594.69 1553.52L1591.69 1553.54L1591.72 1556.54L1594.72 1556.52ZM1682.82 1546.78L1685.39 1548.33L1685.39 1548.33L1682.82 1546.78ZM1678.94 1156.2L1676.4 1157.79L1676.4 1157.79L1678.94 1156.2ZM1562.65 1147.94L1562.62 1144.94L1559.62 1144.96L1559.65 1147.96L1562.65 1147.94ZM1567.12 1597.32L1567.15 1600.32L1570.15 1600.3L1570.12 1597.3L1567.12 1597.32ZM1511.12 1597.73L1508.12 1597.75L1508.15 1600.75L1511.15 1600.73L1511.12 1597.73ZM1509.79 1111.92L1511.94 1114.03L1511.94 1114.03L1509.79 1111.92ZM1724.8 1121.57L1722.65 1123.65L1722.7 1123.7L1722.75 1123.75L1724.8 1121.57ZM1729.37 1581.44L1727.23 1579.34L1727.23 1579.34L1729.37 1581.44ZM1612.59 1593.99C1608.99 1594.02 1606.15 1593.75 1604 1593.26C1601.82 1592.76 1600.61 1592.07 1599.98 1591.46L1595.78 1595.73C1597.51 1597.44 1599.94 1598.48 1602.67 1599.11C1605.43 1599.74 1608.78 1600.02 1612.65 1599.99L1612.59 1593.99ZM1600.36 1591.91C1599.74 1591 1599.12 1589.46 1598.67 1587.1C1598.22 1584.78 1597.97 1581.82 1597.93 1578.2L1591.93 1578.24C1591.97 1582.08 1592.24 1585.42 1592.78 1588.22C1593.31 1590.99 1594.13 1593.41 1595.4 1595.28L1600.36 1591.91ZM1597.93 1578.2L1597.71 1556.5L1591.72 1556.54L1591.93 1578.24L1597.93 1578.2ZM1594.74 1559.52L1655.64 1559.08L1655.58 1553.08L1594.69 1553.52L1594.74 1559.52ZM1655.64 1559.08C1663.05 1559.02 1669.29 1558.21 1674.24 1556.51C1679.21 1554.82 1683.08 1552.16 1685.39 1548.33L1680.25 1545.23C1678.89 1547.49 1676.39 1549.43 1672.29 1550.84C1668.17 1552.24 1662.64 1553.03 1655.58 1553.08L1655.64 1559.08ZM1685.39 1548.33C1689.52 1541.48 1691.26 1530.47 1691.12 1515.92L1685.12 1515.96C1685.26 1530.34 1683.47 1539.89 1680.25 1545.23L1685.39 1548.33ZM1691.12 1515.92L1687.85 1186.94L1681.85 1186.98L1685.12 1515.96L1691.12 1515.92ZM1687.85 1186.94C1687.7 1172.38 1685.75 1161.4 1681.48 1154.61L1676.4 1157.79C1679.72 1163.08 1681.7 1172.6 1681.85 1186.98L1687.85 1186.94ZM1681.48 1154.61C1679.1 1150.81 1675.17 1148.22 1670.17 1146.59C1665.18 1144.97 1658.93 1144.24 1651.52 1144.3L1651.58 1150.3C1658.64 1150.25 1664.18 1150.95 1668.33 1152.3C1672.46 1153.64 1674.99 1155.55 1676.4 1157.79L1681.48 1154.61ZM1651.52 1144.3L1562.62 1144.94L1562.68 1150.94L1651.58 1150.3L1651.52 1144.3ZM1559.65 1147.96L1564.12 1597.34L1570.12 1597.3L1565.65 1147.92L1559.65 1147.96ZM1567.09 1594.32L1511.09 1594.73L1511.15 1600.73L1567.15 1600.32L1567.09 1594.32ZM1514.12 1597.7L1509.44 1126.63L1503.44 1126.67L1508.12 1597.75L1514.12 1597.7ZM1509.44 1126.63C1509.4 1123.03 1509.66 1120.19 1510.15 1118.04C1510.64 1115.87 1511.32 1114.65 1511.94 1114.03L1507.65 1109.82C1505.95 1111.55 1504.92 1113.96 1504.3 1116.69C1503.67 1119.46 1503.4 1122.8 1503.44 1126.67L1509.44 1126.63ZM1511.94 1114.03C1513.83 1112.11 1517.88 1110.67 1525.18 1110.61L1525.12 1104.61C1517.49 1104.67 1511.3 1106.1 1507.65 1109.82L1511.94 1114.03ZM1525.18 1110.61L1673.58 1109.54L1673.52 1103.54L1525.12 1104.61L1525.18 1110.61ZM1673.58 1109.54C1697.57 1109.36 1713.61 1114.35 1722.65 1123.65L1726.95 1119.48C1716.18 1108.39 1698.06 1103.36 1673.52 1103.54L1673.58 1109.54ZM1722.75 1123.75C1732.21 1132.63 1737.47 1148.58 1737.71 1172.57L1743.71 1172.53C1743.46 1147.99 1738.12 1129.96 1726.85 1119.38L1722.75 1123.75ZM1737.71 1172.57L1741.25 1529.56L1747.25 1529.51L1743.71 1172.53L1737.71 1172.57ZM1741.25 1529.56C1741.49 1553.53 1736.56 1569.84 1727.23 1579.34L1731.51 1583.55C1742.51 1572.36 1747.5 1554.07 1747.25 1529.51L1741.25 1529.56ZM1727.23 1579.34C1718.38 1588.34 1702.41 1593.34 1678.39 1593.51L1678.45 1599.51C1702.96 1599.34 1720.96 1594.29 1731.51 1583.55L1727.23 1579.34ZM1678.39 1593.51L1612.59 1593.99L1612.65 1599.99L1678.45 1599.51L1678.39 1593.51Z" fill="white"/>
<path d="M3430.16 1587.13L3387.46 1587.44C3379.99 1587.5 3374.85 1586.37 3372.03 1584.06C3369.68 1581.27 3368.48 1576.15 3368.42 1568.68L3368.15 1531.58L3410.85 1531.27C3418.32 1531.22 3423.23 1532.58 3425.58 1535.37C3428.4 1537.68 3429.83 1542.57 3429.89 1550.04L3430.16 1587.13ZM3672.46 1229.77C3679.93 1229.71 3684.61 1231.08 3686.49 1233.87C3688.84 1236.18 3690.05 1241.07 3690.1 1248.54L3690.26 1270.24L3604.16 1270.86C3589.69 1270.97 3580.62 1274.07 3576.93 1280.16C3573.24 1286.26 3571.44 1296.54 3571.55 1311L3572.96 1505.6C3573.07 1520.06 3575.01 1530.32 3578.78 1536.36C3582.56 1542.4 3591.68 1545.36 3606.15 1545.26L3692.25 1544.63L3692.4 1566.33C3692.46 1573.8 3691.33 1578.94 3689.02 1581.76C3687.17 1584.1 3682.51 1585.31 3675.04 1585.36L3584.04 1586.02C3559.78 1586.19 3542.48 1581.42 3532.14 1571.69C3522.26 1561.5 3517.24 1544.27 3517.06 1520L3515.45 1297.41C3515.27 1273.14 3520.05 1256.07 3529.78 1246.2C3539.97 1235.86 3557.2 1230.6 3581.47 1230.43L3672.46 1229.77ZM3824.41 1094.26L3827.83 1565.35C3827.88 1572.82 3826.52 1577.96 3823.74 1580.78C3821.42 1583.13 3816.53 1584.33 3809.07 1584.39L3771.97 1584.66L3768.55 1113.57C3768.5 1106.1 3769.63 1101.19 3771.94 1098.84C3774.72 1096.02 3779.85 1094.59 3787.31 1094.53L3824.41 1094.26ZM4096.55 1582.3L4094.11 1245.61C4094.06 1238.15 4095.19 1233.24 4097.5 1230.89C4100.28 1228.07 4105.41 1226.63 4112.87 1226.58L4149.97 1226.31L4152.41 1563C4152.47 1570.46 4151.1 1575.61 4148.32 1578.43C4146.01 1580.78 4141.12 1581.98 4133.65 1582.03L4096.55 1582.3ZM3919.11 1246.88C3919.06 1239.41 3920.19 1234.51 3922.51 1232.16C3925.29 1229.34 3930.41 1227.9 3937.88 1227.84L3974.98 1227.58L3976.97 1502.67C3977.07 1517.13 3979.02 1527.39 3982.79 1533.43C3986.57 1539.47 3995.69 1542.43 4010.16 1542.33L4068.26 1541.91L4068.41 1563.61C4068.47 1571.07 4067.34 1576.22 4065.03 1579.03C4063.18 1581.38 4058.52 1582.58 4051.05 1582.63L3988.05 1583.09C3963.79 1583.27 3946.49 1578.49 3936.15 1568.77C3926.27 1558.57 3921.25 1541.34 3921.07 1517.07L3919.11 1246.88ZM4406.15 1224.45C4430.42 1224.27 4447.49 1229.28 4457.36 1239.48C4467.7 1249.2 4472.96 1266.2 4473.13 1290.47L4474.75 1513.06C4474.92 1537.33 4469.92 1554.63 4459.72 1564.97C4449.99 1574.84 4433 1579.86 4408.73 1580.04L4342.23 1580.52C4328.7 1580.62 4318.88 1577.43 4312.76 1570.94C4307.11 1563.98 4302.84 1553.74 4299.94 1540.23L4300.1 1561.93C4300.15 1569.39 4298.79 1574.54 4296.01 1577.36C4293.69 1579.71 4288.8 1580.91 4281.33 1580.96L4244.24 1581.23L4240.82 1110.15C4240.77 1102.68 4241.9 1097.77 4244.21 1095.42C4246.99 1092.6 4252.12 1091.16 4259.58 1091.11L4296.68 1090.84L4299.94 1540.23L4386.04 1539.6C4400.5 1539.5 4409.58 1536.4 4413.27 1530.31C4416.96 1524.21 4418.75 1513.93 4418.65 1499.47L4417.24 1304.87C4417.13 1290.41 4415.19 1280.15 4411.41 1274.11C4407.64 1268.07 4398.51 1265.11 4384.05 1265.21L4325.95 1265.63L4325.79 1243.93C4325.74 1236.47 4326.64 1231.56 4328.49 1229.21C4330.8 1226.4 4335.69 1224.96 4343.16 1224.91L4406.15 1224.45Z" fill="white"/>
</svg>
