<svg width="100" height="66" viewBox="0 0 100 66" fill="none" xmlns="http://www.w3.org/2000/svg">
<g clip-path="url(#clip0)">
<g filter="url(#filter0_d)">
<path d="M9.9198 45.1519L42.3332 9.07882L57.4943 9.07882L66.6485 19.2735L66.6485 45.1518L9.9198 45.1519Z" fill="url(#paint0_linear)"/>
</g>
<g filter="url(#filter1_d)">
<path d="M34.7982 45.7846L33.5 9.0637L47.5708 9.06371L65.9592 18.9053L49.6428 32.3729L44.7219 18.9053L34.7982 45.7846Z" fill="url(#paint1_linear)"/>
</g>
<g filter="url(#filter2_d)">
<path d="M27.4446 45.6681L13.5 9.00002L21.9999 8.99997L28.4999 8.99997L34.9999 8.99995L44.7817 19.9142L65.6057 45.7986L43.5715 45.7233L27.4446 45.6681Z" fill="url(#paint2_linear)"/>
</g>
<g filter="url(#filter3_d)">
<path d="M14.2817 40.1383L12 8.99999L25.5 27.5L34 18L34.8635 45.7476L20.6314 45.7476L14.2817 40.1383Z" fill="url(#paint3_linear)"/>
</g>
<g filter="url(#filter4_d)">
<path d="M11.7354 39.3852L11.7354 8.96237L24.6336 8.96237L30.1625 18.7463L29.7181 43.1986L22.1332 43.2523L11.7354 39.3852Z" fill="url(#paint4_linear)"/>
</g>
<path d="M37.0963 31.4817L37.0937 37.0017H40.9137L40.9134 37.6217C40.9133 37.8351 40.8732 37.9817 40.7932 38.0617C40.7265 38.1284 40.5864 38.1617 40.3731 38.1617H35.4931L35.4995 24.7017C35.4996 24.4884 35.533 24.3484 35.5997 24.2817C35.6797 24.2017 35.8264 24.1617 36.0397 24.1617H40.9197L40.9195 24.7817C40.9194 24.9951 40.8859 25.1417 40.8192 25.2217C40.7659 25.2884 40.6325 25.3217 40.4192 25.3217H37.0992L37.0968 30.3217H40.3168L40.3165 30.9417C40.3164 31.1551 40.283 31.3017 40.2163 31.3817C40.163 31.4484 40.0296 31.4817 39.8163 31.4817H37.0963Z" fill="#FBFBF9"/>
<path d="M48.3828 24.1617L50.1207 28.6217L50.8796 30.9817H50.9996L51.7407 28.6217L53.2226 24.7017C53.2893 24.5017 53.3694 24.3617 53.4628 24.2817C53.5561 24.2017 53.7161 24.1617 53.9428 24.1617H54.8428L51.639 32.2817L51.6364 37.6017C51.6363 37.8284 51.5963 37.9817 51.5162 38.0617C51.4362 38.1284 51.2895 38.1617 51.0762 38.1617H50.0362L50.039 32.2817L47.0226 24.7017C46.9427 24.4884 46.9494 24.3484 47.0428 24.2817C47.1495 24.2017 47.3095 24.1617 47.5228 24.1617H48.3828Z" fill="#FBFBF9"/>
<path d="M59.9444 38.1617C59.731 38.1617 59.5911 38.1284 59.5244 38.0617C59.4711 37.9817 59.4445 37.8351 59.4446 37.6217L59.4449 37.0017L64.4105 25.3217H59.7305L59.7308 24.7017C59.7309 24.4884 59.7576 24.3484 59.811 24.2817C59.8777 24.2017 60.0177 24.1617 60.231 24.1617H65.511C65.7243 24.1617 65.8577 24.2017 65.911 24.2817C65.9776 24.3484 66.0109 24.4884 66.0108 24.7017L66.0105 25.3217L61.0249 37.0017H65.9449L65.9446 37.6217C65.9445 37.8351 65.9111 37.9817 65.8444 38.0617C65.7911 38.1284 65.6577 38.1617 65.4444 38.1617H59.9444Z" fill="#FBFBF9"/>
<path d="M25.4756 38.1623C25.2622 38.1623 25.1222 38.129 25.0555 38.0623C25.0021 37.9823 24.9754 37.8356 24.9752 37.6223L24.9748 37.0023H26.7148C27.1281 37.0023 27.3881 36.9156 27.4946 36.7423C27.6012 36.569 27.6543 36.2756 27.6541 35.8623L27.6478 26.4623C27.6476 26.049 27.594 25.7556 27.4873 25.5823C27.3805 25.409 27.1204 25.3223 26.7071 25.3223H24.1671L24.1756 38.1623H22.5756L22.5667 24.7023C22.5665 24.489 22.5998 24.349 22.6664 24.2823C22.7463 24.2023 22.893 24.1623 23.1063 24.1623H27.3463C28.0396 24.1623 28.5264 24.309 28.8066 24.6023C29.1001 24.8823 29.2471 25.369 29.2476 26.0623L29.2543 36.2623C29.2548 36.9556 29.1084 37.449 28.8153 37.7423C28.5355 38.0223 28.0489 38.1623 27.3556 38.1623H25.4756Z" fill="#D4E157"/>
</g>
<defs>
<filter id="filter0_d" x="-42.0802" y="9.0788" width="108.729" height="119.073" filterUnits="userSpaceOnUse" color-interpolation-filters="sRGB">
<feFlood flood-opacity="0" result="BackgroundImageFix"/>
<feColorMatrix in="SourceAlpha" type="matrix" values="0 0 0 0 0 0 0 0 0 0 0 0 0 0 0 0 0 0 127 0"/>
<feOffset dx="-48" dy="79"/>
<feGaussianBlur stdDeviation="2"/>
<feColorMatrix type="matrix" values="0 0 0 0 0 0 0 0 0 0 0 0 0 0 0 0 0 0 0.25 0"/>
<feBlend mode="lighten" in2="BackgroundImageFix" result="effect1_dropShadow"/>
<feBlend mode="normal" in="SourceGraphic" in2="effect1_dropShadow" result="shape"/>
</filter>
<filter id="filter1_d" x="-18.5" y="9.06372" width="84.4592" height="119.721" filterUnits="userSpaceOnUse" color-interpolation-filters="sRGB">
<feFlood flood-opacity="0" result="BackgroundImageFix"/>
<feColorMatrix in="SourceAlpha" type="matrix" values="0 0 0 0 0 0 0 0 0 0 0 0 0 0 0 0 0 0 127 0"/>
<feOffset dx="-48" dy="79"/>
<feGaussianBlur stdDeviation="2"/>
<feColorMatrix type="matrix" values="0 0 0 0 0 0 0 0 0 0 0 0 0 0 0 0 0 0 0.25 0"/>
<feBlend mode="lighten" in2="BackgroundImageFix" result="effect1_dropShadow"/>
<feBlend mode="normal" in="SourceGraphic" in2="effect1_dropShadow" result="shape"/>
</filter>
<filter id="filter2_d" x="-38.5" y="8.99994" width="104.106" height="119.799" filterUnits="userSpaceOnUse" color-interpolation-filters="sRGB">
<feFlood flood-opacity="0" result="BackgroundImageFix"/>
<feColorMatrix in="SourceAlpha" type="matrix" values="0 0 0 0 0 0 0 0 0 0 0 0 0 0 0 0 0 0 127 0"/>
<feOffset dx="-48" dy="79"/>
<feGaussianBlur stdDeviation="2"/>
<feColorMatrix type="matrix" values="0 0 0 0 0 0 0 0 0 0 0 0 0 0 0 0 0 0 0.25 0"/>
<feBlend mode="lighten" in2="BackgroundImageFix" result="effect1_dropShadow"/>
<feBlend mode="normal" in="SourceGraphic" in2="effect1_dropShadow" result="shape"/>
</filter>
<filter id="filter3_d" x="-40" y="9" width="74.8635" height="119.748" filterUnits="userSpaceOnUse" color-interpolation-filters="sRGB">
<feFlood flood-opacity="0" result="BackgroundImageFix"/>
<feColorMatrix in="SourceAlpha" type="matrix" values="0 0 0 0 0 0 0 0 0 0 0 0 0 0 0 0 0 0 127 0"/>
<feOffset dx="-48" dy="79"/>
<feGaussianBlur stdDeviation="2"/>
<feColorMatrix type="matrix" values="0 0 0 0 0 0 0 0 0 0 0 0 0 0 0 0 0 0 0.25 0"/>
<feBlend mode="lighten" in2="BackgroundImageFix" result="effect1_dropShadow"/>
<feBlend mode="normal" in="SourceGraphic" in2="effect1_dropShadow" result="shape"/>
</filter>
<filter id="filter4_d" x="-40.2646" y="8.96234" width="70.4271" height="117.29" filterUnits="userSpaceOnUse" color-interpolation-filters="sRGB">
<feFlood flood-opacity="0" result="BackgroundImageFix"/>
<feColorMatrix in="SourceAlpha" type="matrix" values="0 0 0 0 0 0 0 0 0 0 0 0 0 0 0 0 0 0 127 0"/>
<feOffset dx="-48" dy="79"/>
<feGaussianBlur stdDeviation="2"/>
<feColorMatrix type="matrix" values="0 0 0 0 0 0 0 0 0 0 0 0 0 0 0 0 0 0 0.25 0"/>
<feBlend mode="lighten" in2="BackgroundImageFix" result="effect1_dropShadow"/>
<feBlend mode="normal" in="SourceGraphic" in2="effect1_dropShadow" result="shape"/>
</filter>
<linearGradient id="paint0_linear" x1="66.6486" y1="19.2734" x2="60.2626" y2="41.2025" gradientUnits="userSpaceOnUse">
<stop stop-color="#EE6E79"/>
<stop offset="1" stop-color="#EE6E79" stop-opacity="0"/>
</linearGradient>
<linearGradient id="paint1_linear" x1="46.5348" y1="45.0635" x2="71.6294" y2="26.4661" gradientUnits="userSpaceOnUse">
<stop stop-color="#6DC142"/>
<stop offset="1" stop-color="#6DC142" stop-opacity="0"/>
</linearGradient>
<linearGradient id="paint2_linear" x1="26.3761" y1="8.88597" x2="35.0167" y2="42.6244" gradientUnits="userSpaceOnUse">
<stop stop-color="#429ADD"/>
<stop offset="1" stop-color="#429ADD" stop-opacity="0"/>
</linearGradient>
<linearGradient id="paint3_linear" x1="21.8976" y1="19.4623" x2="47.4422" y2="25.1389" gradientUnits="userSpaceOnUse">
<stop stop-color="#4A27B7"/>
<stop offset="1" stop-color="#4A27B7" stop-opacity="0"/>
</linearGradient>
<linearGradient id="paint4_linear" x1="29.5905" y1="18.509" x2="30.0487" y2="34.6622" gradientUnits="userSpaceOnUse">
<stop stop-color="#F1B042"/>
<stop offset="1" stop-color="#F1B042" stop-opacity="0"/>
</linearGradient>
<clipPath id="clip0">
<rect width="100" height="65.7658" fill="white"/>
</clipPath>
</defs>
</svg>
