<svg width="605" height="369" viewBox="0 0 605 369" fill="none" xmlns="http://www.w3.org/2000/svg">
<g clip-path="url(#clip0)">
<path d="M324.272 171.151L324.228 168.152L321.228 168.16L321.272 171.16L324.272 171.151ZM325.078 226.343L322.078 226.351L322.122 229.351L325.122 229.342L325.078 226.343ZM363.278 226.23L366.278 226.221L366.234 223.222L363.234 223.231L363.278 226.23ZM362.233 236.832L360.081 234.717L360.081 234.717L362.233 236.832ZM309.248 237.988L306.248 237.997L306.292 240.996L309.292 240.987L309.248 237.988ZM308.221 99.2065L310.373 101.321L310.373 101.321L308.221 99.2065ZM361.403 97.8501L364.403 97.8412L364.359 94.8417L361.359 94.8505L361.403 97.8501ZM360.558 108.451L358.225 106.538L358.206 106.561L358.188 106.584L360.558 108.451ZM323.372 109.561L323.329 106.561L320.329 106.57L320.372 109.57L323.372 109.561ZM324.103 159.553L321.103 159.562L321.147 162.561L324.147 162.552L324.103 159.553ZM356.303 159.458L359.303 159.449L359.259 156.45L356.259 156.459L356.303 159.458ZM355.457 170.059L353.125 168.146L353.106 168.169L353.087 168.193L355.457 170.059ZM321.272 171.16L322.078 226.351L328.078 226.334L327.272 171.142L321.272 171.16ZM325.122 229.342L363.322 229.23L363.234 223.231L325.035 223.343L325.122 229.342ZM360.278 226.239L360.369 232.438L366.369 232.42L366.278 226.221L360.278 226.239ZM360.369 232.438C360.382 233.336 360.305 233.953 360.203 234.349C360.1 234.746 360.007 234.792 360.081 234.717L364.385 238.947C366.05 237.252 366.402 234.72 366.369 232.42L360.369 232.438ZM360.081 234.717C360.292 234.502 360.378 234.569 359.957 234.671C359.566 234.765 358.937 234.842 358.004 234.845L358.092 240.844C359.291 240.84 360.427 240.745 361.432 240.502C362.405 240.267 363.517 239.83 364.385 238.947L360.081 234.717ZM358.004 234.845L309.204 234.988L309.292 240.987L358.092 240.844L358.004 234.845ZM312.248 237.979L310.282 103.4L304.282 103.418L306.248 237.997L312.248 237.979ZM310.282 103.4C310.268 102.467 310.334 101.836 310.422 101.445C310.516 101.022 310.584 101.106 310.373 101.321L306.068 97.0917C305.2 97.9751 304.783 99.0945 304.565 100.072C304.339 101.081 304.264 102.218 304.282 103.418L310.282 103.4ZM310.373 101.321C310.299 101.396 310.344 101.302 310.739 101.193C311.133 101.084 311.749 100.996 312.647 100.993L312.559 94.9942C310.26 95.0009 307.733 95.3973 306.068 97.0917L310.373 101.321ZM312.647 100.993L361.447 100.85L361.359 94.8505L312.559 94.9942L312.647 100.993ZM358.403 97.8589L358.493 104.058L364.493 104.04L364.403 97.8412L358.403 97.8589ZM358.493 104.058C358.507 104.986 358.443 105.647 358.348 106.093C358.249 106.556 358.152 106.627 358.225 106.538L362.89 110.365C364.261 108.687 364.526 106.259 364.493 104.04L358.493 104.058ZM358.188 106.584C358.358 106.368 358.518 106.273 358.559 106.251C358.596 106.23 358.558 106.257 358.399 106.298C358.064 106.382 357.469 106.461 356.528 106.463L356.616 112.463C357.809 112.459 358.945 112.365 359.939 112.113C360.88 111.874 362.083 111.396 362.928 110.318L358.188 106.584ZM356.528 106.463L323.329 106.561L323.416 112.56L356.616 112.463L356.528 106.463ZM320.372 109.57L321.103 159.562L327.103 159.544L326.372 109.552L320.372 109.57ZM324.147 162.552L356.346 162.458L356.259 156.459L324.059 156.553L324.147 162.552ZM353.303 159.467L353.393 165.666L359.393 165.648L359.303 159.449L353.303 159.467ZM353.393 165.666C353.407 166.594 353.342 167.256 353.248 167.701C353.149 168.164 353.052 168.235 353.125 168.146L357.79 171.973C359.161 170.295 359.426 167.867 359.393 165.648L353.393 165.666ZM353.087 168.193C353.257 167.976 353.418 167.881 353.459 167.859C353.496 167.838 353.458 167.865 353.298 167.906C352.964 167.991 352.369 168.069 351.428 168.072L351.516 174.071C352.709 174.067 353.845 173.974 354.839 173.721C355.779 173.482 356.983 173.004 357.827 171.926L353.087 168.193ZM351.428 168.072L324.228 168.152L324.316 174.151L351.516 174.071L351.428 168.072Z" fill="black"/>
<path d="M399.899 98.0401L402.679 96.9417L401.906 95.0346L399.857 95.0406L399.899 98.0401ZM417.934 142.582L420.777 141.654L420.748 141.568L420.714 141.484L417.934 142.582ZM425.87 166.156L423.028 167.084L423.727 169.162L425.913 169.156L425.87 166.156ZM427.07 166.152L427.113 169.152L429.316 169.145L429.946 167.041L427.07 166.152ZM434.134 142.534L431.313 141.483L431.283 141.563L431.259 141.645L434.134 142.534ZM448.376 103.297L451.198 104.348L451.218 104.293L451.236 104.237L448.376 103.297ZM450.716 99.0904L452.701 101.362L452.701 101.362L450.716 99.0904ZM464.499 97.85L467.306 98.9415L468.863 94.8375L464.456 94.8505L464.499 97.85ZM433.655 179.132L430.849 178.04L430.647 178.571L430.655 179.14L433.655 179.132ZM433.279 236.926L435.232 239.225L435.335 239.137L435.43 239.041L433.279 236.926ZM418.493 237.97L415.493 237.978L415.536 240.978L418.536 240.969L418.493 237.97ZM417.655 179.179L420.655 179.17L420.647 178.594L420.427 178.06L417.655 179.179ZM386.376 103.479L383.582 104.541L383.593 104.569L383.605 104.598L386.376 103.479ZM386.516 99.2794L388.295 101.715L388.323 101.695L388.351 101.674L386.516 99.2794ZM397.12 99.1386L415.155 143.68L420.714 141.484L402.679 96.9417L397.12 99.1386ZM415.092 143.51L423.028 167.084L428.713 165.228L420.777 141.654L415.092 143.51ZM425.913 169.156L427.113 169.152L427.028 163.153L425.828 163.156L425.913 169.156ZM429.946 167.041L437.01 143.423L431.259 141.645L424.195 165.263L429.946 167.041ZM436.956 143.586L451.198 104.348L445.554 102.246L431.313 141.483L436.956 143.586ZM451.236 104.237C451.813 102.427 452.383 101.638 452.701 101.362L448.731 96.8188C447.205 98.1476 446.216 100.163 445.516 102.357L451.236 104.237ZM452.701 101.362C452.788 101.286 453.457 100.882 455.542 100.876L455.456 94.877C453.008 94.8842 450.488 95.2897 448.731 96.8188L452.701 101.362ZM455.542 100.876L464.542 100.85L464.456 94.8505L455.456 94.877L455.542 100.876ZM461.692 96.7584L430.849 178.04L436.462 180.223L467.306 98.9415L461.692 96.7584ZM430.655 179.14L431.413 232.332L437.413 232.315L436.655 179.123L430.655 179.14ZM431.413 232.332C431.427 233.31 431.348 233.986 431.24 234.425C431.13 234.873 431.03 234.91 431.127 234.811L435.43 239.041C437.118 237.324 437.447 234.684 437.413 232.315L431.413 232.332ZM431.325 234.628C431.413 234.553 431.344 234.652 430.883 234.758C430.439 234.861 429.778 234.937 428.85 234.939L428.935 240.938C431.155 240.932 433.578 240.624 435.232 239.225L431.325 234.628ZM428.85 234.939L418.45 234.97L418.536 240.969L428.935 240.938L428.85 234.939ZM421.493 237.961L420.655 179.17L414.656 179.188L415.493 237.978L421.493 237.961ZM420.427 178.06L389.147 102.361L383.605 104.598L414.884 180.297L420.427 178.06ZM389.17 102.418C389.005 101.994 388.904 101.657 388.847 101.4C388.789 101.139 388.786 101.003 388.787 100.965C388.788 100.932 388.79 101.04 388.707 101.217C388.616 101.411 388.469 101.589 388.295 101.715L384.738 96.8437C383.372 97.8337 382.836 99.3055 382.79 100.698C382.747 101.981 383.1 103.304 383.582 104.541L389.17 102.418ZM388.351 101.674C388.666 101.434 389.497 101.07 391.342 101.065L391.257 95.0659C388.835 95.0731 386.478 95.5188 384.682 96.8851L388.351 101.674ZM391.342 101.065L399.942 101.04L399.857 95.0406L391.257 95.0659L391.342 101.065Z" fill="black"/>
<path d="M482.639 236.788L480.17 238.459L480.339 238.706L480.552 238.915L482.639 236.788ZM481.665 226.192L478.884 225.027L478.655 225.59L478.665 226.201L481.665 226.192ZM529.35 109.264L532.13 110.428L533.834 106.251L529.3 106.264L529.35 109.264ZM482.55 109.402L479.55 109.411L479.599 112.41L482.599 112.401L482.55 109.402ZM483.179 99.001L480.843 97.0875L480.824 97.1106L480.806 97.1341L483.179 99.001ZM544.179 98.8214L541.71 100.493L541.879 100.739L542.092 100.949L544.179 98.8214ZM545.349 109.217L548.128 110.385L548.359 109.821L548.349 109.208L545.349 109.217ZM497.465 226.145L494.686 224.977L492.974 229.158L497.514 229.145L497.465 226.145ZM546.665 226L549.665 225.992L549.615 222.992L546.615 223.001L546.665 226ZM545.838 236.602L543.502 234.688L543.483 234.711L543.465 234.735L545.838 236.602ZM486.806 234.776C485.872 234.778 485.241 234.705 484.848 234.613C484.424 234.514 484.507 234.447 484.725 234.66L480.552 238.915C481.448 239.793 482.573 240.223 483.554 240.453C484.566 240.69 485.704 240.778 486.904 240.775L486.806 234.776ZM485.108 235.117C485.159 235.192 485.058 235.073 484.954 234.544C484.855 234.046 484.782 233.338 484.767 232.382L478.767 232.4C478.786 233.576 478.876 234.668 479.068 235.635C479.254 236.572 479.571 237.585 480.17 238.459L485.108 235.117ZM484.767 232.382L484.665 226.183L478.665 226.201L478.767 232.4L484.767 232.382ZM484.445 227.356L532.13 110.428L526.569 108.1L478.884 225.027L484.445 227.356ZM529.3 106.264L482.501 106.402L482.599 112.401L529.399 112.263L529.3 106.264ZM485.55 109.393L485.448 103.194L479.448 103.212L479.55 109.411L485.55 109.393ZM485.448 103.194C485.432 102.233 485.483 101.553 485.561 101.105C485.648 100.602 485.727 100.644 485.553 100.868L480.806 97.1341C480.108 98.026 479.805 99.1022 479.648 99.9999C479.483 100.952 479.429 102.04 479.448 103.212L485.448 103.194ZM485.515 100.914C485.341 101.128 485.244 101.077 485.586 100.978C485.923 100.88 486.504 100.791 487.409 100.788L487.31 94.7893C486.082 94.7929 484.899 94.9087 483.843 95.2149C482.792 95.5198 481.671 96.0719 480.843 97.0875L485.515 100.914ZM487.409 100.788L540.208 100.633L540.11 94.6339L487.31 94.7893L487.409 100.788ZM540.208 100.633C541.121 100.63 541.668 100.718 541.949 100.801C542.241 100.887 541.978 100.884 541.71 100.493L546.648 97.1503C545.833 95.9605 544.628 95.36 543.579 95.0501C542.521 94.7373 541.331 94.6303 540.11 94.6339L540.208 100.633ZM542.092 100.949C541.875 100.735 541.94 100.65 542.047 101.072C542.147 101.464 542.233 102.093 542.248 103.027L548.248 103.009C548.228 101.809 548.118 100.673 547.861 99.6656C547.613 98.6893 547.161 97.5724 546.265 96.6942L542.092 100.949ZM542.248 103.027L542.349 109.226L548.349 109.208L548.248 103.009L542.248 103.027ZM542.571 108.049L494.686 224.977L500.244 227.314L548.128 110.385L542.571 108.049ZM497.514 229.145L546.714 229L546.615 223.001L497.416 223.146L497.514 229.145ZM543.665 226.009L543.766 232.208L549.766 232.191L549.665 225.992L543.665 226.009ZM543.766 232.208C543.781 233.136 543.718 233.798 543.624 234.244C543.527 234.706 543.43 234.777 543.502 234.688L548.175 238.515C549.542 236.837 549.803 234.41 549.766 232.191L543.766 232.208ZM543.465 234.735C543.635 234.518 543.795 234.423 543.836 234.401C543.873 234.38 543.835 234.407 543.675 234.448C543.341 234.533 542.746 234.611 541.806 234.614L541.904 240.613C543.097 240.609 544.233 240.516 545.226 240.264C546.166 240.025 547.369 239.546 548.212 238.469L543.465 234.735ZM541.806 234.614L486.806 234.776L486.904 240.775L541.904 240.613L541.806 234.614Z" fill="black"/>
<path d="M190.423 261.011C187.223 261.02 185.113 260.527 184.094 259.53C183.271 258.332 182.829 256.134 182.768 252.934L182.591 243.636L208.691 243.559C214.891 243.541 218.767 242.229 220.317 239.625C221.868 237.021 222.584 232.619 222.466 226.42L219.782 85.4433C219.664 79.2443 218.78 74.8474 217.131 72.2525C215.481 69.6576 211.557 68.3693 205.357 68.3876L167.257 68.4997L170.923 261.068L146.923 261.139L143.08 59.2719C143.019 56.0724 143.479 53.9713 144.46 52.9685C145.637 51.7652 147.826 51.1588 151.026 51.1494L214.625 50.9621C225.025 50.9315 232.367 53.1097 236.651 57.4966C241.131 61.683 243.47 68.9753 243.668 79.3736L246.58 232.349C246.778 242.747 244.719 250.152 240.403 254.564C236.282 258.776 229.022 260.897 218.623 260.928L190.423 261.011Z" fill="#E0AF5B"/>
<path d="M184.094 259.53L181.63 261.201L181.799 261.447L182.013 261.657L184.094 259.53ZM182.591 243.636L182.534 240.636L179.534 240.645L179.591 243.645L182.591 243.636ZM220.317 239.625L222.902 241.19L222.902 241.19L220.317 239.625ZM217.131 72.2525L214.606 73.8321L214.606 73.8321L217.131 72.2525ZM167.257 68.4997L167.2 65.5002L164.2 65.509L164.257 68.5086L167.257 68.4997ZM170.923 261.068L170.98 264.068L173.98 264.059L173.923 261.059L170.923 261.068ZM146.923 261.139L143.923 261.148L143.98 264.147L146.98 264.138L146.923 261.139ZM144.46 52.9685L146.622 55.0832L146.622 55.0832L144.46 52.9685ZM236.651 57.4966L234.52 59.5741L234.569 59.6244L234.621 59.6724L236.651 57.4966ZM240.403 254.564L238.241 252.45L238.241 252.45L240.403 254.564ZM190.366 258.011C188.899 258.016 187.825 257.902 187.08 257.728C186.304 257.546 186.127 257.355 186.175 257.402L182.013 261.657C183.081 262.701 184.468 263.256 185.801 263.568C187.166 263.887 188.747 264.016 190.48 264.01L190.366 258.011ZM186.559 257.858C186.474 257.735 186.267 257.333 186.087 256.437C185.913 255.573 185.797 254.415 185.768 252.925L179.769 252.943C179.801 254.653 179.936 256.194 180.204 257.528C180.466 258.831 180.892 260.127 181.63 261.201L186.559 257.858ZM185.768 252.925L185.591 243.627L179.591 243.645L179.769 252.943L185.768 252.925ZM182.649 246.635L208.748 246.558L208.634 240.559L182.534 240.636L182.649 246.635ZM208.748 246.558C212.024 246.549 214.896 246.201 217.251 245.405C219.621 244.602 221.662 243.273 222.902 241.19L217.732 238.061C217.422 238.581 216.749 239.21 215.245 239.719C213.724 240.234 211.558 240.551 208.634 240.559L208.748 246.558ZM222.902 241.19C224.902 237.83 225.586 232.7 225.466 226.411L219.466 226.429C219.582 232.539 218.833 236.212 217.732 238.061L222.902 241.19ZM225.466 226.411L222.782 85.4344L216.782 85.4521L219.466 226.429L225.466 226.411ZM222.782 85.4344C222.662 79.1462 221.784 74.0208 219.656 70.6729L214.606 73.8321C215.777 75.6739 216.666 79.3423 216.782 85.4521L222.782 85.4344ZM219.656 70.6729C218.336 68.597 216.246 67.2799 213.845 66.4917C211.46 65.709 208.575 65.3784 205.299 65.3881L205.414 71.3871C208.338 71.3785 210.515 71.6829 212.056 72.1885C213.579 72.6887 214.276 73.3131 214.606 73.8321L219.656 70.6729ZM205.299 65.3881L167.2 65.5002L167.314 71.4992L205.414 71.3871L205.299 65.3881ZM164.257 68.5086L167.923 261.077L173.923 261.059L170.257 68.4909L164.257 68.5086ZM170.866 258.069L146.866 258.139L146.98 264.138L170.98 264.068L170.866 258.069ZM149.923 261.13L146.08 59.2631L140.08 59.2807L143.923 261.148L149.923 261.13ZM146.08 59.2631C146.052 57.7965 146.148 56.7247 146.311 55.9826C146.48 55.2094 146.668 55.0355 146.622 55.0832L142.298 50.8538C141.271 51.9043 140.738 53.2824 140.447 54.6103C140.15 55.9693 140.047 57.5478 140.08 59.2807L146.08 59.2631ZM146.622 55.0832C146.926 54.772 148.049 54.1578 151.083 54.1489L150.968 48.1499C147.602 48.1598 144.348 48.7583 142.298 50.8538L146.622 55.0832ZM151.083 54.1489L214.682 53.9617L214.568 47.9626L150.968 48.1499L151.083 54.1489ZM214.682 53.9617C224.81 53.9318 231.111 56.0823 234.52 59.5741L238.782 55.4191C233.624 50.1371 225.24 47.9312 214.568 47.9626L214.682 53.9617ZM234.621 59.6724C238.187 63.0046 240.475 69.2561 240.668 79.3824L246.668 79.3648C246.465 68.6945 244.075 60.3614 238.681 55.3208L234.621 59.6724ZM240.668 79.3824L243.58 232.357L249.58 232.34L246.668 79.3648L240.668 79.3824ZM243.58 232.357C243.772 242.465 241.733 248.88 238.241 252.45L242.564 256.679C247.704 251.425 249.783 243.029 249.58 232.34L243.58 232.357ZM238.241 252.45C234.964 255.799 228.722 257.898 218.565 257.928L218.68 263.927C229.323 263.896 237.601 261.753 242.564 256.679L238.241 252.45ZM218.565 257.928L190.366 258.011L190.48 264.01L218.68 263.927L218.565 257.928Z" fill="#E0AF5B"/>
</g>
<defs>
<clipPath id="clip0">
<rect width="605" height="369" fill="white"/>
</clipPath>
</defs>
</svg>
