<svg width="4582" height="732" viewBox="0 0 4582 732" fill="none" xmlns="http://www.w3.org/2000/svg">
<path d="M1716.22 364.932L1716.19 558.132L1849.89 557.162L1849.89 578.862C1849.89 586.329 1848.49 591.473 1845.69 594.293C1843.35 596.643 1838.45 597.845 1830.99 597.899L1660.19 599.138L1660.25 128.038C1660.25 120.571 1661.42 115.662 1663.75 113.312C1666.55 110.492 1671.69 109.055 1679.15 109.001L1849.95 107.762L1849.95 129.462C1849.95 136.929 1848.78 142.071 1846.44 144.888C1844.58 147.235 1839.91 148.435 1832.44 148.489L1716.25 149.332L1716.22 324.332L1828.92 323.515L1828.92 345.215C1828.92 352.681 1827.75 357.823 1825.42 360.64C1823.55 362.987 1818.88 364.187 1811.42 364.242L1716.22 364.932Z" fill="#FBFBF9"/>
<path d="M1716.22 364.932L1716.22 361.932L1713.22 361.953L1713.22 364.953L1716.22 364.932ZM1716.19 558.132L1713.19 558.153L1713.19 561.153L1716.19 561.132L1716.19 558.132ZM1849.89 557.162L1852.89 557.141L1852.89 554.141L1849.89 554.162L1849.89 557.162ZM1845.69 594.293L1843.56 592.187L1843.56 592.187L1845.69 594.293ZM1660.19 599.138L1657.19 599.159L1657.19 602.159L1660.19 602.138L1660.19 599.138ZM1663.75 113.312L1665.88 115.418L1665.88 115.418L1663.75 113.312ZM1849.95 107.762L1852.95 107.741L1852.95 104.741L1849.95 104.762L1849.95 107.762ZM1846.44 144.888L1844.14 142.984L1844.12 143.007L1844.1 143.031L1846.44 144.888ZM1716.25 149.332L1716.25 146.332L1713.25 146.353L1713.25 149.353L1716.25 149.332ZM1716.22 324.332L1713.22 324.353L1713.22 327.353L1716.22 327.332L1716.22 324.332ZM1828.92 323.515L1831.92 323.493L1831.92 320.493L1828.92 320.515L1828.92 323.515ZM1825.42 360.64L1823.11 358.736L1823.09 358.759L1823.07 358.783L1825.42 360.64ZM1713.22 364.953L1713.19 558.153L1719.19 558.11L1719.22 364.91L1713.22 364.953ZM1716.19 561.132L1849.89 560.162L1849.89 554.162L1716.19 555.132L1716.19 561.132ZM1846.89 557.184L1846.89 578.884L1852.89 578.841L1852.89 557.141L1846.89 557.184ZM1846.89 578.884C1846.89 586.185 1845.48 590.263 1843.56 592.187L1847.81 596.399C1851.5 592.682 1852.89 586.474 1852.89 578.841L1846.89 578.884ZM1843.56 592.187C1842.95 592.81 1841.74 593.511 1839.57 594.044C1837.42 594.569 1834.59 594.873 1830.99 594.899L1830.99 600.899C1834.85 600.871 1838.2 600.547 1840.95 599.871C1843.68 599.201 1846.09 598.126 1847.81 596.399L1843.56 592.187ZM1830.99 594.899L1660.19 596.138L1660.19 602.138L1830.99 600.899L1830.99 594.899ZM1663.19 599.116L1663.25 128.016L1657.25 128.059L1657.19 599.159L1663.19 599.116ZM1663.25 128.016C1663.25 124.416 1663.54 121.575 1664.05 119.43C1664.56 117.253 1665.26 116.042 1665.88 115.418L1661.63 111.206C1659.92 112.933 1658.86 115.351 1658.21 118.083C1657.55 120.846 1657.25 124.193 1657.25 128.059L1663.25 128.016ZM1665.88 115.418C1667.79 113.494 1671.85 112.053 1679.15 112.001L1679.15 106.001C1671.52 106.056 1665.32 107.49 1661.63 111.206L1665.88 115.418ZM1679.15 112.001L1849.95 110.762L1849.95 104.762L1679.15 106.001L1679.15 112.001ZM1846.95 107.784L1846.95 129.484L1852.95 129.441L1852.95 107.741L1846.95 107.784ZM1846.95 129.484C1846.95 136.865 1845.75 141.046 1844.14 142.984L1848.75 146.792C1851.81 143.096 1852.95 136.993 1852.95 129.441L1846.95 129.484ZM1844.1 143.031C1843.76 143.458 1842.87 144.114 1840.82 144.643C1838.82 145.158 1836.05 145.463 1832.45 145.489L1832.44 151.489C1836.3 151.461 1839.61 151.139 1842.27 150.453C1844.88 149.782 1847.26 148.665 1848.79 146.745L1844.1 143.031ZM1832.45 145.489L1716.25 146.332L1716.25 152.332L1832.44 151.489L1832.45 145.489ZM1713.25 149.353L1713.22 324.353L1719.22 324.31L1719.25 149.31L1713.25 149.353ZM1716.22 327.332L1828.92 326.515L1828.92 320.515L1716.23 321.332L1716.22 327.332ZM1825.92 323.536L1825.92 345.236L1831.92 345.193L1831.92 323.493L1825.92 323.536ZM1825.92 345.236C1825.92 352.617 1824.72 356.798 1823.11 358.736L1827.72 362.544C1830.78 358.848 1831.92 352.746 1831.92 345.193L1825.92 345.236ZM1823.07 358.783C1822.73 359.21 1821.85 359.867 1819.79 360.395C1817.79 360.911 1815.02 361.215 1811.42 361.242L1811.42 367.242C1815.28 367.214 1818.58 366.891 1821.24 366.206C1823.86 365.534 1826.23 364.417 1827.76 362.497L1823.07 358.783ZM1811.42 361.242L1716.22 361.932L1716.22 367.932L1811.42 367.242L1811.42 361.242Z" fill="white"/>
<path d="M2187.12 105.318L2248 260.976L2274.59 343.384L2278.79 343.353L2304.7 260.565L2356.51 122.99C2358.85 115.973 2361.65 111.053 2364.91 108.229C2368.18 105.405 2373.78 103.965 2381.71 103.907L2413.21 103.679L2301.18 388.691L2301.15 574.891C2301.15 582.824 2299.75 588.201 2296.95 591.021C2294.15 593.375 2289.02 594.579 2281.55 594.633L2245.15 594.897L2245.18 389.097L2139.52 124.563C2136.72 117.117 2136.95 112.215 2140.22 109.858C2143.95 107.031 2149.55 105.59 2157.02 105.536L2187.12 105.318Z" fill="#FBFBF9"/>
<path d="M2187.12 105.318L2189.91 104.207L2189.17 102.303L2187.12 102.318L2187.12 105.318ZM2248 260.976L2250.85 260.036L2250.82 259.95L2250.79 259.866L2248 260.976ZM2274.59 343.384L2271.73 344.324L2272.4 346.399L2274.58 346.384L2274.59 343.384ZM2278.79 343.353L2278.78 346.353L2280.99 346.337L2281.65 344.23L2278.79 343.353ZM2304.7 260.565L2301.89 259.526L2301.86 259.606L2301.83 259.689L2304.7 260.565ZM2356.51 122.99L2359.32 124.029L2359.34 123.974L2359.36 123.918L2356.51 122.99ZM2364.91 108.229L2366.87 110.493L2366.87 110.493L2364.91 108.229ZM2413.21 103.679L2416 104.758L2417.62 100.647L2413.21 100.679L2413.21 103.679ZM2301.18 388.691L2298.39 387.611L2298.18 388.143L2298.18 388.712L2301.18 388.691ZM2296.95 591.021L2298.87 593.312L2298.98 593.224L2299.07 593.127L2296.95 591.021ZM2245.15 594.897L2242.15 594.918L2242.15 597.918L2245.15 597.897L2245.15 594.897ZM2245.18 389.097L2248.18 389.075L2248.18 388.499L2247.97 387.966L2245.18 389.097ZM2139.52 124.563L2136.71 125.637L2136.72 125.665L2136.73 125.693L2139.52 124.563ZM2140.22 109.858L2141.96 112.286L2141.99 112.266L2142.02 112.245L2140.22 109.858ZM2184.32 106.428L2245.2 262.087L2250.79 259.866L2189.91 104.207L2184.32 106.428ZM2245.14 261.917L2271.73 344.324L2277.44 342.443L2250.85 260.036L2245.14 261.917ZM2274.58 346.384L2278.78 346.353L2278.79 340.353L2274.59 340.384L2274.58 346.384ZM2281.65 344.23L2307.56 261.442L2301.83 259.689L2275.92 342.476L2281.65 344.23ZM2307.5 261.605L2359.32 124.029L2353.71 121.951L2301.89 259.526L2307.5 261.605ZM2359.36 123.918C2361.63 117.093 2364.21 112.787 2366.87 110.493L2362.96 105.965C2359.08 109.318 2356.06 114.853 2353.67 122.062L2359.36 123.918ZM2366.87 110.493C2369.29 108.399 2373.96 106.963 2381.71 106.907L2381.71 100.907C2373.6 100.966 2367.07 102.411 2362.96 105.965L2366.87 110.493ZM2381.71 106.907L2413.21 106.679L2413.21 100.679L2381.71 100.907L2381.71 106.907ZM2410.42 102.599L2298.39 387.611L2303.97 389.77L2416 104.758L2410.42 102.599ZM2298.18 388.712L2298.15 574.912L2304.15 574.869L2304.18 388.669L2298.18 388.712ZM2298.15 574.912C2298.15 582.742 2296.72 587.014 2294.83 588.915L2299.07 593.127C2302.79 589.388 2304.15 582.906 2304.15 574.869L2298.15 574.912ZM2295.03 588.73C2293.11 590.35 2288.93 591.579 2281.55 591.633L2281.55 597.633C2289.1 597.578 2295.2 596.4 2298.87 593.312L2295.03 588.73ZM2281.55 591.633L2245.15 591.897L2245.15 597.897L2281.55 597.633L2281.55 591.633ZM2248.15 594.875L2248.18 389.075L2242.18 389.118L2242.15 594.918L2248.15 594.875ZM2247.97 387.966L2142.3 123.432L2136.73 125.693L2242.39 390.227L2247.97 387.966ZM2142.33 123.489C2140.99 119.937 2140.5 117.29 2140.59 115.423C2140.67 113.664 2141.24 112.806 2141.96 112.286L2138.48 107.429C2135.93 109.267 2134.75 112.038 2134.6 115.181C2134.45 118.215 2135.24 121.742 2136.71 125.637L2142.33 123.489ZM2142.02 112.245C2145 109.984 2149.84 108.588 2157.02 108.536L2157.02 102.536C2149.27 102.592 2142.9 104.077 2138.42 107.471L2142.02 112.245ZM2157.02 108.536L2187.12 108.318L2187.12 102.318L2157.02 102.536L2157.02 108.536Z" fill="white"/>
<path d="M2670.37 593.42C2662.91 593.474 2658 592.343 2655.66 590.026C2653.78 587.24 2652.83 582.113 2652.8 574.647L2652.71 552.947L2824.69 142.892L2660.9 144.079L2660.81 122.379C2660.78 114.913 2661.7 110.006 2663.55 107.659C2665.88 104.842 2670.77 103.407 2678.24 103.352L2863.03 102.013C2870.5 101.959 2875.17 103.325 2877.05 106.111C2879.39 108.428 2880.58 113.319 2880.61 120.786L2880.69 142.486L2708.01 552.546L2880.21 551.298L2880.29 572.998C2880.32 580.464 2879.18 585.606 2876.85 588.423C2875 590.77 2870.34 591.97 2862.87 592.024L2670.37 593.42Z" fill="#FBFBF9"/>
<path d="M2655.66 590.026L2653.17 591.708L2653.34 591.954L2653.55 592.163L2655.66 590.026ZM2652.71 552.947L2649.95 551.794L2649.71 552.358L2649.71 552.969L2652.71 552.947ZM2824.69 142.892L2827.46 144.044L2829.22 139.859L2824.68 139.892L2824.69 142.892ZM2660.9 144.079L2657.9 144.101L2657.91 147.101L2660.91 147.079L2660.9 144.079ZM2663.55 107.659L2661.24 105.755L2661.22 105.778L2661.2 105.802L2663.55 107.659ZM2877.05 106.111L2874.56 107.793L2874.72 108.039L2874.94 108.248L2877.05 106.111ZM2880.69 142.486L2883.46 143.642L2883.69 143.077L2883.69 142.464L2880.69 142.486ZM2708.01 552.546L2705.25 551.389L2703.48 555.579L2708.02 555.546L2708.01 552.546ZM2880.21 551.298L2883.21 551.276L2883.2 548.276L2880.2 548.298L2880.21 551.298ZM2876.85 588.423L2874.54 586.519L2874.52 586.542L2874.5 586.566L2876.85 588.423ZM2670.36 590.42C2666.76 590.446 2663.92 590.183 2661.78 589.688C2659.6 589.187 2658.39 588.504 2657.77 587.89L2653.55 592.163C2655.27 593.865 2657.68 594.906 2660.41 595.535C2663.17 596.172 2666.52 596.448 2670.39 596.42L2670.36 590.42ZM2658.15 588.344C2657.53 587.425 2656.93 585.893 2656.49 583.533C2656.05 581.205 2655.81 578.248 2655.8 574.625L2649.8 574.668C2649.81 578.512 2650.07 581.852 2650.59 584.65C2651.1 587.417 2651.91 589.841 2653.17 591.708L2658.15 588.344ZM2655.8 574.625L2655.71 552.925L2649.71 552.969L2649.8 574.668L2655.8 574.625ZM2655.48 554.099L2827.46 144.044L2821.93 141.739L2649.95 551.794L2655.48 554.099ZM2824.68 139.892L2660.89 141.079L2660.91 147.079L2824.71 145.892L2824.68 139.892ZM2663.9 144.057L2663.81 122.357L2657.81 122.401L2657.9 144.101L2663.9 144.057ZM2663.81 122.357C2663.8 118.73 2664.01 115.84 2664.42 113.639C2664.84 111.383 2665.42 110.13 2665.9 109.516L2661.2 105.802C2659.83 107.535 2659.02 109.908 2658.53 112.559C2658.02 115.265 2657.8 118.562 2657.81 122.401L2663.81 122.357ZM2665.87 109.563C2666.52 108.771 2667.71 107.962 2669.8 107.348C2671.89 106.736 2674.68 106.378 2678.25 106.352L2678.23 100.352C2674.33 100.381 2670.94 100.768 2668.13 101.591C2665.33 102.413 2662.91 103.73 2661.24 105.755L2665.87 109.563ZM2678.25 106.352L2863.04 105.013L2863.02 99.0128L2678.23 100.352L2678.25 106.352ZM2863.04 105.013C2866.62 104.987 2869.34 105.307 2871.29 105.877C2873.24 106.449 2874.15 107.189 2874.56 107.793L2879.54 104.429C2878.07 102.247 2875.7 100.911 2872.99 100.117C2870.26 99.3209 2866.91 98.9847 2863.02 99.0128L2863.04 105.013ZM2874.94 108.248C2875.56 108.863 2876.25 110.064 2876.78 112.233C2877.3 114.371 2877.59 117.207 2877.61 120.808L2883.61 120.764C2883.59 116.898 2883.28 113.555 2882.61 110.801C2881.95 108.079 2880.88 105.676 2879.16 103.975L2874.94 108.248ZM2877.61 120.808L2877.69 142.507L2883.69 142.464L2883.61 120.764L2877.61 120.808ZM2877.93 141.329L2705.25 551.389L2710.78 553.703L2883.46 143.642L2877.93 141.329ZM2708.02 555.546L2880.22 554.298L2880.2 548.298L2708 549.546L2708.02 555.546ZM2877.21 551.319L2877.29 573.019L2883.29 572.976L2883.21 551.276L2877.21 551.319ZM2877.29 573.019C2877.32 580.4 2876.14 584.581 2874.54 586.519L2879.17 590.327C2882.21 586.631 2883.32 580.528 2883.29 572.976L2877.29 573.019ZM2874.5 586.566C2874.17 586.993 2873.28 587.649 2871.23 588.178C2869.23 588.693 2866.46 588.998 2862.86 589.024L2862.88 595.024C2866.74 594.996 2870.04 594.674 2872.7 593.988C2875.31 593.317 2877.69 592.199 2879.2 590.28L2874.5 586.566ZM2862.86 589.024L2670.36 590.42L2670.39 596.42L2862.88 595.024L2862.86 589.024Z" fill="white"/>
<path d="M1208.62 597.99C1201.15 598.044 1196.24 596.913 1193.88 594.597C1191.99 591.811 1191 586.684 1190.93 579.218L1190.72 557.519L1251.61 557.078C1266.08 556.973 1275.15 553.874 1278.82 547.78C1282.5 541.687 1284.26 531.407 1284.12 516.941L1280.85 187.957C1280.7 173.491 1278.74 163.239 1274.94 157.199C1271.15 151.16 1262.02 148.193 1247.55 148.298L1158.65 148.942L1163.12 598.32L1107.12 598.726L1102.44 127.649C1102.37 120.183 1103.48 115.275 1105.79 112.925C1108.57 110.104 1113.69 108.667 1121.15 108.613L1269.55 107.537C1293.81 107.361 1310.9 112.371 1320.8 122.566C1331.16 132.291 1336.47 149.286 1336.71 173.552L1340.25 530.534C1340.49 554.8 1335.53 572.103 1325.37 582.444C1315.67 592.314 1298.68 597.337 1274.42 597.513L1208.62 597.99Z" fill="white"/>
<path d="M1193.88 594.597L1191.4 596.279L1191.57 596.525L1191.78 596.734L1193.88 594.597ZM1190.72 557.519L1190.69 554.519L1187.69 554.541L1187.72 557.541L1190.72 557.519ZM1278.82 547.78L1281.39 549.334L1281.39 549.334L1278.82 547.78ZM1274.94 157.199L1272.4 158.79L1272.4 158.79L1274.94 157.199ZM1158.65 148.942L1158.62 145.942L1155.62 145.964L1155.65 148.964L1158.65 148.942ZM1163.12 598.32L1163.15 601.32L1166.15 601.298L1166.12 598.298L1163.12 598.32ZM1107.12 598.726L1104.12 598.748L1104.15 601.748L1107.15 601.726L1107.12 598.726ZM1105.79 112.925L1107.94 115.03L1107.94 115.03L1105.79 112.925ZM1320.8 122.566L1318.65 124.653L1318.7 124.703L1318.75 124.751L1320.8 122.566ZM1325.37 582.444L1323.23 580.338L1323.23 580.338L1325.37 582.444ZM1208.59 594.99C1204.99 595.016 1202.15 594.754 1200 594.259C1197.82 593.758 1196.61 593.075 1195.98 592.46L1191.78 596.734C1193.51 598.435 1195.94 599.476 1198.67 600.106C1201.43 600.743 1204.78 601.018 1208.65 600.99L1208.59 594.99ZM1196.36 592.915C1195.74 591.995 1195.12 590.464 1194.67 588.104C1194.22 585.776 1193.97 582.819 1193.93 579.196L1187.93 579.24C1187.97 583.083 1188.24 586.423 1188.78 589.22C1189.31 591.988 1190.13 594.412 1191.4 596.279L1196.36 592.915ZM1193.93 579.196L1193.71 557.497L1187.72 557.541L1187.93 579.24L1193.93 579.196ZM1190.74 560.519L1251.64 560.077L1251.58 554.078L1190.69 554.519L1190.74 560.519ZM1251.64 560.077C1259.05 560.024 1265.29 559.206 1270.24 557.514C1275.21 555.816 1279.08 553.164 1281.39 549.334L1276.25 546.226C1274.89 548.49 1272.39 550.434 1268.29 551.836C1264.17 553.242 1258.64 554.027 1251.58 554.078L1251.64 560.077ZM1281.39 549.334C1285.52 542.483 1287.26 531.474 1287.12 516.919L1281.12 516.963C1281.26 531.34 1279.47 540.891 1276.25 546.226L1281.39 549.334ZM1287.12 516.919L1283.85 187.935L1277.85 187.979L1281.12 516.963L1287.12 516.919ZM1283.85 187.935C1283.7 173.38 1281.75 162.399 1277.48 155.609L1272.4 158.79C1275.72 164.078 1277.7 173.602 1277.85 187.979L1283.85 187.935ZM1277.48 155.609C1275.1 151.812 1271.17 149.217 1266.17 147.592C1261.18 145.971 1254.93 145.244 1247.52 145.298L1247.58 151.298C1254.64 151.246 1260.18 151.95 1264.33 153.297C1268.46 154.639 1270.99 156.547 1272.4 158.79L1277.48 155.609ZM1247.52 145.298L1158.62 145.942L1158.68 151.942L1247.58 151.298L1247.52 145.298ZM1155.65 148.964L1160.12 598.342L1166.12 598.298L1161.65 148.92L1155.65 148.964ZM1163.09 595.32L1107.09 595.726L1107.15 601.726L1163.15 601.32L1163.09 595.32ZM1110.12 598.704L1105.44 127.627L1099.44 127.671L1104.12 598.748L1110.12 598.704ZM1105.44 127.627C1105.4 124.027 1105.66 121.187 1106.15 119.042C1106.64 116.865 1107.32 115.654 1107.94 115.03L1103.65 110.819C1101.95 112.545 1100.92 114.963 1100.3 117.695C1099.67 120.458 1099.4 123.805 1099.44 127.671L1105.44 127.627ZM1107.94 115.03C1109.83 113.106 1113.88 111.666 1121.18 111.613L1121.12 105.613C1113.49 105.669 1107.3 107.102 1103.65 110.819L1107.94 115.03ZM1121.18 111.613L1269.58 110.537L1269.52 104.537L1121.12 105.613L1121.18 111.613ZM1269.58 110.537C1293.57 110.363 1309.61 115.35 1318.65 124.653L1322.95 120.479C1312.18 109.392 1294.06 104.36 1269.52 104.537L1269.58 110.537ZM1318.75 124.751C1328.21 133.626 1333.47 149.58 1333.71 173.574L1339.71 173.53C1339.46 148.993 1334.12 130.957 1322.85 120.381L1318.75 124.751ZM1333.71 173.574L1337.25 530.556L1343.25 530.513L1339.71 173.53L1333.71 173.574ZM1337.25 530.556C1337.49 554.53 1332.56 570.843 1323.23 580.338L1327.51 584.549C1338.51 573.363 1343.5 555.069 1343.25 530.513L1337.25 530.556ZM1323.23 580.338C1314.38 589.342 1298.41 594.339 1274.39 594.513L1274.45 600.513C1298.96 600.335 1316.96 595.286 1327.51 584.549L1323.23 580.338ZM1274.39 594.513L1208.59 594.99L1208.65 600.99L1274.45 600.513L1274.39 594.513Z" fill="white"/>
<path d="M3026.16 588.134L2983.46 588.444C2975.99 588.498 2970.85 587.369 2968.03 585.056C2965.68 582.273 2964.48 577.148 2964.42 569.681L2964.15 532.582L3006.85 532.273C3014.32 532.219 3019.23 533.583 3021.58 536.366C3024.4 538.679 3025.83 543.569 3025.89 551.035L3026.16 588.134ZM3268.46 230.768C3275.93 230.714 3280.61 232.08 3282.49 234.867C3284.84 237.183 3286.05 242.075 3286.1 249.541L3286.26 271.241L3200.16 271.865C3185.69 271.97 3176.62 275.069 3172.93 281.162C3169.24 287.256 3167.44 297.536 3167.55 312.002L3168.96 506.597C3169.07 521.063 3171.01 531.316 3174.78 537.356C3178.56 543.395 3187.68 546.362 3202.15 546.257L3288.25 545.633L3288.4 567.333C3288.46 574.799 3287.33 579.941 3285.02 582.758C3283.17 585.105 3278.51 586.305 3271.04 586.359L3180.04 587.019C3155.78 587.195 3138.48 582.42 3128.14 572.695C3118.26 562.499 3113.24 545.269 3113.06 521.003L3111.45 298.408C3111.27 274.142 3116.05 257.074 3125.78 247.203C3135.97 236.862 3153.2 231.604 3177.47 231.428L3268.46 230.768ZM3420.41 95.2634L3423.83 566.351C3423.88 573.818 3422.52 578.961 3419.74 581.781C3417.42 584.131 3412.53 585.333 3405.07 585.388L3367.97 585.656L3364.55 114.569C3364.5 107.102 3365.63 102.194 3367.94 99.8439C3370.72 97.0236 3375.85 95.5865 3383.31 95.5323L3420.41 95.2634ZM3692.55 583.303L3690.11 246.612C3690.06 239.146 3691.19 234.238 3693.5 231.887C3696.28 229.067 3701.41 227.63 3708.87 227.576L3745.97 227.307L3748.41 563.998C3748.47 571.465 3747.1 576.608 3744.32 579.428C3742.01 581.778 3737.12 582.98 3729.65 583.035L3692.55 583.303ZM3515.11 247.881C3515.06 240.414 3516.19 235.506 3518.51 233.156C3521.29 230.336 3526.41 228.899 3533.88 228.844L3570.98 228.575L3572.97 503.668C3573.07 518.135 3575.02 528.387 3578.79 534.427C3582.57 540.466 3591.69 543.434 3606.16 543.329L3664.26 542.908L3664.41 564.607C3664.47 572.073 3663.34 577.215 3661.03 580.032C3659.18 582.379 3654.52 583.579 3647.05 583.633L3584.05 584.09C3559.79 584.266 3542.49 579.491 3532.15 569.766C3522.27 559.571 3517.25 542.34 3517.07 518.074L3515.11 247.881ZM4002.15 225.45C4026.42 225.274 4043.49 230.284 4053.36 240.479C4063.7 250.204 4068.96 267.2 4069.13 291.466L4070.75 514.06C4070.92 538.326 4065.92 555.63 4055.72 565.97C4045.99 575.841 4029 580.864 4004.73 581.04L3938.23 581.522C3924.7 581.621 3914.88 578.425 3908.76 571.936C3903.11 564.977 3898.84 554.741 3895.94 541.228L3896.1 562.927C3896.15 570.394 3894.79 575.537 3892.01 578.357C3889.69 580.708 3884.8 581.91 3877.33 581.964L3840.24 582.233L3836.82 111.145C3836.77 103.679 3837.9 98.7705 3840.21 96.4203C3842.99 93.6 3848.12 92.1628 3855.58 92.1087L3892.68 91.8398L3895.94 541.228L3982.04 540.604C3996.5 540.499 4005.58 537.4 4009.27 531.306C4012.96 525.213 4014.75 514.933 4014.65 500.466L4013.24 305.872C4013.13 291.405 4011.19 281.152 4007.41 275.113C4003.64 269.073 3994.51 266.106 3980.05 266.211L3921.95 266.632L3921.79 244.933C3921.74 237.466 3922.64 232.56 3924.49 230.213C3926.8 227.396 3931.69 225.961 3939.16 225.906L4002.15 225.45Z" fill="white"/>
</svg>
