<svg width="472" height="273" viewBox="0 0 472 273" fill="none" xmlns="http://www.w3.org/2000/svg">
<g clip-path="url(#clip0)">
<path d="M202.101 162.889L201.951 218.089L240.15 218.034L240.134 224.234C240.128 226.367 239.724 227.835 238.921 228.636C238.253 229.303 236.852 229.639 234.719 229.642L185.919 229.712L186.287 95.1128C186.293 92.9795 186.63 91.579 187.298 90.9114C188.101 90.1102 189.568 89.7081 191.702 89.705L240.502 89.6348L240.485 95.8348C240.479 97.9681 240.141 99.4352 239.473 100.236C238.937 100.904 237.603 101.239 235.47 101.242L202.27 101.29L202.133 151.289L234.333 151.243L234.316 157.443C234.31 159.576 233.973 161.044 233.304 161.844C232.769 162.512 231.435 162.847 229.301 162.85L202.101 162.889Z" fill="url(#paint0_linear)"/>
<path d="M274.144 90.2903L291.422 134.865L298.958 158.454L300.158 158.452L307.622 134.842L322.529 95.6206C323.202 93.6197 324.005 92.2186 324.941 91.4172C325.876 90.6159 327.477 90.2136 329.744 90.2103L338.744 90.1974L306.522 171.443L306.377 224.643C306.37 226.909 305.966 228.443 305.164 229.244C304.362 229.912 302.895 230.248 300.761 230.251L290.361 230.266L290.522 171.466L260.529 95.7099C259.735 93.5777 259.806 92.1776 260.741 91.5096C261.81 90.7081 263.411 90.3058 265.544 90.3027L274.144 90.2903Z" fill="url(#paint1_linear)"/>
<path d="M360.265 230.92C358.131 230.923 356.731 230.592 356.065 229.926C355.532 229.127 355.265 227.661 355.266 225.528L355.267 219.328L404.894 102.456L358.094 102.524L358.095 96.3236C358.096 94.1903 358.363 92.7899 358.896 92.1225C359.563 91.3215 360.963 90.9195 363.097 90.9164L415.897 90.8404C418.03 90.8373 419.363 91.2354 419.896 92.0346C420.563 92.7003 420.896 94.0999 420.895 96.2332L420.894 102.433L371.067 219.305L420.267 219.234L420.266 225.434C420.265 227.567 419.932 229.034 419.265 229.835C418.731 230.503 417.398 230.838 415.265 230.841L360.265 230.92Z" fill="url(#paint2_linear)"/>
<path d="M101.268 234.293C98.0679 234.298 95.9662 233.801 94.9627 232.802C94.1586 231.603 93.751 229.404 93.74 226.204L93.708 216.904L119.808 216.866C126.008 216.857 129.904 215.552 131.495 212.949C133.086 210.347 133.87 205.946 133.849 199.746L133.364 58.7468C133.343 52.5468 132.527 48.148 130.918 45.5503C129.31 42.9526 125.405 41.6582 119.205 41.6672L81.1051 41.722L81.7679 234.321L57.7679 234.356L57.0731 32.4566C57.0621 29.2566 57.5549 27.1559 58.5514 26.1545C59.7473 24.9528 61.9452 24.3496 65.1452 24.345L128.745 24.2534C139.145 24.2385 146.453 26.4279 150.668 30.8219C155.082 35.0155 157.307 42.3123 157.343 52.7123L157.87 205.711C157.906 216.111 155.731 223.515 151.346 227.921C147.161 232.127 139.868 234.237 129.468 234.252L101.268 234.293Z" fill="url(#paint3_linear)"/>
</g>
<defs>
<linearGradient id="paint0_linear" x1="210.815" y1="72.6777" x2="211.081" y2="257.002" gradientUnits="userSpaceOnUse">
<stop offset="0.348958" stop-color="#2C3822" stop-opacity="0.32"/>
<stop offset="1" stop-opacity="0.72"/>
</linearGradient>
<linearGradient id="paint1_linear" x1="298.983" y1="73.2548" x2="299.248" y2="257.579" gradientUnits="userSpaceOnUse">
<stop offset="0.348958" stop-color="#2C3822" stop-opacity="0.32"/>
<stop offset="1" stop-opacity="0.72"/>
</linearGradient>
<linearGradient id="paint2_linear" x1="388.603" y1="140.88" x2="388.674" y2="189.985" gradientUnits="userSpaceOnUse">
<stop offset="0.348958" stop-color="#2C3822" stop-opacity="0.32"/>
<stop offset="1" stop-opacity="0.72"/>
</linearGradient>
<linearGradient id="paint3_linear" x1="107.151" y1="131.285" x2="107.167" y2="142.201" gradientUnits="userSpaceOnUse">
<stop offset="0.348958" stop-color="#2C3822" stop-opacity="0.32"/>
<stop offset="1" stop-opacity="0.72"/>
</linearGradient>
<clipPath id="clip0">
<rect width="472" height="273" fill="white"/>
</clipPath>
</defs>
</svg>
