<svg width="666" height="361" viewBox="0 0 666 361" fill="none" xmlns="http://www.w3.org/2000/svg">
<g clip-path="url(#clip0)">
<path d="M267.088 179.381L267.088 176.381L264.088 176.403L264.088 179.403L267.088 179.381ZM267.08 234.581L264.08 234.602L264.08 237.602L267.08 237.581L267.08 234.581ZM305.279 234.311L308.279 234.29L308.28 231.29L305.28 231.311L305.279 234.311ZM304.078 244.919L301.957 242.813L301.957 242.813L304.078 244.919ZM251.079 246.294L248.079 246.316L248.079 249.316L251.079 249.294L251.079 246.294ZM252.098 107.488L254.219 109.594L254.219 109.594L252.098 107.488ZM305.297 105.911L308.297 105.89L308.297 102.89L305.297 102.911L305.297 105.911ZM304.295 116.518L301.991 114.614L301.972 114.637L301.953 114.661L304.295 116.518ZM267.096 117.781L267.097 114.781L264.097 114.803L264.096 117.803L267.096 117.781ZM267.089 167.781L264.089 167.803L264.089 170.803L267.089 170.781L267.089 167.781ZM299.289 167.554L302.288 167.532L302.289 164.532L299.289 164.554L299.289 167.554ZM298.287 178.161L295.983 176.256L295.964 176.28L295.945 176.303L298.287 178.161ZM264.088 179.403L264.08 234.602L270.08 234.56L270.088 179.36L264.088 179.403ZM267.08 237.581L305.279 237.311L305.28 231.311L267.081 231.581L267.08 237.581ZM302.279 234.332L302.279 240.532L308.278 240.49L308.279 234.29L302.279 234.332ZM302.279 240.532C302.278 241.43 302.192 242.047 302.084 242.444C301.976 242.841 301.882 242.888 301.957 242.813L306.199 247.026C307.889 245.324 308.278 242.789 308.278 240.49L302.279 240.532ZM301.957 242.813C302.171 242.597 302.256 242.663 301.833 242.767C301.442 242.863 300.812 242.943 299.878 242.949L299.878 248.949C301.077 248.941 302.214 248.841 303.222 248.594C304.2 248.354 305.318 247.913 306.199 247.026L301.957 242.813ZM299.878 242.949L251.08 243.294L251.079 249.294L299.878 248.949L299.878 242.949ZM254.079 246.273L254.097 111.673L248.097 111.716L248.079 246.316L254.079 246.273ZM254.097 111.673C254.097 110.74 254.173 110.109 254.266 109.717C254.367 109.294 254.433 109.378 254.219 109.594L249.977 105.381C249.096 106.269 248.662 107.39 248.429 108.369C248.189 109.379 248.098 110.516 248.097 111.716L254.097 111.673ZM254.219 109.594C254.144 109.669 254.191 109.575 254.587 109.464C254.983 109.354 255.599 109.263 256.498 109.256L256.498 103.257C254.199 103.273 251.667 103.68 249.977 105.381L254.219 109.594ZM256.498 109.256L305.296 108.911L305.297 102.911L256.498 103.257L256.498 109.256ZM302.297 105.933L302.296 112.132L308.296 112.09L308.297 105.89L302.297 105.933ZM302.296 112.132C302.296 113.06 302.222 113.723 302.12 114.169C302.015 114.632 301.917 114.704 301.991 114.614L306.6 118.423C307.995 116.739 308.296 114.309 308.296 112.09L302.296 112.132ZM301.953 114.661C302.126 114.443 302.288 114.348 302.329 114.325C302.367 114.305 302.329 114.332 302.168 114.373C301.832 114.459 301.236 114.54 300.296 114.547L300.295 120.547C301.488 120.538 302.625 120.44 303.622 120.184C304.567 119.941 305.777 119.457 306.638 118.376L301.953 114.661ZM300.296 114.547L267.097 114.781L267.096 120.781L300.295 120.547L300.296 114.547ZM264.096 117.803L264.089 167.803L270.089 167.76L270.096 117.76L264.096 117.803ZM267.089 170.781L299.288 170.554L299.289 164.554L267.09 164.781L267.089 170.781ZM296.289 167.575L296.288 173.775L302.288 173.732L302.288 167.532L296.289 167.575ZM296.288 173.775C296.288 174.703 296.213 175.365 296.112 175.811C296.007 176.274 295.909 176.346 295.983 176.256L300.592 180.065C301.987 178.381 302.287 175.952 302.288 173.732L296.288 173.775ZM295.945 176.303C296.118 176.086 296.28 175.99 296.321 175.968C296.359 175.947 296.32 175.974 296.16 176.015C295.824 176.102 295.228 176.182 294.288 176.189L294.287 182.189C295.48 182.18 296.617 182.082 297.614 181.826C298.559 181.583 299.769 181.099 300.629 180.018L295.945 176.303ZM294.288 176.189L267.088 176.381L267.087 182.381L294.287 182.189L294.288 176.189Z" fill="black"/>
<path d="M358.398 105.429L361.192 104.319L360.448 102.414L358.398 102.429L358.398 105.429ZM375.791 149.905L378.647 148.966L378.619 148.88L378.586 148.795L375.791 149.905ZM383.388 173.452L380.532 174.391L381.202 176.467L383.387 176.452L383.388 173.452ZM384.588 173.443L384.587 176.443L386.79 176.428L387.45 174.32L384.588 173.443ZM391.991 149.791L389.184 148.751L389.154 148.832L389.128 148.914L391.991 149.791ZM406.796 110.486L409.602 111.526L409.623 111.471L409.641 111.415L406.796 110.486ZM409.196 106.269L411.148 108.533L411.148 108.533L409.196 106.269ZM422.996 104.972L425.787 106.052L427.403 101.941L422.996 101.972L422.996 104.972ZM390.986 186.398L388.195 185.318L387.986 185.849L387.986 186.419L390.986 186.398ZM389.778 244.206L391.698 246.497L391.803 246.409L391.899 246.312L389.778 244.206ZM374.978 245.311L371.978 245.332L371.978 248.332L374.978 248.311L374.978 245.311ZM374.986 186.511L377.986 186.49L377.986 185.914L377.773 185.381L374.986 186.511ZM344.797 110.925L341.988 111.998L341.999 112.027L342.01 112.055L344.797 110.925ZM344.998 106.723L346.741 109.152L346.769 109.132L346.797 109.111L344.998 106.723ZM355.603 106.539L372.996 151.016L378.586 148.795L361.192 104.319L355.603 106.539ZM372.935 150.845L380.532 174.391L386.243 172.512L378.647 148.966L372.935 150.845ZM383.387 176.452L384.587 176.443L384.588 170.443L383.388 170.452L383.387 176.452ZM387.45 174.32L394.853 150.668L389.128 148.914L381.725 172.566L387.45 174.32ZM394.797 150.831L409.602 111.526L403.989 109.446L389.184 148.751L394.797 150.831ZM409.641 111.415C410.244 109.602 410.827 108.811 411.148 108.533L407.244 104.005C405.699 105.341 404.681 107.361 403.95 109.558L409.641 111.415ZM411.148 108.533C411.237 108.457 411.911 108.05 413.996 108.035L413.997 102.035C411.548 102.053 409.022 102.469 407.244 104.005L411.148 108.533ZM413.996 108.035L422.995 107.972L422.996 101.972L413.997 102.035L413.996 108.035ZM420.205 103.891L388.195 185.318L393.777 187.478L425.787 106.052L420.205 103.891ZM387.986 186.419L387.979 239.619L393.978 239.576L393.986 186.377L387.986 186.419ZM387.979 239.619C387.978 240.596 387.89 241.274 387.775 241.713C387.659 242.161 387.558 242.199 387.657 242.1L391.899 246.312C393.612 244.588 393.978 241.947 393.978 239.576L387.979 239.619ZM387.858 241.915C387.947 241.84 387.876 241.939 387.413 242.048C386.968 242.152 386.306 242.231 385.378 242.237L385.377 248.237C387.597 248.222 390.024 247.904 391.698 246.497L387.858 241.915ZM385.378 242.237L374.979 242.311L374.978 248.311L385.377 248.237L385.378 242.237ZM377.978 245.29L377.986 186.49L371.986 186.532L371.978 245.332L377.978 245.29ZM377.773 185.381L347.584 109.795L342.01 112.055L372.199 187.641L377.773 185.381ZM347.606 109.852C347.447 109.428 347.351 109.092 347.297 108.835C347.243 108.574 347.242 108.438 347.244 108.4C347.246 108.367 347.246 108.475 347.16 108.652C347.067 108.847 346.917 109.025 346.741 109.152L343.254 104.295C341.874 105.29 341.317 106.765 341.251 108.157C341.19 109.441 341.524 110.763 341.988 111.998L347.606 109.852ZM346.797 109.111C347.116 108.87 347.953 108.503 349.797 108.49L349.798 102.49C347.376 102.507 345.013 102.962 343.198 104.336L346.797 109.111ZM349.797 108.49L358.397 108.429L358.398 102.429L349.798 102.49L349.797 108.49Z" fill="black"/>
<path d="M464.01 248.483L461.521 250.164L461.686 250.41L461.897 250.619L464.01 248.483ZM463.167 237.888L460.401 236.735L460.165 237.299L460.167 237.91L463.167 237.888ZM512.293 120.739L515.059 121.892L516.814 117.706L512.281 117.739L512.293 120.739ZM465.494 121.07L462.494 121.091L462.506 124.091L465.506 124.07L465.494 121.07ZM466.252 110.664L463.939 108.76L463.92 108.783L463.902 108.807L466.252 110.664ZM527.25 110.233L524.761 111.914L524.927 112.16L525.138 112.369L527.25 110.233ZM528.292 120.625L531.057 121.782L531.295 121.217L531.292 120.604L528.292 120.625ZM478.967 237.777L476.202 236.619L474.439 240.809L478.979 240.776L478.967 237.777ZM528.165 237.428L531.165 237.407L531.153 234.407L528.153 234.429L528.165 237.428ZM527.208 248.035L524.896 246.131L524.877 246.154L524.858 246.178L527.208 248.035ZM468.202 246.453C467.268 246.459 466.638 246.389 466.246 246.298C465.823 246.201 465.907 246.133 466.123 246.346L461.897 250.619C462.782 251.494 463.902 251.919 464.88 252.145C465.889 252.378 467.026 252.461 468.226 252.453L468.202 246.453ZM466.499 246.801C466.55 246.877 466.451 246.758 466.352 246.229C466.26 245.731 466.196 245.024 466.192 244.067L460.192 244.109C460.197 245.286 460.274 246.378 460.454 247.344C460.628 248.281 460.933 249.292 461.521 250.164L466.499 246.801ZM466.192 244.067L466.167 237.867L460.167 237.91L460.192 244.109L466.192 244.067ZM465.933 239.041L515.059 121.892L509.527 119.585L460.401 236.735L465.933 239.041ZM512.281 117.739L465.482 118.07L465.506 124.07L512.305 123.738L512.281 117.739ZM468.494 121.048L468.469 114.848L462.469 114.891L462.494 121.091L468.494 121.048ZM468.469 114.848C468.465 113.887 468.524 113.208 468.607 112.759C468.701 112.255 468.78 112.297 468.602 112.522L463.902 108.807C463.193 109.702 462.876 110.779 462.709 111.678C462.532 112.631 462.464 113.719 462.469 114.891L468.469 114.848ZM468.564 112.568C468.387 112.783 468.291 112.732 468.634 112.632C468.973 112.533 469.554 112.441 470.459 112.434L470.435 106.434C469.206 106.443 468.022 106.564 466.962 106.874C465.907 107.184 464.78 107.741 463.939 108.76L468.564 112.568ZM470.459 112.434L523.258 112.061L523.233 106.061L470.435 106.434L470.459 112.434ZM523.258 112.061C524.17 112.054 524.716 112.14 524.996 112.222C525.287 112.307 525.024 112.305 524.761 111.914L529.74 108.551C528.94 107.364 527.742 106.768 526.697 106.463C525.643 106.154 524.454 106.052 523.233 106.061L523.258 112.061ZM525.138 112.369C524.923 112.156 524.989 112.071 525.091 112.493C525.186 112.884 525.264 113.513 525.267 114.447L531.267 114.404C531.262 113.204 531.166 112.068 530.922 111.062C530.686 110.086 530.248 108.971 529.363 108.096L525.138 112.369ZM525.267 114.447L525.293 120.647L531.292 120.604L531.267 114.404L525.267 114.447ZM525.528 119.468L476.202 236.619L481.731 238.934L531.057 121.782L525.528 119.468ZM478.979 240.776L528.178 240.428L528.153 234.429L478.955 234.777L478.979 240.776ZM525.166 237.45L525.191 243.65L531.19 243.607L531.165 237.407L525.166 237.45ZM525.191 243.65C525.194 244.577 525.123 245.24 525.023 245.686C524.92 246.149 524.822 246.221 524.896 246.131L529.521 249.94C530.909 248.256 531.199 245.827 531.19 243.607L525.191 243.65ZM524.858 246.178C525.03 245.96 525.192 245.865 525.233 245.842C525.271 245.822 525.232 245.849 525.072 245.89C524.737 245.976 524.141 246.057 523.2 246.064L523.225 252.064C524.418 252.055 525.554 251.957 526.551 251.701C527.494 251.458 528.703 250.974 529.559 249.893L524.858 246.178ZM523.2 246.064L468.202 246.453L468.226 252.453L523.225 252.064L523.2 246.064Z" fill="black"/>
<path d="M165.591 246.972C162.391 246.994 160.286 246.509 159.276 245.516C158.464 244.322 158.042 242.125 158.009 238.925L157.914 229.626L184.014 229.441C190.214 229.397 194.1 228.07 195.674 225.458C197.247 222.847 198.002 218.442 197.939 212.242L196.504 71.2493C196.441 65.0496 195.596 60.6555 193.969 58.067C192.343 55.4784 188.43 54.2061 182.23 54.2499L144.131 54.5195L146.092 247.11L122.092 247.279L120.037 45.3897C120.004 42.1899 120.483 40.0865 121.473 39.0794C122.66 37.871 124.854 37.2555 128.054 37.2328L191.653 36.7829C202.052 36.7093 209.375 38.8576 213.619 43.2276C218.062 47.3963 220.336 54.6804 220.442 65.0798L222 218.072C222.106 228.472 219.981 235.887 215.626 240.318C211.469 244.547 204.19 246.699 193.791 246.772L165.591 246.972Z" fill="#4A27B7"/>
<path d="M159.276 245.516L156.797 247.198L156.964 247.444L157.177 247.653L159.276 245.516ZM157.914 229.626L157.884 226.626L154.884 226.647L154.914 229.647L157.914 229.626ZM195.674 225.458L198.245 227.013L198.245 227.013L195.674 225.458ZM193.969 58.067L191.431 59.6573L191.431 59.6573L193.969 58.067ZM144.131 54.5195L144.1 51.5196L141.101 51.5408L141.131 54.5407L144.131 54.5195ZM146.092 247.11L146.122 250.11L149.122 250.088L149.092 247.088L146.092 247.11ZM122.092 247.279L119.092 247.301L119.123 250.301L122.123 250.279L122.092 247.279ZM121.473 39.0794L123.616 41.1856L123.616 41.1856L121.473 39.0794ZM213.619 43.2276L211.47 45.3143L211.519 45.3644L211.57 45.4123L213.619 43.2276ZM215.626 240.318L213.483 238.211L213.483 238.211L215.626 240.318ZM165.561 243.972C164.094 243.982 163.021 243.873 162.278 243.702C161.503 243.523 161.328 243.333 161.376 243.38L157.177 247.653C158.235 248.693 159.617 249.241 160.947 249.548C162.309 249.862 163.889 249.984 165.622 249.972L165.561 243.972ZM161.755 243.835C161.671 243.711 161.468 243.31 161.296 242.415C161.13 241.551 161.024 240.394 161.009 238.904L155.009 238.946C155.027 240.656 155.148 242.198 155.404 243.53C155.655 244.833 156.069 246.127 156.797 247.198L161.755 243.835ZM161.009 238.904L160.914 229.604L154.914 229.647L155.009 238.946L161.009 238.904ZM157.945 232.626L184.044 232.441L183.983 226.441L157.884 226.626L157.945 232.626ZM184.044 232.441C187.32 232.418 190.195 232.058 192.556 231.252C194.934 230.44 196.986 229.102 198.245 227.013L193.103 223.904C192.788 224.427 192.11 225.058 190.601 225.573C189.076 226.094 186.907 226.421 183.983 226.441L184.044 232.441ZM198.245 227.013C200.275 223.644 201.003 218.51 200.939 212.221L194.939 212.263C195.002 218.374 194.22 222.051 193.103 223.904L198.245 227.013ZM200.939 212.221L199.504 71.2281L193.504 71.2705L194.939 212.263L200.939 212.221ZM199.504 71.2281C199.44 64.9392 198.607 59.8164 196.508 56.4767L191.431 59.6573C192.585 61.4946 193.442 65.1601 193.504 71.2705L199.504 71.2281ZM196.508 56.4767C195.207 54.4058 193.128 53.0971 190.734 52.3187C188.357 51.5457 185.475 51.2269 182.2 51.2501L182.261 57.2498C185.185 57.2291 187.359 57.5246 188.895 58.0239C190.414 58.5179 191.105 59.1396 191.431 59.6573L196.508 56.4767ZM182.2 51.2501L144.1 51.5196L144.162 57.5193L182.261 57.2498L182.2 51.2501ZM141.131 54.5407L143.092 247.131L149.092 247.088L147.131 54.4982L141.131 54.5407ZM146.061 244.11L122.062 244.28L122.123 250.279L146.122 250.11L146.061 244.11ZM125.092 247.258L123.037 45.3685L117.037 45.4109L119.092 247.301L125.092 247.258ZM123.037 45.3685C123.022 43.9018 123.128 42.8293 123.297 42.0865C123.473 41.3124 123.663 41.1377 123.616 41.1856L119.33 36.9732C118.293 38.0282 117.748 39.4087 117.446 40.7381C117.136 42.0986 117.019 43.6778 117.037 45.4109L123.037 45.3685ZM123.616 41.1856C123.923 40.8731 125.051 40.2541 128.085 40.2327L128.024 34.233C124.658 34.2568 121.398 34.8689 119.33 36.9732L123.616 41.1856ZM128.085 40.2327L191.683 39.7827L191.622 33.7831L128.024 34.233L128.085 40.2327ZM191.683 39.7827C201.811 39.7111 208.092 41.836 211.47 45.3143L215.768 41.141C210.657 35.8792 202.294 33.7076 191.622 33.7831L191.683 39.7827ZM211.57 45.4123C215.106 48.7303 217.339 54.9736 217.442 65.1011L223.442 65.0586C223.333 54.3872 221.018 46.0623 215.669 41.043L211.57 45.4123ZM217.442 65.1011L219 218.093L225 218.051L223.442 65.0586L217.442 65.1011ZM219 218.093C219.103 228.202 217.007 234.626 213.483 238.211L217.769 242.424C222.955 237.147 225.109 228.742 225 218.051L219 218.093ZM213.483 238.211C210.177 241.575 203.917 243.701 193.76 243.772L193.821 249.772C204.464 249.697 212.761 247.519 217.769 242.424L213.483 238.211ZM193.76 243.772L165.561 243.972L165.622 249.972L193.821 249.772L193.76 243.772Z" fill="#4A27B7"/>
</g>
<defs>
<clipPath id="clip0">
<rect width="666" height="361" fill="white"/>
</clipPath>
</defs>
</svg>
