<svg width="111" height="73" viewBox="0 0 111 73" fill="none" xmlns="http://www.w3.org/2000/svg">
<g clip-path="url(#clip0)">
<g filter="url(#filter0_d)">
<path d="M14.3087 60.4229L61.8584 7.50462L84.0994 7.50462L97.5284 22.46L97.5284 60.4229L14.3087 60.4229Z" fill="url(#paint0_linear)"/>
</g>
<g filter="url(#filter1_d)">
<path d="M50.9999 61.874L50.9999 7.50457L69.9112 7.50459L97.1373 22.0762L72.979 42.0164L65.6931 22.0762L50.9999 61.874Z" fill="url(#paint1_linear)"/>
</g>
<g filter="url(#filter2_d)">
<path d="M40.2003 60.4229L21.0194 7.50461L33.0985 7.5046L42.6852 7.50461L50.3545 7.50461L65.8926 22.0763L95.9868 60.4229L63.7757 60.4229L40.2003 60.4229Z" fill="url(#paint2_linear)"/>
</g>
<g filter="url(#filter3_d)">
<path d="M23.1931 54.2286L22.1632 10.5723L39.8027 38.1819L51 19.6353L51 42.1334L51 61.807L31.7719 61.807L23.1931 54.2286Z" fill="url(#paint3_linear)"/>
</g>
<g filter="url(#filter4_d)">
<path d="M12.6995 55.4376L12.6995 7.40946L33 7.5L42.3345 22.8431L42.3345 61.7006L29.8843 61.7006L12.6995 55.4376Z" fill="url(#paint4_linear)"/>
</g>
<path d="M54.3136 42.5386L54.3109 48.0586H58.1309L58.1307 48.6786C58.1306 48.8919 58.0905 49.0386 58.0104 49.1186C57.9437 49.1852 57.8037 49.2186 57.5904 49.2186H52.7104L52.7168 35.7586C52.7169 35.5452 52.7503 35.4052 52.817 35.3386C52.897 35.2586 53.0437 35.2186 53.257 35.2186H58.137L58.1367 35.8386C58.1366 36.0519 58.1032 36.1986 58.0365 36.2786C57.9832 36.3452 57.8498 36.3786 57.6365 36.3786H54.3165L54.3141 41.3786H57.5341L57.5338 41.9986C57.5337 42.2119 57.5003 42.3586 57.4336 42.4386C57.3802 42.5052 57.2469 42.5386 57.0336 42.5386H54.3136Z" fill="#FBFBF9"/>
<path d="M70.134 35.2186L71.8719 39.6786L72.6308 42.0386H72.7508L73.4919 39.6786L74.9738 35.7586C75.0405 35.5586 75.1206 35.4186 75.214 35.3386C75.3074 35.2586 75.4674 35.2186 75.694 35.2186H76.594L73.3902 43.3386L73.3877 48.6586C73.3876 48.8852 73.3475 49.0386 73.2675 49.1186C73.1874 49.1852 73.0407 49.2186 72.8274 49.2186H71.7874L71.7902 43.3386L68.7738 35.7586C68.6939 35.5452 68.7006 35.4052 68.794 35.3386C68.9007 35.2586 69.0607 35.2186 69.274 35.2186H70.134Z" fill="#FBFBF9"/>
<path d="M85.8802 49.2186C85.6668 49.2186 85.5269 49.1852 85.4602 49.1186C85.4069 49.0386 85.3803 48.8919 85.3804 48.6786L85.3807 48.0586L90.3463 36.3786H85.6663L85.6666 35.7586C85.6667 35.5452 85.6934 35.4052 85.7468 35.3386C85.8135 35.2586 85.9535 35.2186 86.1668 35.2186H91.4468C91.6601 35.2186 91.7935 35.2586 91.8468 35.3386C91.9134 35.4052 91.9467 35.5452 91.9466 35.7586L91.9463 36.3786L86.9607 48.0586H91.8807L91.8804 48.6786C91.8803 48.8919 91.8469 49.0386 91.7802 49.1186C91.7269 49.1852 91.5935 49.2186 91.3802 49.2186H85.8802Z" fill="#FBFBF9"/>
<path d="M38.4608 49.2191C38.2474 49.2191 38.1074 49.1858 38.0407 49.1191C37.9873 49.0391 37.9605 48.8924 37.9604 48.6791L37.96 48.0591H39.7C40.1133 48.0591 40.3733 47.9724 40.4798 47.7991C40.5864 47.6258 40.6395 47.3324 40.6392 46.9191L40.633 37.5191C40.6327 37.1058 40.5792 36.8124 40.4724 36.6391C40.3657 36.4658 40.1056 36.3791 39.6923 36.3791H37.1523L37.1608 49.2191H35.5608L35.5519 35.7591C35.5517 35.5458 35.585 35.4058 35.6516 35.3391C35.7315 35.2591 35.8782 35.2191 36.0915 35.2191H40.3315C41.0248 35.2191 41.5116 35.3658 41.7918 35.6591C42.0853 35.9391 42.2323 36.4258 42.2328 37.1191L42.2395 47.3191C42.24 48.0124 42.0936 48.5058 41.8005 48.7991C41.5207 49.0791 41.0341 49.2191 40.3408 49.2191H38.4608Z" fill="#D4E157"/>
</g>
<defs>
<filter id="filter0_d" x="-37.6913" y="7.50464" width="135.22" height="135.918" filterUnits="userSpaceOnUse" color-interpolation-filters="sRGB">
<feFlood flood-opacity="0" result="BackgroundImageFix"/>
<feColorMatrix in="SourceAlpha" type="matrix" values="0 0 0 0 0 0 0 0 0 0 0 0 0 0 0 0 0 0 127 0"/>
<feOffset dx="-48" dy="79"/>
<feGaussianBlur stdDeviation="2"/>
<feColorMatrix type="matrix" values="0 0 0 0 0 0 0 0 0 0 0 0 0 0 0 0 0 0 0.25 0"/>
<feBlend mode="lighten" in2="BackgroundImageFix" result="effect1_dropShadow"/>
<feBlend mode="normal" in="SourceGraphic" in2="effect1_dropShadow" result="shape"/>
</filter>
<filter id="filter1_d" x="-1.00012" y="7.50458" width="98.1373" height="137.369" filterUnits="userSpaceOnUse" color-interpolation-filters="sRGB">
<feFlood flood-opacity="0" result="BackgroundImageFix"/>
<feColorMatrix in="SourceAlpha" type="matrix" values="0 0 0 0 0 0 0 0 0 0 0 0 0 0 0 0 0 0 127 0"/>
<feOffset dx="-48" dy="79"/>
<feGaussianBlur stdDeviation="2"/>
<feColorMatrix type="matrix" values="0 0 0 0 0 0 0 0 0 0 0 0 0 0 0 0 0 0 0.25 0"/>
<feBlend mode="lighten" in2="BackgroundImageFix" result="effect1_dropShadow"/>
<feBlend mode="normal" in="SourceGraphic" in2="effect1_dropShadow" result="shape"/>
</filter>
<filter id="filter2_d" x="-30.9806" y="7.50458" width="126.967" height="135.918" filterUnits="userSpaceOnUse" color-interpolation-filters="sRGB">
<feFlood flood-opacity="0" result="BackgroundImageFix"/>
<feColorMatrix in="SourceAlpha" type="matrix" values="0 0 0 0 0 0 0 0 0 0 0 0 0 0 0 0 0 0 127 0"/>
<feOffset dx="-48" dy="79"/>
<feGaussianBlur stdDeviation="2"/>
<feColorMatrix type="matrix" values="0 0 0 0 0 0 0 0 0 0 0 0 0 0 0 0 0 0 0.25 0"/>
<feBlend mode="lighten" in2="BackgroundImageFix" result="effect1_dropShadow"/>
<feBlend mode="normal" in="SourceGraphic" in2="effect1_dropShadow" result="shape"/>
</filter>
<filter id="filter3_d" x="-29.8368" y="10.5723" width="80.8368" height="134.235" filterUnits="userSpaceOnUse" color-interpolation-filters="sRGB">
<feFlood flood-opacity="0" result="BackgroundImageFix"/>
<feColorMatrix in="SourceAlpha" type="matrix" values="0 0 0 0 0 0 0 0 0 0 0 0 0 0 0 0 0 0 127 0"/>
<feOffset dx="-48" dy="79"/>
<feGaussianBlur stdDeviation="2"/>
<feColorMatrix type="matrix" values="0 0 0 0 0 0 0 0 0 0 0 0 0 0 0 0 0 0 0.25 0"/>
<feBlend mode="lighten" in2="BackgroundImageFix" result="effect1_dropShadow"/>
<feBlend mode="normal" in="SourceGraphic" in2="effect1_dropShadow" result="shape"/>
</filter>
<filter id="filter4_d" x="-39.3005" y="7.40948" width="81.635" height="137.291" filterUnits="userSpaceOnUse" color-interpolation-filters="sRGB">
<feFlood flood-opacity="0" result="BackgroundImageFix"/>
<feColorMatrix in="SourceAlpha" type="matrix" values="0 0 0 0 0 0 0 0 0 0 0 0 0 0 0 0 0 0 127 0"/>
<feOffset dx="-48" dy="79"/>
<feGaussianBlur stdDeviation="2"/>
<feColorMatrix type="matrix" values="0 0 0 0 0 0 0 0 0 0 0 0 0 0 0 0 0 0 0.25 0"/>
<feBlend mode="lighten" in2="BackgroundImageFix" result="effect1_dropShadow"/>
<feBlend mode="normal" in="SourceGraphic" in2="effect1_dropShadow" result="shape"/>
</filter>
<linearGradient id="paint0_linear" x1="97.5286" y1="22.4598" x2="88.1604" y2="54.6293" gradientUnits="userSpaceOnUse">
<stop stop-color="#EE6E79"/>
<stop offset="1" stop-color="#EE6E79" stop-opacity="0"/>
</linearGradient>
<linearGradient id="paint1_linear" x1="68.3774" y1="60.8062" x2="105.533" y2="33.2707" gradientUnits="userSpaceOnUse">
<stop stop-color="#6DC142"/>
<stop offset="1" stop-color="#6DC142" stop-opacity="0"/>
</linearGradient>
<linearGradient id="paint2_linear" x1="39.6173" y1="7.12117" x2="52.7277" y2="56.9517" gradientUnits="userSpaceOnUse">
<stop stop-color="#429ADD"/>
<stop offset="1" stop-color="#429ADD" stop-opacity="0"/>
</linearGradient>
<linearGradient id="paint3_linear" x1="33.4819" y1="26.2944" x2="67.9938" y2="33.9637" gradientUnits="userSpaceOnUse">
<stop stop-color="#4A27B7"/>
<stop offset="1" stop-color="#4A27B7" stop-opacity="0"/>
</linearGradient>
<linearGradient id="paint4_linear" x1="41.3882" y1="22.4596" x2="41.9181" y2="48.1518" gradientUnits="userSpaceOnUse">
<stop stop-color="#F1B042"/>
<stop offset="1" stop-color="#F1B042" stop-opacity="0"/>
</linearGradient>
<clipPath id="clip0">
<rect width="111" height="73" fill="white"/>
</clipPath>
</defs>
</svg>
