<svg width="30" height="16" viewBox="0 0 30 16" fill="none" xmlns="http://www.w3.org/2000/svg">
<path opacity="0.59" d="M23.6588 6.27125L18.0556 4.80013L18.135 6.99226L23.7361 8.4038L23.6588 6.27125Z" fill="#0E1732"/>
<path opacity="0.59" d="M10.1917 8.23029L10.2665 12.6525L13.0047 11.8875L12.8555 7.4861L10.1917 8.23029Z" fill="#0E1732"/>
<path opacity="0.59" d="M25.9888 4.55152L19.4572 3.09141L19.5366 5.28354L26.066 6.68408L25.9888 4.55152Z" fill="#4A27B7"/>
<path opacity="0.59" d="M8.03187 9.64527L2.42861 8.17416L2.50802 10.3663L8.10912 11.7778L8.03187 9.64527Z" fill="#4A27B7"/>
<path opacity="0.59" d="M14.2073 4.448L8.60403 2.97689L8.68343 5.16902L14.2845 6.58056L14.2073 4.448Z" fill="#407227"/>
<path opacity="0.59" d="M18.2778 4.74L12.6746 3.26888L12.754 5.46101L18.3551 6.87255L18.2778 4.74Z" fill="#F1B042"/>
<path opacity="0.59" d="M9.21583 4.52027L3.61257 3.04916L3.69198 5.24128L9.29308 6.65283L9.21583 4.52027Z" fill="#CF8657"/>
<path opacity="0.59" d="M8.98548 6.25562L3.38223 4.78451L3.46163 6.97664L9.06273 8.38818L8.98548 6.25562Z" fill="#8E6827"/>
<path opacity="0.59" d="M24.25 11.573L18.6468 10.1019L18.7262 12.294L24.3273 13.7056L24.25 11.573Z" fill="#6DC142"/>
<path opacity="0.59" d="M16.9949 11.1736L11.3916 9.70248L11.471 11.8946L17.0721 13.3061L16.9949 11.1736Z" fill="#6DC142"/>
<path opacity="0.59" d="M16.3379 6.62769L10.7346 5.15658L10.814 7.34871L16.4151 8.76025L16.3379 6.62769Z" fill="#0E1732"/>
<path opacity="0.59" d="M22.3844 8.34449L16.7812 6.87338L16.8606 9.0655L22.4617 10.477L22.3844 8.34449Z" fill="#0E1732"/>
<path opacity="0.59" d="M12.8334 9.1648L7.23013 7.69369L7.30953 9.88582L12.9106 11.2974L12.8334 9.1648Z" fill="#F1B042"/>
<path opacity="0.59" d="M15.6617 10.9683L15.2897 4.52946L11.5335 5.61245L12.0076 12.0218L15.6617 10.9683Z" fill="#429ADD"/>
<path opacity="0.59" d="M23.7375 10.9067L23.3655 4.46794L19.6093 5.55093L20.0834 11.9603L23.7375 10.9067Z" fill="#429ADD"/>
<path opacity="0.59" d="M10.0782 12.6912L10.0621 8.2675L7.31443 8.98453L7.40521 13.3887L10.0782 12.6912Z" fill="#0E1732"/>
<path opacity="0.59" d="M8.47782 4.87201L8.89798 11.8673L12.8388 10.771L12.3115 3.80548L8.47782 4.87201Z" fill="#EE6E79"/>
<path opacity="0.59" d="M19.8128 3.85821L20.3477 10.8464L24.27 9.68996L23.6285 2.73324L19.8128 3.85821Z" fill="#EE6E79"/>
<path opacity="0.59" d="M15.0297 5.4535L15.4881 12.1593L19.1964 11.1276L18.6372 4.44991L15.0297 5.4535Z" fill="#4A27B7"/>
<path opacity="0.59" d="M18.4291 4.77211L18.8053 11.7935L22.8177 10.6773L22.3325 3.6862L18.4291 4.77211Z" fill="#F1B042"/>
<path opacity="0.59" d="M25.9507 7.86304L20.3474 6.39193L20.4268 8.58406L26.0279 9.9956L25.9507 7.86304Z" fill="#EE6E79"/>
<path opacity="0.59" d="M25.5476 10.8826L19.9444 9.41146L20.0238 11.6036L25.6249 13.0151L25.5476 10.8826Z" fill="#EE6E79"/>
<path opacity="0.59" d="M18.6434 8.91675L13.0402 7.44564L13.1196 9.63777L18.7207 11.0493L18.6434 8.91675Z" fill="#0E1732"/>
<path opacity="0.59" d="M10.1591 2.98902L4.55581 1.51791L4.63522 3.71003L10.2363 5.12158L10.1591 2.98902Z" fill="#4A27B7"/>
<path opacity="0.59" d="M20.0353 3.24781L14.432 1.7767L14.5114 3.96882L20.1125 5.38037L20.0353 3.24781Z" fill="#6DC142"/>
<path opacity="0.59" d="M18.7232 9.91968L13.1199 8.44857L13.1993 10.6407L18.8004 12.0522L18.7232 9.91968Z" fill="#8E6827"/>
<path opacity="0.59" d="M18.3427 11.7468L12.7394 10.2757L12.8188 12.4678L18.4199 13.8794L18.3427 11.7468Z" fill="#0E1732"/>
<path opacity="0.59" d="M18.7091 10.658L13.1059 9.18685L13.1853 11.379L18.7864 12.7905L18.7091 10.658Z" fill="#EE6E79"/>
<path opacity="0.59" d="M16.3262 3.43922L10.7229 1.9681L10.8023 4.16023L16.4034 5.57177L16.3262 3.43922Z" fill="#EE6E79"/>
<path opacity="0.59" d="M23.249 9.64722L17.6458 8.17611L17.7252 10.3682L23.3263 11.7798L23.249 9.64722Z" fill="#0E1732"/>
<path opacity="0.59" d="M26.2716 9.74691L20.7247 8.15814L20.7209 10.3504L26.2679 11.8796L26.2716 9.74691Z" fill="#429ADD"/>
<path opacity="0.59" d="M12.5255 11.0652L6.92227 9.59408L7.00167 11.7862L12.6028 13.1977L12.5255 11.0652Z" fill="#EE6E79"/>
<path opacity="0.59" d="M24.7695 9.61757L25.2628 8.55548L24.5144 8.5616L24.0414 9.62353L24.7695 9.61757Z" fill="#C88244"/>
<path opacity="0.59" d="M16.9904 2.8832L17.4838 1.8211L16.7354 1.82722L16.2624 2.88915L16.9904 2.8832Z" fill="#EE6E79"/>
<path opacity="0.59" d="M10.4704 5.48671L10.9638 4.42462L10.2153 4.43074L9.74233 5.49267L10.4704 5.48671Z" fill="#6DC142"/>
<path opacity="0.59" d="M11.1176 13.0531L11.611 11.991L10.8626 11.9971L10.3895 13.0591L11.1176 13.0531Z" fill="#6DC142"/>
<path opacity="0.59" d="M11.9203 3.01142L12.3069 1.9473L11.7273 1.95662L11.3564 3.02048L11.9203 3.01142Z" fill="white"/>
<path opacity="0.59" d="M13.815 12.5319L14.2016 11.4678L13.6219 11.4771L13.2511 12.541L13.815 12.5319Z" fill="#EE6E79"/>
<path opacity="0.59" d="M17.8906 6.03192L18.2772 4.96781L17.6976 4.97713L17.3268 6.04099L17.8906 6.03192Z" fill="#EE6E79"/>
<path opacity="0.59" d="M13.8043 4.23769L14.2976 3.1756L13.5492 3.18172L13.0762 4.24365L13.8043 4.23769Z" fill="#684759"/>
<path opacity="0.59" d="M27.4328 9.85761L27.9254 8.79573L27.177 8.80157L26.7047 9.86329L27.4328 9.85761Z" fill="#684759"/>
<path opacity="0.59" d="M2.05201 10.9089L2.51925 9.84005L1.77126 9.85636L1.32434 10.9248L2.05201 10.9089Z" fill="#0E1732"/>
<path opacity="0.59" d="M22.9681 6.91964L23.4354 5.85079L22.6874 5.86711L22.2405 6.93552L22.9681 6.91964Z" fill="#0E1732"/>
<path opacity="0.59" d="M24.505 7.95113L24.9731 6.88201L24.2251 6.89867L23.7774 7.96734L24.505 7.95113Z" fill="#429ADD"/>
<path d="M18.0276 2.14063L18.394 1.06987L17.8146 1.08938L17.464 2.15962L18.0276 2.14063Z" fill="#2C176C"/>
<path d="M20.4924 13.4502L20.8588 12.3794L20.2795 12.399L19.9288 13.4692L20.4924 13.4502Z" fill="#429ADD"/>
<path opacity="0.59" d="M3.87558 2.57911L4.24199 1.50834L3.66267 1.52786L3.312 2.5981L3.87558 2.57911Z" fill="#429ADD"/>
<path opacity="0.59" d="M7.0243 6.16574L7.49154 5.09688L6.74355 5.1132L6.29663 6.18161L7.0243 6.16574Z" fill="#429ADD"/>
<path opacity="0.59" d="M22.1638 3.47364L22.5302 2.40287L21.9509 2.42239L21.6002 3.49263L22.1638 3.47364Z" fill="white"/>
<path opacity="0.59" d="M4.75437 10.96L5.12077 9.8892L4.54145 9.90872L4.19079 10.979L4.75437 10.96Z" fill="white"/>
<path opacity="0.59" d="M6.43601 4.34376L6.80241 3.27299L6.22309 3.29251L5.87243 4.36274L6.43601 4.34376Z" fill="white"/>
<path opacity="0.59" d="M17.1252 6.02345L17.4916 4.95268L16.9123 4.97219L16.5616 6.04243L17.1252 6.02345Z" fill="#F1B042"/>
<path opacity="0.59" d="M6.58131 12.6394L7.04855 11.5705L6.30056 11.5868L5.85364 12.6552L6.58131 12.6394Z" fill="#F1B042"/>
<path opacity="0.59" d="M23.8118 13.2517L24.279 12.1828L23.531 12.1991L23.0841 13.2676L23.8118 13.2517Z" fill="#F1B042"/>
<path opacity="0.59" d="M10.5113 8.37662L3.37576 6.40401L3.482 9.33704L10.6146 11.2299L10.5113 8.37662Z" fill="#6DC142"/>
<path opacity="0.59" d="M27.7531 11.8308L22.1498 10.3597L22.2292 12.5518L27.8303 13.9634L27.7531 11.8308Z" fill="#0E1732"/>
<path opacity="0.59" d="M22.8855 12.2985L23.2721 11.2344L22.6925 11.2437L22.3217 12.3076L22.8855 12.2985Z" fill="white"/>
</svg>
