<svg width="1430" height="898" viewBox="0 0 1430 898" fill="none" xmlns="http://www.w3.org/2000/svg">
<g clip-path="url(#clip0)">
<rect width="1430" height="898" fill="white"/>
<path d="M847.064 508.253L840.993 734.793L736.73 692.934L745.634 467.532L847.064 508.253Z" fill="#F1B042"/>
<path d="M237.437 320.308L452.994 250.363L448.365 362.619L232.934 429.515L237.437 320.308Z" fill="#F1B042"/>
<path d="M935.487 309.575L1151.04 239.629L1146.41 351.886L930.984 418.781L935.487 309.575Z" fill="#6DC142"/>
<path d="M977.495 641.488L1193.05 571.542L1188.42 683.799L972.991 750.694L977.495 641.488Z" fill="#6DC142"/>
<path d="M418.177 712.319L633.734 642.373L629.105 754.629L413.674 821.525L418.177 712.319Z" fill="#6DC142"/>
<path d="M623.939 425.064L839.495 355.118L834.866 467.374L619.435 534.27L623.939 425.064Z" fill="#F1B042"/>
<path d="M672.088 404.569L680.511 178.104L784.334 221.044L773.089 446.342L672.088 404.569Z" fill="#429ADD"/>
<path d="M931.113 311.499L925.353 538.047L821.033 496.331L829.628 270.917L931.113 311.499Z" fill="#4A27B7"/>
<path d="M248.429 448.536L463.985 378.59L459.356 490.847L243.925 557.742L248.429 448.536Z" fill="#4A27B7"/>
<path d="M438.609 621.537L654.166 551.592L649.536 663.848L434.105 730.744L438.609 621.537Z" fill="#4A27B7"/>
<path d="M487.074 167.656L702.631 97.7105L698.002 209.967L482.571 276.862L487.074 167.656Z" fill="#0E1732"/>
<path d="M1045.88 397.245L1261.44 327.299L1256.81 439.556L1041.38 506.451L1045.88 397.245Z" fill="#0E1732"/>
<path d="M534.193 662.249L749.75 592.303L745.121 704.56L529.69 771.455L534.193 662.249Z" fill="#0E1732"/>
<path d="M534.651 515.496L750.208 445.55L745.579 557.806L530.148 624.702L534.651 515.496Z" fill="#EE6E79"/>
<path d="M241.419 575.273L454.906 499.243L453.461 611.586L240.013 684.563L241.419 575.273Z" fill="#F1B042"/>
<path d="M365.235 592.844L545.111 543.428L541.111 640.432L360.731 702.051L365.235 592.844Z" fill="#684759"/>
<path d="M460.92 363.051L676.477 293.105L671.848 405.362L456.417 472.257L460.92 363.051Z" fill="#EE6E79"/>
<path d="M780.879 158.917L960.755 109.5L956.754 206.504L776.375 268.123L780.879 158.917Z" fill="#684759"/>
<path d="M290.851 438.229L274.945 390.017L300.097 390.931L315.32 439.118L290.851 438.229Z" fill="#EE6E79"/>
<path d="M635.257 311.167L617.142 256.262L645.787 257.302L663.123 312.179L635.257 311.167Z" fill="#6DC142"/>
<path d="M990.631 244L972.516 189.095L1001.16 190.135L1018.5 245.012L990.631 244Z" fill="#EE6E79"/>
<path d="M550.993 533.428L532.878 478.523L561.523 479.563L578.86 534.44L550.993 533.428Z" fill="#684759"/>
<path d="M1167.69 658.313L1150.58 603.087L1179.2 604.649L1195.53 659.833L1167.69 658.313Z" fill="#0E1732"/>
<path d="M1289.19 393.473L1274.16 344.979L1299.29 346.351L1313.63 394.807L1289.19 393.473Z" fill="#0E1732"/>
<path d="M739.044 773.107L721.933 717.881L750.554 719.444L766.887 774.627L739.044 773.107Z" fill="#0E1732"/>
<path d="M222.207 559.685L207.182 511.191L232.314 512.563L246.656 561.02L222.207 559.685Z" fill="#429ADD"/>
<path d="M1251.95 445.821L1234.84 390.595L1263.46 392.158L1279.8 447.341L1251.95 445.821Z" fill="#429ADD"/>
<path d="M369.015 89.2263L351.905 34L380.526 35.5625L396.859 90.7463L369.015 89.2263Z" fill="#429ADD"/>
<path d="M520.446 195.472L503.336 140.246L531.957 141.808L548.29 196.992L520.446 195.472Z" fill="#429ADD"/>
<path d="M971.075 487.343L953.964 432.116L982.585 433.679L998.918 488.863L971.075 487.343Z" fill="#429ADD"/>
<path d="M227.354 206.253L210.244 151.027L238.865 152.589L255.197 207.773L227.354 206.253Z" fill="#F1B042"/>
<path d="M993.057 742.577L975.946 687.351L1004.57 688.913L1020.9 744.097L993.057 742.577Z" fill="#F1B042"/>
<path d="M267.655 832.947L250.544 777.721L279.165 779.283L295.498 834.467L267.655 832.947Z" fill="#F1B042"/>
<path d="M957.955 479.067L1173.51 409.121L1168.88 521.377L953.452 588.273L957.955 479.067Z" fill="#EE6E79"/>
<path d="M867.585 629.276L1083.14 559.33L1078.51 671.587L863.082 738.482L867.585 629.276Z" fill="#0E1732"/>
<path opacity="0.59" d="M260.732 323.972L539.11 254.026L533.132 366.283L254.916 433.178L260.732 323.972Z" fill="#0E1732"/>
<path opacity="0.59" d="M924.655 437.423L916.816 663.963L782.167 622.104L793.665 396.702L924.655 437.423Z" fill="#0E1732"/>
<path opacity="0.59" d="M147.159 233.602L471.417 165.121L465.438 277.378L141.343 342.808L147.159 233.602Z" fill="#4A27B7"/>
<path opacity="0.59" d="M1030.1 512.039L1308.48 442.094L1302.5 554.35L1024.28 621.245L1030.1 512.039Z" fill="#4A27B7"/>
<path opacity="0.59" d="M729.679 239.708L1008.06 169.762L1002.08 282.019L723.863 348.914L729.679 239.708Z" fill="#407227"/>
<path opacity="0.59" d="M528.179 250.699L806.557 180.753L800.578 293.01L522.362 359.905L528.179 250.699Z" fill="#F1B042"/>
<path opacity="0.59" d="M976.365 248.257L1254.74 178.311L1248.76 290.567L970.549 357.463L976.365 248.257Z" fill="#CF8657"/>
<path opacity="0.59" d="M986.135 337.406L1264.51 267.46L1258.53 379.716L980.319 446.612L986.135 337.406Z" fill="#8E6827"/>
<path opacity="0.59" d="M226.538 595.082L504.916 525.136L498.937 637.393L220.722 704.288L226.538 595.082Z" fill="#6DC142"/>
<path opacity="0.59" d="M585.576 581.649L863.954 511.703L857.975 623.959L579.759 690.855L585.576 581.649Z" fill="#6DC142"/>
<path opacity="0.59" d="M622.309 349.348L900.687 279.402L894.709 391.659L616.493 458.554L622.309 349.348Z" fill="#0E1732"/>
<path opacity="0.59" d="M321.793 431.439L600.171 361.493L594.192 473.75L315.977 540.645L321.793 431.439Z" fill="#0E1732"/>
<path opacity="0.59" d="M793.183 482.73L1071.56 412.784L1065.58 525.041L787.366 591.936L793.183 482.73Z" fill="#F1B042"/>
<path opacity="0.59" d="M651.672 572.418L676.092 242.829L860.768 301.972L831.33 629.954L651.672 572.418Z" fill="#429ADD"/>
<path opacity="0.59" d="M252.499 561.427L276.919 231.838L461.595 290.981L432.157 618.963L252.499 561.427Z" fill="#429ADD"/>
<path opacity="0.59" d="M926.089 666.116L931.028 439.444L1066.19 478.855L1057.58 704.456L926.089 666.116Z" fill="#0E1732"/>
<path opacity="0.59" d="M1012.53 267.01L985.204 625.069L791.414 565.064L824.003 208.635L1012.53 267.01Z" fill="#EE6E79"/>
<path opacity="0.59" d="M453.123 204.042L420.135 561.624L227.32 498.558L265.548 142.689L453.123 204.042Z" fill="#EE6E79"/>
<path opacity="0.59" d="M688.08 290.432L659.139 633.618L476.785 577.153L510.681 235.501L688.08 290.432Z" fill="#4A27B7"/>
<path opacity="0.59" d="M520.669 252.194L495.496 611.636L298.185 550.54L328.72 192.758L520.669 252.194Z" fill="#F1B042"/>
<path opacity="0.59" d="M145.938 403.351L424.316 333.405L418.337 445.662L140.122 512.557L145.938 403.351Z" fill="#EE6E79"/>
<path opacity="0.59" d="M163.035 558.446L441.413 488.5L435.434 600.756L157.219 667.652L163.035 558.446Z" fill="#EE6E79"/>
<path opacity="0.59" d="M506.197 464.412L784.575 394.466L778.596 506.723L500.381 573.618L506.197 464.412Z" fill="#0E1732"/>
<path opacity="0.59" d="M931.18 168.878L1209.56 98.9317L1203.58 211.188L925.364 278.084L931.18 168.878Z" fill="#4A27B7"/>
<path opacity="0.59" d="M746.776 123.693L1025.15 53.7467L1019.18 166.003L740.96 232.899L746.776 123.693Z" fill="#6DC142"/>
<path opacity="0.59" d="M501.312 515.703L779.69 445.757L773.711 558.014L495.496 624.909L501.312 515.703Z" fill="#8E6827"/>
<path opacity="0.59" d="M518.409 609.737L796.787 539.791L790.808 652.047L512.592 718.943L518.409 609.737Z" fill="#0E1732"/>
<path opacity="0.59" d="M501.312 553.561L779.69 483.615L773.711 595.871L495.496 662.767L501.312 553.561Z" fill="#EE6E79"/>
<path opacity="0.59" d="M625.876 185.975L904.254 116.029L898.275 228.285L620.06 295.181L625.876 185.975Z" fill="#EE6E79"/>
<path opacity="0.59" d="M277.829 497.385L556.207 427.439L550.229 539.695L272.013 606.591L277.829 497.385Z" fill="#0E1732"/>
<path opacity="0.59" d="M128.31 499.557L404.014 423.528L402.149 535.87L126.495 608.847L128.31 499.557Z" fill="#429ADD"/>
<path opacity="0.59" d="M806.616 580.428L1084.99 510.482L1079.01 622.738L800.799 689.634L806.616 580.428Z" fill="#EE6E79"/>
<path opacity="0.59" d="M271.327 482.195L250.784 433.983L283.267 434.897L302.927 483.084L271.327 482.195Z" fill="#C88244"/>
<path opacity="0.59" d="M752.241 134.09L728.846 79.1854L765.839 80.2256L788.228 135.102L752.241 134.09Z" fill="#EE6E79"/>
<path opacity="0.59" d="M1154.02 820.414L1130.63 765.509L1167.62 766.549L1190.01 821.426L1154.02 820.414Z" fill="#A9DA8F"/>
<path opacity="0.59" d="M1262.71 280.636L1239.31 225.731L1276.31 226.772L1298.7 281.648L1262.71 280.636Z" fill="#EE6E79"/>
<path opacity="0.59" d="M913.441 296.512L890.047 241.607L927.04 242.647L949.429 297.524L913.441 296.512Z" fill="#6DC142"/>
<path opacity="0.59" d="M874.362 683.638L850.968 628.733L887.961 629.773L910.35 684.65L874.362 683.638Z" fill="#6DC142"/>
<path opacity="0.59" d="M844.085 168.285L825.97 113.379L854.615 114.42L871.952 169.297L844.085 168.285Z" fill="white"/>
<path opacity="0.59" d="M741.503 654.329L723.388 599.424L752.033 600.464L769.369 655.341L741.503 654.329Z" fill="#EE6E79"/>
<path opacity="0.59" d="M546.108 317.273L527.993 262.368L556.638 263.408L573.975 318.285L546.108 317.273Z" fill="#EE6E79"/>
<path opacity="0.59" d="M749.798 229.345L726.404 174.44L763.397 175.481L785.786 230.357L749.798 229.345Z" fill="#684759"/>
<path opacity="0.59" d="M307.718 756.911L284.324 702.006L321.316 703.046L343.705 757.923L307.718 756.911Z" fill="#684759"/>
<path opacity="0.59" d="M232.722 457.531L212.18 409.319L244.663 410.233L264.323 458.42L232.722 457.531Z" fill="#684759"/>
<path opacity="0.59" d="M1265.91 583.819L1243.82 528.593L1280.78 530.155L1301.87 585.339L1265.91 583.819Z" fill="#0E1732"/>
<path opacity="0.59" d="M235.645 359.115L213.547 303.889L250.509 305.451L271.602 360.635L235.645 359.115Z" fill="#0E1732"/>
<path opacity="0.59" d="M284.175 407.426L264.736 358.919L297.191 360.306L315.749 408.775L284.175 407.426Z" fill="#429ADD"/>
<path opacity="0.59" d="M421.269 784.113L399.13 728.872L436.091 730.452L457.226 785.65L421.269 784.113Z" fill="#429ADD"/>
<path d="M901.466 760.895L884.355 705.669L912.976 707.231L929.309 762.415L901.466 760.895Z" fill="#429ADD"/>
<path d="M410.537 694.95L393.426 639.723L422.047 641.286L438.38 696.47L410.537 694.95Z" fill="#429ADD"/>
<path d="M933.217 120.978L916.107 65.7516L944.728 67.314L961.061 122.498L933.217 120.978Z" fill="#429ADD"/>
<path opacity="0.59" d="M1242.18 153.951L1225.07 98.7244L1253.7 100.287L1270.03 155.471L1242.18 153.951Z" fill="#E19868"/>
<path opacity="0.59" d="M618.143 812.186L601.033 756.96L629.654 758.522L645.987 813.706L618.143 812.186Z" fill="#9480D5"/>
<path opacity="0.59" d="M1083.17 334.691L1061.07 279.464L1098.03 281.027L1119.13 336.211L1083.17 334.691Z" fill="#429ADD"/>
<path opacity="0.59" d="M337.264 182.039L320.153 126.812L348.774 128.375L365.107 183.559L337.264 182.039Z" fill="white"/>
<path opacity="0.59" d="M1190.89 582.598L1173.78 527.371L1202.4 528.934L1218.74 584.118L1190.89 582.598Z" fill="white"/>
<path opacity="0.59" d="M1113.96 241.878L1096.85 186.652L1125.47 188.214L1141.8 243.398L1113.96 241.878Z" fill="white"/>
<path opacity="0.59" d="M583.95 317.594L566.839 262.367L595.46 263.93L611.793 319.114L583.95 317.594Z" fill="#F1B042"/>
<path opacity="0.59" d="M1099 666.862L1076.91 611.635L1113.87 613.198L1134.96 668.382L1099 666.862Z" fill="#F1B042"/>
<path opacity="0.59" d="M244.193 698.613L222.096 643.387L259.058 644.949L280.151 700.133L244.193 698.613Z" fill="#F1B042"/>
<path opacity="0.59" d="M908.721 444.606L1263.32 350.448L1255.32 500.646L900.939 590.721L908.721 444.606Z" fill="#6DC142"/>
<path opacity="0.59" d="M189.902 619.507L468.279 549.561L462.301 661.817L184.085 728.713L189.902 619.507Z" fill="#0E1732"/>
<path opacity="0.59" d="M234.698 634.789L216.583 579.884L245.228 580.924L262.565 635.801L234.698 634.789Z" fill="white"/>
<path d="M571.51 435.188L571.503 490.388L609.702 490.111L609.701 496.311C609.701 498.445 609.301 499.914 608.501 500.72C607.834 501.391 606.434 501.735 604.301 501.75L555.502 502.104L555.52 367.504C555.52 365.371 555.853 363.968 556.52 363.297C557.32 362.491 558.787 362.08 560.92 362.065L609.719 361.711L609.718 367.911C609.718 370.045 609.384 371.514 608.718 372.319C608.184 372.989 606.851 373.332 604.718 373.348L571.518 373.588L571.512 423.588L603.711 423.355L603.71 429.555C603.71 431.688 603.376 433.157 602.71 433.962C602.176 434.633 600.843 434.976 598.71 434.991L571.51 435.188Z" fill="#FBFBF9"/>
<path d="M571.51 435.188L571.511 432.188L568.511 432.21L568.51 435.21L571.51 435.188ZM571.503 490.388L568.503 490.41L568.503 493.41L571.503 493.388L571.503 490.388ZM609.702 490.111L612.702 490.09L612.702 487.09L609.702 487.111L609.702 490.111ZM608.501 500.72L606.38 498.614L606.38 498.614L608.501 500.72ZM555.502 502.104L552.502 502.126L552.502 505.126L555.502 505.104L555.502 502.104ZM556.52 363.297L558.641 365.403L558.641 365.403L556.52 363.297ZM609.719 361.711L612.719 361.69L612.719 358.69L609.719 358.711L609.719 361.711ZM608.718 372.319L606.413 370.415L606.394 370.438L606.375 370.461L608.718 372.319ZM571.518 373.588L571.519 370.588L568.519 370.61L568.519 373.61L571.518 373.588ZM571.512 423.588L568.512 423.61L568.512 426.61L571.511 426.588L571.512 423.588ZM603.711 423.355L606.711 423.333L606.711 420.333L603.711 420.355L603.711 423.355ZM602.71 433.962L600.405 432.058L600.386 432.081L600.367 432.105L602.71 433.962ZM568.51 435.21L568.503 490.41L574.503 490.366L574.51 435.166L568.51 435.21ZM571.503 493.388L609.702 493.111L609.702 487.111L571.503 487.388L571.503 493.388ZM606.702 490.133L606.701 496.333L612.701 496.29L612.702 490.09L606.702 490.133ZM606.701 496.333C606.701 497.231 606.615 497.848 606.507 498.245C606.399 498.642 606.305 498.689 606.38 498.614L610.622 502.826C612.311 501.124 612.701 498.589 612.701 496.29L606.701 496.333ZM606.38 498.614C606.594 498.398 606.679 498.464 606.256 498.568C605.864 498.664 605.234 498.744 604.301 498.75L604.3 504.75C605.5 504.742 606.637 504.642 607.645 504.395C608.622 504.155 609.741 503.713 610.622 502.826L606.38 498.614ZM604.301 498.75L555.502 499.104L555.502 505.104L604.3 504.75L604.301 498.75ZM558.502 502.082L558.52 367.482L552.52 367.526L552.502 502.126L558.502 502.082ZM558.52 367.482C558.52 366.549 558.595 365.918 558.688 365.526C558.789 365.103 558.856 365.187 558.641 365.403L554.399 361.191C553.518 362.078 553.085 363.2 552.852 364.179C552.612 365.189 552.52 366.326 552.52 367.526L558.52 367.482ZM558.641 365.403C558.567 365.478 558.613 365.384 559.009 365.273C559.405 365.162 560.022 365.072 560.92 365.065L560.921 359.065C558.621 359.082 556.089 359.489 554.399 361.191L558.641 365.403ZM560.92 365.065L609.719 364.711L609.719 358.711L560.921 359.065L560.92 365.065ZM606.719 361.733L606.718 367.933L612.718 367.89L612.719 361.69L606.719 361.733ZM606.718 367.933C606.718 368.861 606.644 369.523 606.543 369.969C606.437 370.433 606.339 370.504 606.413 370.415L611.022 374.222C612.417 372.538 612.718 370.109 612.718 367.89L606.718 367.933ZM606.375 370.461C606.548 370.244 606.71 370.148 606.751 370.126C606.789 370.105 606.751 370.132 606.59 370.174C606.254 370.26 605.658 370.341 604.718 370.348L604.717 376.348C605.91 376.339 607.047 376.24 608.045 375.984C608.989 375.741 610.2 375.257 611.06 374.176L606.375 370.461ZM604.718 370.348L571.519 370.588L571.518 376.588L604.717 376.348L604.718 370.348ZM568.519 373.61L568.512 423.61L574.512 423.566L574.518 373.566L568.519 373.61ZM571.511 426.588L603.711 426.355L603.711 420.355L571.512 420.588L571.511 426.588ZM600.711 423.377L600.71 429.577L606.71 429.533L606.711 423.333L600.711 423.377ZM600.71 429.577C600.71 430.504 600.636 431.167 600.535 431.613C600.429 432.076 600.331 432.148 600.405 432.058L605.014 435.866C606.409 434.182 606.71 431.752 606.71 429.533L600.71 429.577ZM600.367 432.105C600.54 431.887 600.702 431.792 600.743 431.769C600.781 431.749 600.743 431.776 600.582 431.817C600.247 431.903 599.65 431.984 598.71 431.991L598.709 437.991C599.902 437.982 601.039 437.884 602.037 437.627C602.981 437.384 604.192 436.901 605.052 435.819L600.367 432.105ZM598.71 431.991L571.511 432.188L571.51 438.188L598.709 437.991L598.71 431.991Z" fill="white"/>
<path d="M725.154 360.874L742.548 405.348L750.145 428.893L751.345 428.884L758.748 405.231L773.552 365.924C774.219 363.919 775.019 362.513 775.953 361.706C776.886 360.899 778.486 360.488 780.753 360.471L789.753 360.406L757.743 441.838L757.736 495.038C757.735 497.305 757.335 498.841 756.535 499.647C755.735 500.319 754.268 500.663 752.135 500.679L741.735 500.754L741.743 441.954L711.554 366.373C710.754 364.245 710.821 362.845 711.755 362.172C712.821 361.364 714.421 360.952 716.555 360.937L725.154 360.874Z" fill="#FBFBF9"/>
<path d="M725.154 360.874L727.949 359.764L727.204 357.86L725.155 357.874L725.154 360.874ZM742.548 405.348L745.404 404.408L745.376 404.322L745.343 404.238L742.548 405.348ZM750.145 428.893L747.289 429.833L747.959 431.909L750.144 431.893L750.145 428.893ZM751.345 428.884L751.344 431.884L753.547 431.869L754.207 429.761L751.345 428.884ZM758.748 405.231L755.941 404.192L755.911 404.272L755.885 404.354L758.748 405.231ZM773.552 365.924L776.359 366.963L776.38 366.908L776.398 366.852L773.552 365.924ZM775.953 361.706L777.905 363.97L777.905 363.97L775.953 361.706ZM789.753 360.406L792.543 361.486L794.16 357.374L789.753 357.406L789.753 360.406ZM757.743 441.838L754.952 440.758L754.743 441.29L754.743 441.86L757.743 441.838ZM756.535 499.647L758.455 501.938L758.56 501.85L758.656 501.753L756.535 499.647ZM741.735 500.754L738.735 500.776L738.735 503.776L741.735 503.754L741.735 500.754ZM741.743 441.954L744.743 441.932L744.743 441.357L744.53 440.824L741.743 441.954ZM711.554 366.373L708.745 367.447L708.756 367.475L708.767 367.504L711.554 366.373ZM711.755 362.172L713.498 364.6L713.526 364.58L713.554 364.558L711.755 362.172ZM722.359 361.985L739.753 406.459L745.343 404.238L727.949 359.764L722.359 361.985ZM739.692 406.289L747.289 429.833L753 427.953L745.404 404.408L739.692 406.289ZM750.144 431.893L751.344 431.884L751.345 425.884L750.145 425.893L750.144 431.893ZM754.207 429.761L761.61 406.108L755.885 404.354L748.482 428.008L754.207 429.761ZM761.554 406.27L776.359 366.963L770.746 364.884L755.941 404.192L761.554 406.27ZM776.398 366.852C777.001 365.039 777.583 364.248 777.905 363.97L774.001 359.443C772.455 360.778 771.437 362.798 770.706 364.995L776.398 366.852ZM777.905 363.97C777.993 363.893 778.668 363.486 780.752 363.471L780.753 357.471C778.305 357.489 775.779 357.906 774.001 359.443L777.905 363.97ZM780.752 363.471L789.752 363.406L789.753 357.406L780.753 357.471L780.752 363.471ZM786.962 359.326L754.952 440.758L760.534 442.918L792.543 361.486L786.962 359.326ZM754.743 441.86L754.736 495.06L760.736 495.016L760.743 441.816L754.743 441.86ZM754.736 495.06C754.736 496.037 754.647 496.715 754.533 497.154C754.416 497.602 754.315 497.64 754.414 497.541L758.656 501.753C760.369 500.028 760.735 497.386 760.736 495.016L754.736 495.06ZM754.615 497.356C754.704 497.281 754.633 497.38 754.171 497.489C753.725 497.593 753.063 497.672 752.135 497.679L752.135 503.679C754.354 503.663 756.781 503.345 758.455 501.938L754.615 497.356ZM752.135 497.679L741.736 497.754L741.735 503.754L752.135 503.679L752.135 497.679ZM744.735 500.732L744.743 441.932L738.743 441.976L738.735 500.776L744.735 500.732ZM744.53 440.824L714.341 365.242L708.767 367.504L738.956 443.085L744.53 440.824ZM714.363 365.299C714.204 364.876 714.107 364.54 714.054 364.283C714 364.022 713.999 363.886 714.001 363.848C714.002 363.815 714.003 363.923 713.917 364.1C713.823 364.294 713.674 364.473 713.498 364.6L710.011 359.743C708.631 360.739 708.074 362.214 708.008 363.606C707.947 364.89 708.281 366.211 708.745 367.447L714.363 365.299ZM713.554 364.558C713.873 364.317 714.709 363.95 716.554 363.937L716.555 357.937C714.133 357.954 711.77 358.41 709.955 359.785L713.554 364.558ZM716.554 363.937L725.154 363.874L725.155 357.874L716.555 357.937L716.554 363.937Z" fill="white"/>
<path d="M881.124 499.665C878.991 499.68 877.59 499.357 876.92 498.695C876.384 497.899 876.112 496.434 876.103 494.301L876.079 488.101L925.216 370.942L878.417 371.281L878.392 365.082C878.384 362.948 878.645 361.546 879.176 360.876C879.839 360.071 881.238 359.661 883.371 359.645L936.17 359.263C938.303 359.247 939.638 359.637 940.174 360.434C940.844 361.095 941.182 362.493 941.191 364.626L941.215 370.826L891.878 487.986L941.077 487.63L941.101 493.83C941.11 495.963 940.782 497.432 940.119 498.237C939.588 498.907 938.256 499.25 936.123 499.266L881.124 499.665Z" fill="#FBFBF9"/>
<path d="M876.92 498.695L874.431 500.377L874.597 500.623L874.808 500.832L876.92 498.695ZM876.079 488.101L873.313 486.948L873.076 487.512L873.079 488.123L876.079 488.101ZM925.216 370.942L927.982 372.095L929.737 367.909L925.204 367.942L925.216 370.942ZM878.417 371.281L875.417 371.303L875.429 374.303L878.429 374.281L878.417 371.281ZM879.176 360.876L876.864 358.972L876.845 358.995L876.826 359.019L879.176 360.876ZM940.174 360.434L937.685 362.116L937.85 362.362L938.061 362.57L940.174 360.434ZM941.215 370.826L943.98 371.983L944.218 371.417L944.215 370.805L941.215 370.826ZM891.878 487.986L889.114 486.83L887.35 491.019L891.89 490.986L891.878 487.986ZM941.077 487.63L944.077 487.608L944.065 484.608L941.065 484.63L941.077 487.63ZM940.119 498.237L937.807 496.333L937.788 496.356L937.769 496.38L940.119 498.237ZM881.112 496.665C880.179 496.671 879.549 496.601 879.157 496.51C878.734 496.413 878.818 496.346 879.033 496.558L874.808 500.832C875.692 501.706 876.812 502.132 877.79 502.357C878.799 502.59 879.936 502.673 881.136 502.665L881.112 496.665ZM879.41 497.013C879.461 497.089 879.361 496.97 879.263 496.441C879.171 495.943 879.107 495.236 879.103 494.279L873.103 494.323C873.108 495.499 873.185 496.591 873.364 497.557C873.539 498.494 873.843 499.505 874.431 500.377L879.41 497.013ZM879.103 494.279L879.079 488.079L873.079 488.123L873.103 494.323L879.103 494.279ZM878.844 489.253L927.982 372.095L922.45 369.79L873.313 486.948L878.844 489.253ZM925.204 367.942L878.405 368.282L878.429 374.281L925.228 373.942L925.204 367.942ZM881.417 371.26L881.392 365.06L875.393 365.103L875.417 371.303L881.417 371.26ZM881.392 365.06C881.389 364.099 881.448 363.419 881.531 362.97C881.625 362.467 881.704 362.508 881.526 362.733L876.826 359.019C876.117 359.914 875.8 360.992 875.633 361.89C875.455 362.843 875.388 363.931 875.393 365.103L881.392 365.06ZM881.488 362.78C881.311 362.994 881.215 362.944 881.558 362.843C881.896 362.744 882.478 362.652 883.383 362.645L883.359 356.645C882.131 356.654 880.946 356.775 879.887 357.086C878.832 357.395 877.704 357.953 876.864 358.972L881.488 362.78ZM883.383 362.645L936.181 362.263L936.158 356.263L883.359 356.645L883.383 362.645ZM936.181 362.263C937.094 362.256 937.64 362.341 937.92 362.423C938.21 362.508 937.948 362.506 937.685 362.116L942.664 358.751C941.864 357.565 940.666 356.969 939.621 356.664C938.567 356.356 937.379 356.254 936.158 356.263L936.181 362.263ZM938.061 362.57C937.846 362.358 937.912 362.272 938.015 362.694C938.11 363.085 938.187 363.715 938.191 364.648L944.191 364.605C944.186 363.405 944.09 362.269 943.846 361.262C943.609 360.287 943.172 359.171 942.287 358.297L938.061 362.57ZM938.191 364.648L938.215 370.848L944.215 370.805L944.191 364.605L938.191 364.648ZM938.451 369.67L889.114 486.83L894.642 489.143L943.98 371.983L938.451 369.67ZM891.89 490.986L941.089 490.63L941.065 484.63L891.866 484.986L891.89 490.986ZM938.077 487.651L938.101 493.851L944.101 493.808L944.077 487.608L938.077 487.651ZM938.101 493.851C938.105 494.779 938.034 495.441 937.934 495.888C937.831 496.351 937.733 496.423 937.807 496.333L942.431 500.141C943.819 498.457 944.11 496.027 944.101 493.808L938.101 493.851ZM937.769 496.38C937.941 496.162 938.103 496.066 938.143 496.044C938.181 496.024 938.143 496.051 937.983 496.092C937.647 496.178 937.051 496.259 936.111 496.266L936.135 502.266C937.328 502.257 938.464 502.159 939.461 501.902C940.404 501.659 941.613 501.175 942.469 500.094L937.769 496.38ZM936.111 496.266L881.112 496.665L881.136 502.665L936.135 502.266L936.111 496.266Z" fill="white"/>
<path d="M405.739 534.67C402.539 534.693 400.434 534.208 399.425 533.216C398.613 532.022 398.191 529.825 398.159 526.625L398.067 517.325L424.166 517.136C430.366 517.091 434.253 515.763 435.827 513.151C437.401 510.54 438.157 506.134 438.096 499.935L436.695 358.942C436.633 352.742 435.79 348.348 434.164 345.76C432.538 343.171 428.625 341.9 422.425 341.945L384.326 342.221L386.24 534.811L362.24 534.985L360.235 333.095C360.203 329.895 360.682 327.792 361.672 326.785C362.86 325.576 365.054 324.96 368.254 324.937L431.852 324.476C442.252 324.401 449.574 326.548 453.817 330.917C458.259 335.085 460.531 342.368 460.635 352.768L462.155 505.76C462.258 516.16 460.132 523.575 455.775 528.007C451.617 532.237 444.338 534.39 433.939 534.466L405.739 534.67Z" fill="white"/>
<path d="M399.425 533.216L396.945 534.898L397.112 535.144L397.324 535.352L399.425 533.216ZM398.067 517.325L398.037 514.325L395.037 514.347L395.067 517.347L398.067 517.325ZM435.827 513.151L438.397 514.705L438.397 514.705L435.827 513.151ZM434.164 345.76L431.624 347.35L431.624 347.35L434.164 345.76ZM384.326 342.221L384.297 339.221L381.297 339.243L381.326 342.243L384.326 342.221ZM386.24 534.811L386.27 537.811L389.27 537.79L389.24 534.79L386.24 534.811ZM362.24 534.985L359.241 535.007L359.27 538.007L362.27 537.985L362.24 534.985ZM361.672 326.785L363.814 328.891L363.814 328.891L361.672 326.785ZM453.817 330.917L451.668 333.004L451.716 333.054L451.767 333.102L453.817 330.917ZM455.775 528.007L453.633 525.901L453.633 525.901L455.775 528.007ZM405.709 531.67C404.243 531.681 403.17 531.572 402.427 531.401C401.652 531.222 401.477 531.032 401.525 531.079L397.324 535.352C398.382 536.392 399.765 536.941 401.095 537.247C402.456 537.561 404.036 537.682 405.769 537.67L405.709 531.67ZM401.904 531.534C401.82 531.41 401.617 531.009 401.445 530.114C401.28 529.25 401.174 528.093 401.159 526.603L395.159 526.647C395.176 528.357 395.297 529.898 395.553 531.23C395.803 532.533 396.217 533.827 396.945 534.898L401.904 531.534ZM401.159 526.603L401.067 517.304L395.067 517.347L395.159 526.647L401.159 526.603ZM398.096 520.325L424.196 520.136L424.136 514.136L398.037 514.325L398.096 520.325ZM424.196 520.136C427.471 520.112 430.346 519.752 432.708 518.945C435.086 518.133 437.138 516.794 438.397 514.705L433.256 511.598C432.942 512.12 432.263 512.752 430.754 513.267C429.229 513.788 427.06 514.115 424.136 514.136L424.196 520.136ZM438.397 514.705C440.428 511.336 441.158 506.202 441.096 499.913L435.096 499.956C435.156 506.067 434.374 509.744 433.256 511.598L438.397 514.705ZM441.096 499.913L439.695 358.92L433.695 358.963L435.096 499.956L441.096 499.913ZM439.695 358.92C439.632 352.631 438.801 347.508 436.703 344.169L431.624 347.35C432.778 349.188 433.634 352.853 433.695 358.963L439.695 358.92ZM436.703 344.169C435.402 342.098 433.324 340.79 430.93 340.012C428.553 339.239 425.671 338.921 422.396 338.945L422.455 344.945C425.379 344.923 427.554 345.218 429.089 345.718C430.609 346.211 431.299 346.833 431.624 347.35L436.703 344.169ZM422.396 338.945L384.297 339.221L384.356 345.221L422.455 344.945L422.396 338.945ZM381.326 342.243L383.24 534.833L389.24 534.79L387.326 342.199L381.326 342.243ZM386.21 531.812L362.211 531.986L362.27 537.985L386.27 537.811L386.21 531.812ZM365.24 534.964L363.234 333.074L357.235 333.117L359.241 535.007L365.24 534.964ZM363.234 333.074C363.22 331.607 363.326 330.534 363.495 329.791C363.672 329.017 363.861 328.843 363.814 328.891L359.53 324.679C358.492 325.734 357.948 327.115 357.645 328.444C357.335 329.805 357.217 331.384 357.235 333.117L363.234 333.074ZM363.814 328.891C364.121 328.578 365.25 327.959 368.284 327.937L368.224 321.937C364.858 321.962 361.598 322.574 359.53 324.679L363.814 328.891ZM368.284 327.937L431.882 327.476L431.822 321.476L368.224 321.937L368.284 327.937ZM431.882 327.476C442.01 327.402 448.29 329.526 451.668 333.004L455.967 328.83C450.857 323.569 442.494 321.399 431.822 321.476L431.882 327.476ZM451.767 333.102C455.303 336.419 457.534 342.662 457.635 352.79L463.635 352.746C463.529 342.075 461.215 333.75 455.867 328.732L451.767 333.102ZM457.635 352.79L459.155 505.782L465.155 505.739L463.635 352.746L457.635 352.79ZM459.155 505.782C459.255 515.89 457.158 522.316 453.633 525.901L457.918 530.113C463.105 524.835 465.261 516.429 465.155 505.739L459.155 505.782ZM453.633 525.901C450.326 529.266 444.065 531.392 433.909 531.466L433.968 537.465C444.611 537.388 452.908 535.209 457.918 530.113L453.633 525.901ZM433.909 531.466L405.709 531.67L405.769 537.67L433.968 537.465L433.909 531.466Z" fill="white"/>
<path d="M1013.08 514.828L1006.98 514.873C1005.91 514.88 1005.18 514.719 1004.77 514.389C1004.44 513.991 1004.27 513.259 1004.26 512.192L1004.22 506.892L1010.32 506.848C1011.39 506.84 1012.09 507.035 1012.42 507.433C1012.83 507.763 1013.03 508.462 1013.04 509.529L1013.08 514.828ZM1047.69 463.776C1048.76 463.768 1049.43 463.964 1049.7 464.362C1050.03 464.693 1050.2 465.391 1050.21 466.458L1050.23 469.558L1037.94 469.647C1035.87 469.662 1034.57 470.105 1034.04 470.975C1033.52 471.846 1033.26 473.314 1033.28 475.381L1033.48 503.18C1033.49 505.247 1033.77 506.712 1034.31 507.574C1034.85 508.437 1036.15 508.861 1038.22 508.846L1050.52 508.757L1050.54 511.857C1050.55 512.923 1050.39 513.658 1050.06 514.06C1049.79 514.396 1049.13 514.567 1048.06 514.575L1035.06 514.669C1031.59 514.694 1029.12 514.012 1027.65 512.623C1026.24 511.166 1025.52 508.705 1025.49 505.238L1025.26 473.439C1025.24 469.972 1025.92 467.534 1027.31 466.124C1028.77 464.647 1031.23 463.896 1034.69 463.87L1047.69 463.776ZM1069.4 444.418L1069.89 511.717C1069.9 512.783 1069.7 513.518 1069.3 513.921C1068.97 514.257 1068.27 514.428 1067.21 514.436L1061.91 514.474L1061.42 447.176C1061.41 446.11 1061.57 445.408 1061.9 445.073C1062.3 444.67 1063.03 444.464 1064.1 444.457L1069.4 444.418ZM1108.28 514.138L1107.93 466.04C1107.92 464.973 1108.08 464.272 1108.41 463.936C1108.81 463.533 1109.54 463.328 1110.61 463.32L1115.91 463.282L1116.26 511.38C1116.26 512.447 1116.07 513.182 1115.67 513.585C1115.34 513.92 1114.64 514.092 1113.58 514.1L1108.28 514.138ZM1082.93 466.221C1082.92 465.154 1083.08 464.453 1083.41 464.117C1083.81 463.714 1084.54 463.509 1085.61 463.501L1090.91 463.463L1091.19 502.762C1091.21 504.828 1091.49 506.293 1092.03 507.156C1092.57 508.019 1093.87 508.443 1095.93 508.428L1104.23 508.367L1104.26 511.467C1104.26 512.534 1104.1 513.269 1103.77 513.671C1103.51 514.006 1102.84 514.178 1101.78 514.185L1092.78 514.251C1089.31 514.276 1086.84 513.594 1085.36 512.204C1083.95 510.748 1083.23 508.286 1083.21 504.82L1082.93 466.221ZM1152.51 463.016C1155.97 462.991 1158.41 463.707 1159.82 465.163C1161.3 466.553 1162.05 468.981 1162.07 472.447L1162.3 504.246C1162.33 507.713 1161.61 510.185 1160.16 511.662C1158.77 513.072 1156.34 513.79 1152.87 513.815L1143.37 513.884C1141.44 513.898 1140.04 513.441 1139.16 512.514C1138.36 511.52 1137.75 510.058 1137.33 508.128L1137.35 511.227C1137.36 512.294 1137.17 513.029 1136.77 513.432C1136.44 513.767 1135.74 513.939 1134.67 513.947L1129.37 513.985L1128.89 446.687C1128.88 445.621 1129.04 444.919 1129.37 444.584C1129.77 444.181 1130.5 443.975 1131.57 443.968L1136.87 443.929L1137.33 508.128L1149.63 508.038C1151.7 508.023 1153 507.581 1153.52 506.71C1154.05 505.84 1154.31 504.371 1154.29 502.304L1154.09 474.505C1154.07 472.439 1153.8 470.974 1153.26 470.111C1152.72 469.248 1151.41 468.824 1149.35 468.839L1141.05 468.9L1141.03 465.8C1141.02 464.733 1141.15 464.032 1141.41 463.697C1141.74 463.294 1142.44 463.089 1143.51 463.082L1152.51 463.016Z" fill="white"/>
</g>
<defs>
<clipPath id="clip0">
<rect width="1430" height="898" fill="white"/>
</clipPath>
</defs>
</svg>
