<svg width="41" height="41" viewBox="0 0 41 41" fill="none" xmlns="http://www.w3.org/2000/svg">
<path d="M20.7676 3C17.0557 3 13.4272 4.08501 10.3409 6.11781C7.25456 8.15062 4.84908 11.0399 3.4286 14.4204C2.00813 17.8008 1.63647 21.5205 2.36062 25.1092C3.08477 28.6978 4.87221 31.9942 7.4969 34.5815C10.1216 37.1687 13.4657 38.9307 17.1062 39.6445C20.7468 40.3583 24.5203 39.992 27.9496 38.5918C31.3789 37.1915 34.31 34.8203 36.3722 31.778C38.4344 28.7357 39.5351 25.1589 39.5351 21.5C39.5351 19.0705 39.0497 16.6649 38.1065 14.4204C37.1634 12.1758 35.781 10.1364 34.0382 8.41852C32.2955 6.70064 30.2266 5.33794 27.9496 4.40823C25.6726 3.47852 23.2322 3 20.7676 3V3ZM17.0141 29.825V13.175L28.2746 21.5L17.0141 29.825Z" fill="#6DC142"/>
</svg>
